<svg width="1440" height="158" viewBox="0 0 1440 158" fill="none" xmlns="http://www.w3.org/2000/svg">
<path d="M1.5 22.7283C103.167 14.329 394.8 14.6965 748 83.3602C1101.2 152.024 1355.83 105.933 1439 74.3049" stroke="#73CBF2" stroke-width="0.5"/>
<path d="M0 83.3603C173 98.7151 596.6 120.212 907 83.3603C1217.4 46.5087 1392 36.5083 1440.5 36.1146" stroke="#FFDD00" stroke-width="0.5"/>
<path d="M121 120C140.33 120 156 104.33 156 85C156 65.67 140.33 50 121 50C101.67 50 86 65.67 86 85C86 104.33 101.67 120 121 120Z" fill="#FDEAE8"/>
<path d="M120.774 66V168.354" stroke="#F9C2BC" stroke-miterlimit="10"/>
<path d="M120.774 88.512L139.035 70.251" stroke="#F9C2BC" stroke-miterlimit="10"/>
<path d="M120.774 105.551L98.9678 83.7446" stroke="#F9C2BC" stroke-miterlimit="10"/>
<path d="M153.372 153.792C153.372 160.745 148.484 166.579 141.961 168.008H-20.4254C-23.5922 165.719 -25.8641 162.294 -26.673 158.335C-26.8967 157.303 -27 156.236 -27 155.134C-27 146.374 -19.909 139.265 -11.1314 139.265C-8.94558 139.265 -6.86304 139.713 -4.96983 140.505H-4.64282C4.30694 119.06 25.4766 104 50.1572 104C74.5281 104 95.474 118.681 104.613 139.696L136.178 139.455L141.221 139.42C148.105 140.556 153.372 146.563 153.372 153.792Z" fill="#E9F7FF"/>
<path d="M138.502 139.541C138.502 139.541 113.821 141.262 95.3019 168.025" stroke="#BDE9FF" stroke-miterlimit="10"/>
<path d="M91.7908 121.056C91.7908 121.056 57.9539 134.102 52.1021 168.008" stroke="#BDE9FF" stroke-miterlimit="10"/>
<path d="M39.7102 104.929C39.7102 104.929 7.92133 118.836 5.47736 168.025" stroke="#BDE9FF" stroke-miterlimit="10"/>
<path d="M1297 157.792C1297 164.745 1301.89 170.579 1308.41 172.008H1470.8C1473.96 169.719 1476.24 166.294 1477.05 162.335C1477.27 161.303 1477.37 160.236 1477.37 159.134C1477.37 150.374 1470.28 143.265 1461.5 143.265C1459.32 143.265 1457.24 143.713 1455.34 144.505H1455.01C1446.07 123.06 1424.9 108 1400.21 108C1375.84 108 1354.9 122.681 1345.76 143.696L1314.19 143.455L1309.15 143.42C1302.27 144.556 1297 150.563 1297 157.792Z" fill="#E9F7FF"/>
<path d="M1311.87 143.541C1311.87 143.541 1336.55 145.262 1355.07 172.025" stroke="#BDE9FF" stroke-miterlimit="10"/>
<path d="M1358.58 125.056C1358.58 125.056 1392.42 138.102 1398.27 172.008" stroke="#BDE9FF" stroke-miterlimit="10"/>
<path d="M1410.66 108.929C1410.66 108.929 1442.45 122.836 1444.89 172.025" stroke="#BDE9FF" stroke-miterlimit="10"/>
<path d="M1358.63 24.8158H1394.37C1396.37 24.8158 1397.99 23.1964 1397.99 21.1902V3.72757C1397.99 1.73031 1396.37 0.110901 1394.37 0.110901H1358.63C1356.63 0.110901 1355.01 1.73031 1355.01 3.72757V21.1902C1355 23.1964 1356.63 24.8158 1358.63 24.8158Z" fill="#FDEAE8"/>
<path d="M1363.28 32.5889V24.5459H1371.32L1363.28 32.5889Z" fill="#FDEAE8"/>
<path d="M1384.58 15.1084H1397.99V14.4067H1389.47L1386.43 8.73876L1382.93 20.8033L1380.69 8.73876L1378.3 14.7755L1374.95 4.69025L1369.84 20.8033L1366.66 8.73876L1365.37 14.4157H1355V15.1084L1365.28 15.1264" fill="white"/>
<g opacity="0.3">
<path d="M488.047 27.382C484.164 25.764 485.081 27.7865 480.753 28.5416C476.438 29.2831 476.816 27.1798 469.292 25.4674C461.755 23.7551 462.726 27.3416 457.292 28.5416C451.858 29.7416 454.272 21.6382 449.04 21.6382C443.809 21.6382 443.728 27.3955 438.618 27.3955C433.521 27.3955 431.917 4.60899 422.506 6.1191C413.108 7.62921 412.582 26.9506 405.773 26.9506C398.964 26.9506 396.025 13.9663 388.69 15.2742C381.355 16.582 378.483 24.8607 371.148 24.8607C363.84 24.8607 363.072 5 354.267 5C345.463 5 343.737 13.3461 338.155 20.4517C332.587 27.5573 323 29 323 29C323 29 332.587 30.4427 338.169 37.5483C343.751 44.6539 345.476 53 354.281 53C363.085 53 363.854 33.1393 371.189 33.1393C378.524 33.1393 381.396 41.418 388.73 42.7258C396.065 44.0337 399.004 31.0494 405.813 31.0494C412.622 31.0494 413.148 50.3708 422.546 51.8809C431.93 53.4045 433.535 30.618 438.631 30.618C443.728 30.618 443.822 36.3753 449.054 36.3753C454.285 36.3753 451.858 28.2584 457.306 29.4719C462.739 30.6719 461.769 34.2584 469.306 32.5461C476.843 30.8337 476.452 28.7303 480.766 29.4719C485.081 30.2135 484.178 32.236 488.061 30.6315C491.876 29.0405 491.944 29.0135 491.944 29.0135C491.93 29 491.863 28.973 488.047 27.382Z" fill="#DAF4FF"/>
</g>
</svg>
