<svg width="374" height="531" viewBox="0 0 374 531" fill="none" xmlns="http://www.w3.org/2000/svg">
<g filter="url(#filter0_dd_1_11523)">
<rect x="10" y="8" width="350" height="507" rx="8" fill="#F7FDFF"/>
<rect x="10.5" y="8.5" width="349" height="506" rx="7.5" stroke="#BCEAFF"/>
</g>
<g filter="url(#filter1_d_1_11523)">
<rect x="126" y="435" width="137" height="40" rx="6" fill="white"/>
<rect x="126.5" y="435.5" width="136" height="39" rx="5.5" stroke="#F37164"/>
</g>
<path d="M156.924 461.144C156.228 461.144 155.88 460.784 155.88 460.064V449.246C155.88 448.526 156.24 448.166 156.96 448.166C157.26 448.166 157.494 448.226 157.662 448.346C157.842 448.454 158.004 448.646 158.148 448.922L162.306 456.608L166.464 448.922C166.608 448.646 166.764 448.454 166.932 448.346C167.1 448.226 167.334 448.166 167.634 448.166C168.33 448.166 168.678 448.526 168.678 449.246V460.064C168.678 460.784 168.33 461.144 167.634 461.144C166.938 461.144 166.59 460.784 166.59 460.064V452.45L163.206 458.624C163.086 458.828 162.96 458.978 162.828 459.074C162.696 459.17 162.516 459.218 162.288 459.218C162.06 459.218 161.874 459.17 161.73 459.074C161.586 458.966 161.46 458.816 161.352 458.624L157.968 452.486V460.064C157.968 460.784 157.62 461.144 156.924 461.144ZM173.487 464.384C173.079 464.384 172.797 464.234 172.641 463.934C172.485 463.634 172.491 463.292 172.659 462.908L173.685 460.64L170.607 453.548C170.439 453.152 170.439 452.804 170.607 452.504C170.775 452.204 171.105 452.054 171.597 452.054C171.873 452.054 172.095 452.12 172.263 452.252C172.431 452.372 172.581 452.606 172.713 452.954L174.873 458.354L177.087 452.936C177.219 452.6 177.375 452.372 177.555 452.252C177.735 452.12 177.975 452.054 178.275 452.054C178.659 452.054 178.929 452.204 179.085 452.504C179.241 452.804 179.235 453.146 179.067 453.53L174.693 463.52C174.537 463.856 174.369 464.084 174.189 464.204C174.009 464.324 173.775 464.384 173.487 464.384ZM191.736 461.18C190.416 461.18 189.282 460.916 188.334 460.388C187.398 459.848 186.678 459.092 186.174 458.12C185.67 457.136 185.418 455.978 185.418 454.646C185.418 453.314 185.67 452.162 186.174 451.19C186.678 450.218 187.398 449.468 188.334 448.94C189.282 448.4 190.416 448.13 191.736 448.13C192.396 448.13 193.044 448.214 193.68 448.382C194.316 448.55 194.874 448.79 195.354 449.102C195.666 449.306 195.852 449.552 195.912 449.84C195.972 450.116 195.936 450.374 195.804 450.614C195.672 450.842 195.474 450.998 195.21 451.082C194.946 451.154 194.652 451.082 194.328 450.866C193.956 450.626 193.554 450.452 193.122 450.344C192.69 450.236 192.252 450.182 191.808 450.182C190.524 450.182 189.546 450.572 188.874 451.352C188.202 452.12 187.866 453.218 187.866 454.646C187.866 456.074 188.202 457.178 188.874 457.958C189.546 458.738 190.524 459.128 191.808 459.128C192.264 459.128 192.714 459.074 193.158 458.966C193.602 458.846 194.022 458.666 194.418 458.426C194.742 458.222 195.03 458.156 195.282 458.228C195.534 458.3 195.72 458.45 195.84 458.678C195.972 458.894 196.014 459.134 195.966 459.398C195.918 459.662 195.756 459.896 195.48 460.1C195 460.448 194.424 460.718 193.752 460.91C193.092 461.09 192.42 461.18 191.736 461.18ZM200.432 461.18C199.796 461.18 199.226 461.06 198.722 460.82C198.23 460.568 197.84 460.232 197.552 459.812C197.276 459.392 197.138 458.918 197.138 458.39C197.138 457.742 197.306 457.232 197.642 456.86C197.978 456.476 198.524 456.2 199.28 456.032C200.036 455.864 201.05 455.78 202.322 455.78H202.952V455.402C202.952 454.802 202.82 454.37 202.556 454.106C202.292 453.842 201.848 453.71 201.224 453.71C200.876 453.71 200.498 453.752 200.09 453.836C199.694 453.92 199.274 454.064 198.83 454.268C198.542 454.4 198.302 454.418 198.11 454.322C197.918 454.214 197.786 454.052 197.714 453.836C197.654 453.608 197.666 453.38 197.75 453.152C197.846 452.924 198.032 452.756 198.308 452.648C198.86 452.42 199.388 452.258 199.892 452.162C200.408 452.066 200.876 452.018 201.296 452.018C202.58 452.018 203.534 452.318 204.158 452.918C204.782 453.506 205.094 454.424 205.094 455.672V459.992C205.094 460.76 204.746 461.144 204.05 461.144C203.342 461.144 202.988 460.76 202.988 459.992V459.596C202.784 460.088 202.46 460.478 202.016 460.766C201.572 461.042 201.044 461.18 200.432 461.18ZM200.9 459.632C201.488 459.632 201.974 459.428 202.358 459.02C202.754 458.612 202.952 458.096 202.952 457.472V457.076H202.34C201.212 457.076 200.426 457.166 199.982 457.346C199.55 457.514 199.334 457.826 199.334 458.282C199.334 458.678 199.472 459.002 199.748 459.254C200.024 459.506 200.408 459.632 200.9 459.632ZM210.6 461.18C210.084 461.18 209.538 461.126 208.962 461.018C208.386 460.91 207.87 460.724 207.414 460.46C207.162 460.316 207.006 460.142 206.946 459.938C206.886 459.722 206.892 459.524 206.964 459.344C207.048 459.152 207.18 459.014 207.36 458.93C207.552 458.846 207.774 458.864 208.026 458.984C208.506 459.212 208.956 459.374 209.376 459.47C209.796 459.554 210.21 459.596 210.618 459.596C211.194 459.596 211.62 459.5 211.896 459.308C212.184 459.104 212.328 458.84 212.328 458.516C212.328 458.012 211.956 457.688 211.212 457.544L209.412 457.202C207.888 456.914 207.126 456.122 207.126 454.826C207.126 454.25 207.282 453.752 207.594 453.332C207.918 452.912 208.362 452.588 208.926 452.36C209.49 452.132 210.138 452.018 210.87 452.018C211.926 452.018 212.868 452.252 213.696 452.72C213.924 452.84 214.056 453.008 214.092 453.224C214.14 453.428 214.116 453.626 214.02 453.818C213.936 453.998 213.798 454.13 213.606 454.214C213.414 454.286 213.192 454.262 212.94 454.142C212.568 453.95 212.208 453.812 211.86 453.728C211.524 453.644 211.2 453.602 210.888 453.602C210.3 453.602 209.862 453.704 209.574 453.908C209.298 454.112 209.16 454.382 209.16 454.718C209.16 455.246 209.502 455.57 210.186 455.69L211.986 456.032C212.766 456.176 213.354 456.44 213.75 456.824C214.158 457.208 214.362 457.724 214.362 458.372C214.362 459.248 214.02 459.938 213.336 460.442C212.652 460.934 211.74 461.18 210.6 461.18ZM220.505 461.18C219.509 461.18 218.651 460.994 217.931 460.622C217.211 460.25 216.653 459.722 216.257 459.038C215.873 458.354 215.681 457.544 215.681 456.608C215.681 455.696 215.867 454.898 216.239 454.214C216.623 453.53 217.145 452.996 217.805 452.612C218.477 452.216 219.239 452.018 220.091 452.018C221.339 452.018 222.323 452.414 223.043 453.206C223.775 453.998 224.141 455.078 224.141 456.446C224.141 456.89 223.853 457.112 223.277 457.112H217.841C218.009 458.684 218.909 459.47 220.541 459.47C220.853 459.47 221.201 459.434 221.585 459.362C221.981 459.278 222.353 459.14 222.701 458.948C223.013 458.768 223.277 458.714 223.493 458.786C223.709 458.846 223.859 458.972 223.943 459.164C224.039 459.356 224.051 459.572 223.979 459.812C223.919 460.04 223.751 460.238 223.475 460.406C223.055 460.67 222.569 460.868 222.017 461C221.477 461.12 220.973 461.18 220.505 461.18ZM220.181 453.548C219.521 453.548 218.987 453.752 218.579 454.16C218.171 454.568 217.925 455.12 217.841 455.816H222.269C222.221 455.084 222.017 454.526 221.657 454.142C221.309 453.746 220.817 453.548 220.181 453.548ZM229.145 461.18C228.629 461.18 228.083 461.126 227.507 461.018C226.931 460.91 226.415 460.724 225.959 460.46C225.707 460.316 225.551 460.142 225.491 459.938C225.431 459.722 225.437 459.524 225.509 459.344C225.593 459.152 225.725 459.014 225.905 458.93C226.097 458.846 226.319 458.864 226.571 458.984C227.051 459.212 227.501 459.374 227.921 459.47C228.341 459.554 228.755 459.596 229.163 459.596C229.739 459.596 230.165 459.5 230.441 459.308C230.729 459.104 230.873 458.84 230.873 458.516C230.873 458.012 230.501 457.688 229.757 457.544L227.957 457.202C226.433 456.914 225.671 456.122 225.671 454.826C225.671 454.25 225.827 453.752 226.139 453.332C226.463 452.912 226.907 452.588 227.471 452.36C228.035 452.132 228.683 452.018 229.415 452.018C230.471 452.018 231.413 452.252 232.241 452.72C232.469 452.84 232.601 453.008 232.637 453.224C232.685 453.428 232.661 453.626 232.565 453.818C232.481 453.998 232.343 454.13 232.151 454.214C231.959 454.286 231.737 454.262 231.485 454.142C231.113 453.95 230.753 453.812 230.405 453.728C230.069 453.644 229.745 453.602 229.433 453.602C228.845 453.602 228.407 453.704 228.119 453.908C227.843 454.112 227.705 454.382 227.705 454.718C227.705 455.246 228.047 455.57 228.731 455.69L230.531 456.032C231.311 456.176 231.899 456.44 232.295 456.824C232.703 457.208 232.907 457.724 232.907 458.372C232.907 459.248 232.565 459.938 231.881 460.442C231.197 460.934 230.285 461.18 229.145 461.18Z" fill="#F37164"/>
<rect x="26" y="24" width="318" height="379" rx="6" fill="white"/>
<path d="M295.611 163.587C296.692 163.587 297.568 162.714 297.568 161.637C297.568 160.56 296.692 159.688 295.611 159.688C294.53 159.688 293.654 160.56 293.654 161.637C293.654 162.714 294.53 163.587 295.611 163.587Z" fill="black"/>
<path d="M152.007 380.43H148.886C148.646 380.43 148.452 380.624 148.452 380.863V383.972C148.452 384.212 148.646 384.406 148.886 384.406H152.007C152.247 384.406 152.442 384.212 152.442 383.972V380.863C152.442 380.624 152.247 380.43 152.007 380.43Z" fill="black"/>
<path d="M278.898 85.8952L289.894 112.02C290.329 113.007 289.362 114.09 288.13 113.994L260.361 111.418C260.101 111.424 259.845 111.354 259.624 111.216C259.403 111.079 259.228 110.88 259.12 110.644C259.012 110.408 258.976 110.146 259.016 109.889C259.056 109.633 259.171 109.394 259.346 109.203L276.118 85.534C276.307 85.3378 276.54 85.1886 276.797 85.0983C277.054 85.0081 277.329 84.9794 277.6 85.0146C277.87 85.0497 278.129 85.1477 278.354 85.3007C278.58 85.4537 278.766 85.6573 278.898 85.8952Z" fill="#D1EEFF" fill-opacity="0.4"/>
<path d="M101.137 337.446L116.152 338.448C116.724 338.477 117.01 339.189 116.672 339.747L108.873 352.228C108.814 352.352 108.72 352.456 108.602 352.528C108.485 352.599 108.349 352.634 108.211 352.63C108.073 352.625 107.94 352.58 107.828 352.5C107.716 352.42 107.63 352.31 107.58 352.182L100.307 338.67C100.259 338.535 100.243 338.39 100.261 338.247C100.279 338.105 100.33 337.968 100.411 337.849C100.492 337.73 100.6 337.631 100.726 337.561C100.852 337.491 100.993 337.452 101.137 337.446Z" fill="#FFCDC8"/>
<path d="M194 274.179H253.969V269.72H194V274.179Z" fill="black"/>
<path d="M264.941 266.001L265.927 269.729H239.664L238.509 266.001H264.941Z" fill="#CCCCCC"/>
<path d="M194.892 238.152H229.401C229.542 238.153 229.678 238.199 229.791 238.283C229.904 238.367 229.988 238.485 230.03 238.62L238.509 266H202.618L194.263 239.007C194.232 238.908 194.225 238.804 194.242 238.702C194.259 238.6 194.299 238.503 194.361 238.42C194.422 238.337 194.502 238.269 194.594 238.222C194.686 238.176 194.788 238.152 194.892 238.152Z" fill="#E9F7FF"/>
<path d="M238.509 266.001L239.664 269.729H204.994C204.633 269.729 204.283 269.613 203.993 269.398C203.704 269.184 203.491 268.882 203.386 268.537L202.596 266.001H238.509Z" fill="#F4F4F4"/>
<path d="M264.941 266.001L265.927 269.729H239.664L238.509 266.001H264.941Z" stroke="black" stroke-width="0.75" stroke-miterlimit="10"/>
<path d="M194.892 238.152H229.401C229.542 238.153 229.678 238.199 229.791 238.283C229.904 238.367 229.988 238.485 230.03 238.62L238.509 266H202.618L194.263 239.007C194.232 238.908 194.225 238.804 194.242 238.702C194.259 238.6 194.299 238.503 194.361 238.42C194.422 238.337 194.502 238.269 194.594 238.222C194.686 238.176 194.788 238.152 194.892 238.152V238.152Z" stroke="black" stroke-width="0.75" stroke-miterlimit="10"/>
<path d="M238.509 266.001L239.664 269.729H204.994C204.633 269.729 204.283 269.613 203.993 269.398C203.704 269.184 203.491 268.882 203.386 268.537L202.596 266.001H238.509Z" stroke="black" stroke-width="0.75" stroke-miterlimit="10"/>
<path d="M248.72 264.311C249.576 264.311 249.619 265.737 250.182 266.46C250.745 267.184 253.428 267.878 253.625 267.922C253.823 267.966 260.109 269.713 261.132 269.479L265.686 270.29L263.435 272.593C263.435 272.593 255.138 278.119 255.029 277.965C254.919 277.812 249.51 274.033 248.698 273.66C247.887 273.287 244.313 271.365 243.523 270.795C242.734 270.225 241.798 267.944 241.411 266.855C241.023 265.766 240.68 265.532 240.526 264.911C240.373 264.289 247.865 264.355 248.72 264.311Z" fill="white"/>
<path d="M295.795 300.596C295.795 300.596 298.609 327.004 259.67 327.64L289.64 331.982L301.694 328.744" fill="black"/>
<path d="M290.072 238.773C290.636 240.268 290.967 241.841 291.051 243.436" stroke="black" stroke-width="0.75" stroke-miterlimit="10" stroke-linecap="round"/>
<path d="M291.533 238.181C291.533 238.181 292.264 238.912 290.751 240.9C290.751 240.9 290.218 239.299 290.188 239.168C290.159 239.036 289.735 238.437 290.737 238.437C291.738 238.437 291.533 238.181 291.533 238.181Z" fill="black"/>
<path d="M293.31 237.742C284.969 240.754 285.203 234.329 285.101 231.164C285.101 230.952 285.101 230.74 285.101 230.535C284.804 230.402 284.569 230.161 284.441 229.862C284.314 229.563 284.304 229.226 284.414 228.92C284.574 228.538 284.713 228.148 284.83 227.751C285.1 226.91 285.306 226.05 285.444 225.178C285.846 222.627 286.512 219.813 287.148 217.401" stroke="black" stroke-width="0.75" stroke-miterlimit="10"/>
<path d="M291.724 227.151C291.358 226.983 290.993 227.414 290.846 227.677C290.628 228.006 290.493 228.382 290.452 228.774C290.452 228.862 290.583 228.854 290.59 228.774C290.626 228.44 290.736 228.118 290.912 227.831C290.995 227.694 291.093 227.566 291.205 227.451C291.314 227.341 291.49 227.195 291.658 227.268C291.826 227.341 291.804 227.188 291.724 227.151Z" fill="black"/>
<path d="M291.248 228.095C291.158 228.029 291.049 227.993 290.938 227.993C290.826 227.993 290.717 228.029 290.627 228.095C290.616 228.107 290.61 228.122 290.61 228.139C290.61 228.155 290.616 228.17 290.627 228.182C290.64 228.194 290.657 228.2 290.675 228.2C290.692 228.2 290.709 228.194 290.722 228.182C290.792 228.13 290.876 228.102 290.963 228.102C291.05 228.102 291.135 228.13 291.205 228.182C291.218 228.194 291.235 228.2 291.252 228.2C291.269 228.2 291.286 228.194 291.3 228.182C291.31 228.169 291.315 228.152 291.315 228.135C291.315 228.118 291.31 228.101 291.3 228.087L291.248 228.095Z" fill="black"/>
<path d="M299.954 234.387C300.495 236.975 301.102 240.651 302.03 243.122" stroke="black" stroke-width="0.75" stroke-miterlimit="10" stroke-linecap="round"/>
<path d="M286.636 226.624V226.558C286.666 226.62 286.686 226.687 286.694 226.756V226.683C286.705 226.753 286.705 226.824 286.694 226.894V226.821C286.687 226.858 286.687 226.895 286.694 226.931C286.687 226.965 286.687 227 286.694 227.033C286.729 227.096 286.787 227.143 286.855 227.165C286.926 227.19 287.003 227.19 287.074 227.165C287.135 227.126 287.179 227.066 287.199 226.997C287.213 226.895 287.213 226.792 287.199 226.69C287.192 226.562 287.157 226.437 287.096 226.324C287.081 226.295 287.058 226.27 287.031 226.251C287.003 226.227 286.971 226.21 286.936 226.2C286.867 226.175 286.792 226.175 286.724 226.2C286.663 226.237 286.616 226.294 286.592 226.361V226.434C286.593 226.485 286.605 226.535 286.629 226.58L286.636 226.624Z" fill="black"/>
<path d="M287.257 230.806C287.207 230.927 287.141 231.04 287.06 231.142L287.104 231.091C287.018 231.195 286.922 231.29 286.819 231.376L286.877 231.332C286.789 231.399 286.693 231.456 286.592 231.5C286.531 231.539 286.486 231.6 286.467 231.67C286.448 231.741 286.456 231.816 286.49 231.88C286.528 231.942 286.588 231.986 286.658 232.005C286.726 232.033 286.802 232.033 286.87 232.005C287.257 231.823 287.564 231.506 287.732 231.113C287.758 231.045 287.758 230.969 287.732 230.901C287.711 230.834 287.667 230.778 287.608 230.74C287.573 230.726 287.536 230.718 287.498 230.718C287.461 230.718 287.423 230.726 287.389 230.74C287.322 230.762 287.265 230.805 287.228 230.864L287.257 230.806Z" fill="black"/>
<path d="M287.17 224.001C287.023 223.927 286.869 223.871 286.709 223.833C286.676 223.818 286.64 223.81 286.603 223.81C286.566 223.81 286.53 223.818 286.497 223.833C286.466 223.849 286.438 223.872 286.416 223.9C286.395 223.927 286.38 223.96 286.373 223.994C286.358 224.028 286.35 224.064 286.35 224.1C286.35 224.137 286.358 224.173 286.373 224.206C286.389 224.237 286.412 224.264 286.44 224.285C286.468 224.307 286.5 224.322 286.534 224.33L286.833 224.433H286.767L286.863 224.477C286.896 224.484 286.931 224.484 286.965 224.477C287.001 224.487 287.039 224.487 287.074 224.477C287.109 224.468 287.14 224.453 287.168 224.432C287.196 224.41 287.219 224.383 287.235 224.352C287.263 224.284 287.263 224.208 287.235 224.14C287.227 224.105 287.212 224.072 287.191 224.043C287.169 224.014 287.142 223.99 287.111 223.972L287.17 224.001Z" fill="black"/>
<path d="M294.633 243.108C294.633 243.108 280.642 244.022 277.528 250.973C274.414 257.924 274.604 271.439 274.604 271.439" stroke="black" stroke-width="0.75" stroke-miterlimit="10" stroke-linecap="round"/>
<path d="M274.582 270.7C274.582 270.7 269.809 270.056 268.734 269.969C267.177 269.888 265.328 268.931 263.998 274.683C262.104 282.84 264.802 283.761 268.442 284.565C270.92 285.114 287.345 293.146 290.89 270.02" stroke="black" stroke-width="0.75" stroke-miterlimit="10" stroke-linecap="round"/>
<path d="M266.008 270.363C266.008 270.363 264.926 270.173 260.613 269.457C256.301 268.741 250.899 267.571 250.058 266.533C249.734 266.031 249.522 265.465 249.437 264.874C249.392 264.494 249.264 264.129 249.062 263.804C248.86 263.479 248.589 263.203 248.267 262.995" stroke="black" stroke-width="0.75" stroke-miterlimit="10"/>
<path d="M264.29 282.629C264.239 282.475 259.356 281.628 250.16 274.998C244.971 271.256 242.851 271.906 241.674 268.003C240.497 264.1 238.801 264.648 238.801 264.648" stroke="black" stroke-width="0.75" stroke-miterlimit="10"/>
<path d="M247.544 264.21C246.873 263.079 245.959 262.113 244.868 261.381C244.576 261.176 244.298 261.659 244.59 261.856C245.6 262.538 246.444 263.437 247.061 264.487C247.098 264.551 247.159 264.598 247.23 264.617C247.301 264.636 247.377 264.626 247.441 264.59C247.505 264.553 247.552 264.492 247.571 264.421C247.59 264.35 247.58 264.274 247.544 264.21Z" fill="black"/>
<path d="M244.342 262.894C243.91 262.429 243.403 262.039 242.843 261.739C242.779 261.704 242.704 261.695 242.633 261.714C242.562 261.733 242.501 261.779 242.463 261.841C242.429 261.905 242.42 261.979 242.439 262.049C242.458 262.118 242.504 262.178 242.566 262.214C242.82 262.361 243.064 262.524 243.297 262.704H243.34L243.428 262.777L243.596 262.931C243.711 263.032 243.821 263.14 243.925 263.252C243.977 263.303 244.047 263.331 244.119 263.331C244.191 263.331 244.261 263.303 244.313 263.252C244.339 263.227 244.359 263.197 244.373 263.164C244.387 263.13 244.394 263.095 244.394 263.058C244.394 263.022 244.387 262.987 244.373 262.953C244.359 262.92 244.339 262.89 244.313 262.865L244.342 262.894Z" fill="black"/>
<path d="M242.368 263.581C241.932 263.003 241.346 262.555 240.672 262.287C240.602 262.27 240.527 262.28 240.464 262.317C240.401 262.354 240.355 262.414 240.336 262.485C240.318 262.554 240.328 262.629 240.363 262.691C240.399 262.754 240.457 262.801 240.526 262.821H240.563L240.658 262.865L240.87 262.974C241.003 263.055 241.133 263.143 241.257 263.238H241.301L241.389 263.311C241.503 263.415 241.613 263.525 241.718 263.64L241.798 263.735C241.849 263.8 241.798 263.691 241.798 263.735C241.813 263.771 241.836 263.804 241.865 263.831C241.894 263.858 241.929 263.879 241.966 263.892C242.004 263.904 242.044 263.909 242.083 263.905C242.123 263.901 242.161 263.888 242.195 263.868C242.229 263.848 242.259 263.821 242.282 263.789C242.305 263.756 242.32 263.719 242.328 263.68C242.335 263.641 242.334 263.601 242.325 263.563C242.315 263.524 242.298 263.488 242.273 263.457L242.368 263.581Z" fill="black"/>
<path d="M311.102 287.746C306.314 288.089 301.518 288.221 296.723 288.177C294.355 288.177 291.979 288.089 289.611 288.009C287.418 287.936 285.145 287.782 282.915 287.746C282.292 287.768 281.669 287.717 281.059 287.592C280.686 287.49 280.744 287.322 280.795 286.934C280.835 286.639 280.893 286.346 280.971 286.057C280.979 285.992 280.963 285.926 280.927 285.871C280.891 285.816 280.836 285.776 280.773 285.757C280.71 285.739 280.642 285.743 280.582 285.77C280.522 285.797 280.473 285.844 280.445 285.904C280.203 286.482 280.149 287.121 280.291 287.731C280.51 288.184 281.292 288.206 281.753 288.243C282.294 288.301 282.835 288.294 283.376 288.316L287.433 288.477C292.403 288.674 297.374 288.798 302.352 288.703C305.276 288.645 308.2 288.511 311.123 288.301C311.474 288.301 311.482 287.724 311.123 287.746H311.102Z" fill="black"/>
<path d="M282.981 288.03L282.579 290.135C282.471 290.691 282.222 291.209 281.854 291.64C281.486 292.07 281.013 292.398 280.481 292.591C272.718 295.39 241.279 301.326 233.428 314.833C224.942 329.452 240.482 388.394 242.354 395.338C242.403 395.521 242.397 395.713 242.337 395.893C242.277 396.072 242.166 396.23 242.017 396.347L238.275 399.27C238.117 399.394 238.001 399.564 237.944 399.756C237.887 399.949 237.891 400.154 237.956 400.344C238.021 400.534 238.144 400.698 238.307 400.815C238.471 400.932 238.666 400.995 238.867 400.995H258.508C258.649 400.995 258.788 400.965 258.916 400.905C259.044 400.845 259.157 400.759 259.247 400.651C259.338 400.543 259.404 400.416 259.44 400.28C259.477 400.144 259.483 400.001 259.458 399.862C258.464 394.322 255.073 372.818 254.539 356.007C253.932 338.055 251.206 330.424 251.206 330.424C259.656 329.554 267.886 329.547 276.629 329.386C285.167 329.233 293.931 328.955 302.308 327.193C306.438 326.309 310.59 324.686 313.038 321.046C315.743 317.033 316.196 311.391 315.641 306.705C315.248 303.589 314.449 300.537 313.265 297.627C312.132 294.769 310.341 292.072 309.552 289.083C309.462 288.759 309.399 288.429 309.362 288.096" fill="#FBD6D2"/>
<path d="M282.981 288.03L282.579 290.135C282.471 290.691 282.222 291.209 281.854 291.64C281.486 292.07 281.013 292.398 280.481 292.591C272.718 295.39 241.279 301.326 233.428 314.833C224.942 329.452 240.482 388.394 242.354 395.338C242.403 395.521 242.397 395.713 242.337 395.893C242.277 396.072 242.166 396.23 242.017 396.347L238.275 399.27C238.117 399.394 238.001 399.564 237.944 399.756C237.887 399.949 237.891 400.154 237.956 400.344C238.021 400.534 238.144 400.698 238.307 400.815C238.471 400.932 238.666 400.995 238.867 400.995H258.508C258.649 400.995 258.788 400.965 258.916 400.905C259.044 400.845 259.157 400.759 259.247 400.651C259.338 400.543 259.404 400.416 259.44 400.28C259.477 400.144 259.483 400.001 259.458 399.862C258.464 394.322 255.073 372.818 254.539 356.007C253.932 338.055 251.206 330.424 251.206 330.424C259.656 329.554 267.886 329.547 276.629 329.386C285.167 329.233 293.931 328.955 302.308 327.193C306.438 326.309 310.59 324.686 313.038 321.046C315.743 317.033 316.196 311.391 315.641 306.705C315.248 303.589 314.449 300.537 313.265 297.627C312.132 294.769 310.341 292.072 309.552 289.083C309.462 288.759 309.399 288.429 309.362 288.096" stroke="black" stroke-width="0.75" stroke-miterlimit="10"/>
<path d="M252.58 330.264C252.58 330.264 248.969 330.381 247.28 331.411" stroke="black" stroke-width="0.75" stroke-miterlimit="10"/>
<path d="M290.174 273.712C290.174 273.712 291.577 285.282 285.788 288.031L280.547 287.599C280.425 287.404 280.354 287.181 280.341 286.95C280.328 286.72 280.373 286.49 280.472 286.282C280.571 286.074 280.721 285.894 280.908 285.759C281.094 285.624 281.312 285.538 281.541 285.509C283.376 285.092 289.728 279.581 290.174 273.712Z" fill="black"/>
<path d="M282.981 288.03C282.981 288.03 284.574 291.685 296.307 295.339L295.802 290.113C295.802 290.113 297.155 288.125 294.099 288.461C291.044 288.797 282.981 288.03 282.981 288.03Z" fill="black"/>
<path fill-rule="evenodd" clip-rule="evenodd" d="M296.621 340.264C296.628 340.332 296.628 340.4 296.621 340.468C296.212 350.131 296.219 361.884 296.336 372.71C296.446 382.672 296.848 392.13 296.774 400.982L296.102 400.31C297.659 400.31 299.172 400.353 300.663 400.397C304.26 400.5 305.561 400.397 310.37 400.397C311.876 400.397 317.008 400.675 319.266 400.814C319.515 400.814 320.363 400.814 320.304 400.931C320.114 401.355 321.576 400.931 317.008 401.092C315.502 401.143 315.546 401.201 313.908 401.252C309.333 401.413 301.116 401.421 296.102 401.457H295.634V400.96C295.634 399.937 295.634 399.308 295.634 398.767C295.532 389.002 295.422 382.687 295.481 372.739C295.524 365.678 295.481 359.29 295.524 353.113C295.598 346.272 295.956 339.905 296.087 334.292C296.087 333.195 296.139 334.869 296.234 335.754C296.365 337.194 296.584 338.911 296.621 340.264Z" fill="black"/>
<path fill-rule="evenodd" clip-rule="evenodd" d="M294.523 401.507H294.472C291.809 401.137 289.114 401.039 286.431 401.215C283.507 401.346 280.795 401.88 278.266 401.573C277.46 401.527 276.653 401.527 275.847 401.573C275.108 401.479 274.376 401.34 273.654 401.156C273.595 401.156 273.383 401.156 273.398 401.039C273.449 400.615 273.084 401.039 274.224 400.879C274.597 400.827 274.589 400.769 274.955 400.718C276.234 400.535 278.661 400.55 279.94 400.498C282.367 400.389 283.946 400.286 286.409 400.345C288.171 400.345 289.757 400.345 291.292 400.345C292.995 400.418 294.582 400.783 295.978 400.915C296.248 400.915 295.832 400.966 295.62 401.054C295.271 401.244 294.904 401.396 294.523 401.507Z" fill="black"/>
<path d="M286.446 337.134H305.751V333.926H286.446V337.134Z" fill="black"/>
<path d="M248.677 330.871C248.965 331.627 249.461 332.287 250.107 332.775C250.754 333.262 251.525 333.557 252.331 333.627C252.331 333.627 251.827 330.191 250.263 330.535L248.677 330.871Z" fill="black"/>
<path d="M290.071 226.246C290.073 226.278 290.084 226.31 290.104 226.336C290.123 226.362 290.15 226.381 290.181 226.392C290.212 226.402 290.245 226.402 290.277 226.393C290.308 226.384 290.336 226.366 290.357 226.341C290.78 225.793 291.555 224.93 292.235 225.829C293.017 226.874 293.302 228.249 292.593 229.213C292.487 229.354 292.411 229.514 292.368 229.685C292.326 229.856 292.318 230.034 292.345 230.207C292.674 231.808 294.706 237.429 296.46 238.153C298.017 238.796 300.919 238.642 301.336 237.626C301.752 236.61 313.112 221.546 300.261 217.087C300.261 217.087 299.04 213.162 292.63 214.164C286.387 215.158 280.466 218.637 289.326 221.012C289.537 221.074 289.723 221.203 289.855 221.38C289.987 221.557 290.058 221.771 290.057 221.992L290.071 226.246Z" fill="black"/>
<path d="M297.659 243.064C297.659 243.064 307.052 242.472 311.694 245.556C317.183 249.211 317.183 259.627 317.183 259.627" stroke="black" stroke-width="0.75" stroke-miterlimit="10" stroke-linecap="round"/>
<path fill-rule="evenodd" clip-rule="evenodd" d="M225.768 278.528C225.667 277.479 225.638 276.424 225.68 275.371C225.914 273.719 225.914 280.187 225.797 275.97C225.911 277.81 225.93 279.654 225.856 281.496C225.739 283.206 225.783 279.391 225.768 278.528Z" fill="black"/>
<path fill-rule="evenodd" clip-rule="evenodd" d="M207.559 400.243C212.223 400.36 216.762 400.624 221.36 400.689L227.347 400.77H228.224V399.878L228.326 392.064C228.633 369.508 226.864 347.945 226.514 326.69C226.44 322.231 226.514 317.648 226.44 313.08C226.294 307.233 226.112 299.514 226.214 291.956C226.258 288.55 226.155 286.839 226.214 282.878C226.214 280.89 226.06 274.648 226.711 274.216C227.361 273.785 227.442 277.14 227.442 277.593C227.588 282.71 227.318 287.3 227.252 291.795C226.989 311.72 227.128 331.039 227.888 349.232C228.407 361.468 229.087 373.776 229.065 385.968C229.065 390.5 229.013 395.171 228.918 399.856V401.457H227.376C220.673 401.325 213.897 401.099 207.377 400.726L204.511 400.543L203.203 400.455L202.647 400.404H203.378H205.001C206.193 400.404 207.443 400.455 207.611 400.404C207.779 400.353 207.676 400.36 207.559 400.243Z" fill="black"/>
<path fill-rule="evenodd" clip-rule="evenodd" d="M207.559 400.243H205.783C202.443 400.14 206.083 399.921 207.559 400.243Z" fill="black"/>
<path d="M258.172 333.589C256.809 333.743 255.53 334.324 254.517 335.248C253.923 335.891 253.472 336.654 253.194 337.485L252.602 334.802L251.535 331.301C251.535 331.301 251.147 330.351 251.717 330.314C252.288 330.278 256.564 329.846 256.527 330.314C256.491 330.782 256.03 331.221 257.002 332.726C257.348 333.069 257.742 333.36 258.172 333.589Z" fill="black" stroke="black" stroke-width="0.75" stroke-miterlimit="10"/>
<path d="M230.914 329.16C230.914 329.16 210.703 374.967 206.39 387.73C206.39 387.73 200.462 387.189 200.637 389.345C200.783 391.084 210.045 397.575 213.605 400.016C213.779 400.134 213.976 400.215 214.183 400.254C214.39 400.293 214.603 400.289 214.809 400.242C215.014 400.196 215.208 400.108 215.378 399.983C215.548 399.859 215.691 399.701 215.797 399.519C219.321 393.438 232.983 369.931 235.621 366.628" fill="#FFB2AA"/>
<path d="M230.914 329.16C230.914 329.16 210.703 374.967 206.39 387.73C206.39 387.73 200.462 387.189 200.637 389.345C200.783 391.084 210.045 397.575 213.605 400.016C213.779 400.134 213.976 400.215 214.183 400.254C214.39 400.293 214.603 400.289 214.809 400.242C215.014 400.196 215.208 400.108 215.378 399.983C215.548 399.859 215.691 399.701 215.797 399.519C219.321 393.438 232.983 369.931 235.621 366.628" stroke="black" stroke-width="0.75" stroke-miterlimit="10"/>
<path d="M284.67 296.012C285.702 299.76 287.202 303.362 289.136 306.735C289.177 306.787 289.236 306.823 289.302 306.836C289.368 306.849 289.437 306.837 289.494 306.803C289.552 306.769 289.596 306.715 289.618 306.652C289.639 306.588 289.637 306.519 289.611 306.457C287.706 303.129 286.232 299.573 285.225 295.873C285.2 295.81 285.153 295.758 285.093 295.728C285.032 295.697 284.962 295.689 284.897 295.707C284.831 295.724 284.774 295.764 284.736 295.82C284.698 295.877 284.683 295.945 284.691 296.012H284.67Z" fill="black"/>
<path d="M288.229 303.622L288.639 302.211L288.829 301.539C288.874 301.431 288.897 301.316 288.897 301.199C288.897 301.082 288.874 300.967 288.829 300.859C288.631 300.515 288.098 300.428 287.761 300.318C287.425 300.208 286.855 300.048 286.402 299.931C286.334 299.919 286.263 299.932 286.205 299.969C286.146 300.006 286.103 300.064 286.085 300.131C286.067 300.198 286.074 300.269 286.106 300.331C286.137 300.392 286.191 300.44 286.256 300.464C286.636 300.559 286.987 300.662 287.396 300.779L287.981 300.969C288.047 300.969 288.31 301.042 288.346 301.122C288.383 301.203 288.295 301.305 288.28 301.356L288.2 301.648L288.025 302.255L287.674 303.476C287.654 303.545 287.664 303.62 287.699 303.683C287.735 303.746 287.794 303.793 287.864 303.812C287.934 303.831 288.008 303.822 288.071 303.787C288.134 303.751 288.181 303.692 288.2 303.622H288.229Z" fill="black"/>
<path d="M258.618 395.704C253.15 395.066 247.668 394.601 242.171 394.308C241.827 394.308 241.827 394.827 242.171 394.842C247.668 395.134 253.15 395.6 258.618 396.238C258.954 396.238 258.954 395.741 258.618 395.704Z" fill="black"/>
<path d="M218.882 393.73C216.726 392.888 214.649 391.856 212.676 390.646C210.79 389.542 208.751 388.453 207.201 386.918C206.96 386.677 206.58 387.057 206.821 387.298C208.407 388.899 210.476 389.98 212.406 391.113C214.422 392.342 216.542 393.389 218.743 394.242C219.065 394.366 219.204 393.847 218.882 393.73Z" fill="black"/>
<path d="M275.407 260.771C275.424 260.771 275.44 260.764 275.452 260.752C275.464 260.74 275.471 260.724 275.471 260.707C275.471 260.69 275.464 260.673 275.452 260.661C275.44 260.649 275.424 260.642 275.407 260.642C275.39 260.642 275.373 260.649 275.361 260.661C275.349 260.673 275.342 260.69 275.342 260.707C275.342 260.724 275.349 260.74 275.361 260.752C275.373 260.764 275.39 260.771 275.407 260.771Z" fill="black"/>
<path d="M267.587 246.47C267.587 246.47 271.307 245.739 271.878 247.442C272.448 249.145 271.753 251.228 271.878 251.791C272.002 252.354 274.07 258.041 275.335 259.663" stroke="black" stroke-width="0.75" stroke-miterlimit="10" stroke-linecap="round"/>
<path d="M269.356 248.583C269.356 248.583 269.392 248.583 269.356 248.583H269.319H269.275H269.202C269.085 248.524 268.968 248.466 268.851 248.393C268.737 248.333 268.627 248.265 268.522 248.188L268.362 248.078C268.362 248.078 268.274 248.005 268.31 248.078L268.23 248.013C268.177 247.964 268.108 247.937 268.036 247.937C267.965 247.937 267.895 247.964 267.843 248.013C267.792 248.064 267.764 248.134 267.764 248.206C267.764 248.279 267.792 248.348 267.843 248.4C268.092 248.606 268.358 248.789 268.639 248.948C268.77 249.021 268.904 249.087 269.041 249.145C269.134 249.191 269.235 249.214 269.337 249.214C269.44 249.214 269.541 249.191 269.634 249.145C269.686 249.104 269.722 249.045 269.735 248.979C269.747 248.913 269.736 248.845 269.702 248.787C269.668 248.729 269.614 248.685 269.551 248.664C269.487 248.642 269.418 248.645 269.356 248.67V248.583Z" fill="black"/>
<path d="M269.261 246.324V245.593C269.261 245.228 269.116 244.879 268.858 244.621C268.6 244.363 268.251 244.219 267.886 244.219H256.776C256.619 244.219 256.468 244.281 256.357 244.392C256.246 244.503 256.184 244.654 256.184 244.811V256.126C256.184 256.276 256.213 256.426 256.271 256.565C256.329 256.704 256.413 256.83 256.52 256.937C256.626 257.044 256.753 257.128 256.892 257.186C257.031 257.243 257.181 257.273 257.331 257.273H265.898C266.203 257.273 266.495 257.152 266.71 256.937C266.925 256.722 267.046 256.43 267.046 256.126V250.147H267.857C268.222 250.147 268.571 250.002 268.829 249.744C269.087 249.486 269.231 249.137 269.231 248.772V248.772" stroke="black" stroke-width="0.75" stroke-miterlimit="10"/>
<path d="M265.05 257.324L267.031 266.512C267.227 267.655 267.576 268.766 268.069 269.816" stroke="black" stroke-width="0.75" stroke-miterlimit="10" stroke-linecap="round"/>
<path d="M268.208 246.265C268.265 246.171 268.286 246.059 268.267 245.95C268.248 245.842 268.191 245.743 268.106 245.673C268 245.601 267.881 245.551 267.755 245.526C267.63 245.5 267.5 245.501 267.375 245.527C267.119 245.527 266.9 245.659 266.856 245.936C266.837 246.192 266.837 246.448 266.856 246.704C266.856 247.23 266.856 247.756 266.856 248.283C266.856 248.524 266.805 248.787 266.995 248.97C267.069 249.035 267.156 249.083 267.251 249.111C267.346 249.138 267.445 249.145 267.543 249.131C267.76 249.111 267.964 249.015 268.118 248.86C268.271 248.705 268.365 248.5 268.383 248.283C268.396 248.214 268.382 248.144 268.345 248.085C268.308 248.027 268.25 247.984 268.183 247.966C268.117 247.948 268.045 247.955 267.984 247.986C267.922 248.018 267.874 248.072 267.85 248.137C267.85 248.341 267.777 248.509 267.565 248.568C267.565 248.568 267.36 248.612 267.367 248.568L267.404 248.612V248.107V247.004C267.404 246.828 267.404 246.645 267.404 246.47V246.17C267.408 246.131 267.408 246.092 267.404 246.053C267.404 245.988 267.404 246.053 267.404 246.01L267.302 246.105C267.395 246.079 267.493 246.079 267.587 246.105C267.62 246.111 267.655 246.111 267.689 246.105C267.68 246.089 267.675 246.071 267.675 246.053C267.675 246.035 267.68 246.018 267.689 246.002C267.499 246.309 267.981 246.58 268.164 246.28L268.208 246.265Z" fill="black"/>
<path d="M259.773 242.559C259.773 242.559 256.184 236.214 260.211 233.627C263.588 231.434 264.129 228.774 260.372 226.274" stroke="black" stroke-width="0.75" stroke-miterlimit="10"/>
<path d="M267.521 230.2C267.382 228.841 266.534 227.357 264.524 225.705" stroke="black" stroke-width="0.75" stroke-miterlimit="10"/>
<path d="M265.664 242.559C265.664 242.559 261.103 241.872 264.889 237.837" stroke="black" stroke-width="0.75" stroke-miterlimit="10"/>
<path d="M235.636 366.598L230.914 329.16" stroke="black" stroke-width="0.75" stroke-miterlimit="10"/>
<path d="M296.102 324.49V262.806C296.104 261.973 296.436 261.175 297.025 260.586C297.614 259.997 298.412 259.665 299.245 259.663H326.949C327.783 259.663 328.582 259.995 329.172 260.584C329.761 261.173 330.092 261.973 330.092 262.806V329.526C330.092 330.689 329.63 331.804 328.808 332.627C327.985 333.449 326.87 333.911 325.706 333.911H259.67C258.837 333.911 258.037 333.58 257.448 332.991C256.858 332.401 256.527 331.602 256.527 330.768C256.526 330.355 256.607 329.946 256.765 329.565C256.922 329.183 257.154 328.836 257.446 328.544C257.738 328.252 258.085 328.02 258.466 327.863C258.848 327.705 259.257 327.625 259.67 327.625H292.959C293.791 327.624 294.588 327.293 295.177 326.705C295.766 326.118 296.098 325.321 296.102 324.49Z" fill="#FBEA68"/>
<path d="M263.968 333.926C262.433 333.926 262.251 331.608 263.778 331.448H264.1H297.388C297.801 331.449 298.211 331.368 298.592 331.21C298.974 331.053 299.321 330.821 299.613 330.529C299.905 330.237 300.137 329.89 300.294 329.509C300.452 329.127 300.533 328.718 300.532 328.305V265.086C300.532 264.877 300.573 264.669 300.654 264.475C300.734 264.281 300.852 264.105 301.001 263.957C301.15 263.809 301.326 263.692 301.52 263.612C301.715 263.533 301.923 263.492 302.132 263.493H327.658C327.978 263.493 328.294 263.556 328.589 263.678C328.885 263.801 329.153 263.98 329.379 264.206C329.605 264.432 329.784 264.7 329.907 264.996C330.029 265.291 330.092 265.607 330.092 265.927V329.554C330.092 330.718 329.63 331.833 328.808 332.656C327.985 333.478 326.869 333.94 325.706 333.94H263.968V333.926Z" fill="#FFF7BC"/>
<path d="M296.102 324.49V262.806C296.104 261.973 296.436 261.175 297.025 260.586C297.614 259.997 298.412 259.665 299.245 259.663H326.949C327.783 259.663 328.582 259.995 329.172 260.584C329.761 261.173 330.092 261.973 330.092 262.806V329.526C330.092 330.689 329.63 331.804 328.808 332.627C327.985 333.449 326.87 333.911 325.706 333.911H259.67C258.837 333.911 258.037 333.58 257.448 332.991C256.858 332.401 256.527 331.602 256.527 330.768V330.768C256.526 330.355 256.607 329.946 256.765 329.565C256.922 329.183 257.154 328.836 257.446 328.544C257.738 328.252 258.085 328.02 258.466 327.863C258.848 327.705 259.257 327.625 259.67 327.625H292.959C293.791 327.624 294.588 327.293 295.177 326.705C295.766 326.118 296.098 325.321 296.102 324.49V324.49Z" stroke="black" stroke-miterlimit="10"/>
<path d="M205.4 169.427H69.7624C67.5137 169.427 65.6739 167.587 65.6739 165.339L64.3451 72.1197C64.3451 70.5865 65.5717 69.4622 67.0027 69.4622H206.729C208.262 69.4622 209.386 70.6888 209.386 72.1197V165.339C209.488 167.587 207.649 169.427 205.4 169.427Z" fill="white"/>
<path d="M206.933 69.4622H67.105C65.5718 69.4622 64.4474 70.6888 64.4474 72.1197V78.2526H209.591V72.1197C209.591 70.6888 208.364 69.4622 206.933 69.4622Z" fill="black"/>
<path d="M69.048 74.6755C69.3872 74.6755 69.6622 74.4005 69.6622 74.0613C69.6622 73.7221 69.3872 73.4471 69.048 73.4471C68.7088 73.4471 68.4338 73.7221 68.4338 74.0613C68.4338 74.4005 68.7088 74.6755 69.048 74.6755Z" fill="white"/>
<path d="M73.1365 74.6755C73.4757 74.6755 73.7507 74.4005 73.7507 74.0613C73.7507 73.7221 73.4757 73.4471 73.1365 73.4471C72.7973 73.4471 72.5223 73.7221 72.5223 74.0613C72.5223 74.4005 72.7973 74.6755 73.1365 74.6755Z" fill="white"/>
<path d="M77.1228 74.6755C77.462 74.6755 77.737 74.4005 77.737 74.0613C77.737 73.7221 77.462 73.4471 77.1228 73.4471C76.7836 73.4471 76.5086 73.7221 76.5086 74.0613C76.5086 74.4005 76.7836 74.6755 77.1228 74.6755Z" fill="white"/>
<path d="M209.591 78.2532H64.4474V79.8886H209.591V78.2532Z" fill="#CCCCCC"/>
<path fill-rule="evenodd" clip-rule="evenodd" d="M200.187 170.143C187.308 169.53 205.911 170.143 205.502 169.734C205.502 169.734 205.298 169.734 204.889 169.632C204.48 169.632 203.969 169.632 203.253 169.53C201.924 169.53 200.085 169.428 198.245 169.325C194.463 169.223 190.477 169.121 189.557 169.121C159.506 168.814 127.513 169.223 98.791 168.916C92.5559 168.814 86.0143 168.814 79.3704 168.712C77.735 168.712 75.9973 168.712 74.3619 168.712C73.5442 168.712 72.6243 168.712 71.8066 168.712H70.58H69.9667C69.7623 168.712 69.6601 168.712 69.4556 168.61C68.7402 168.508 68.1269 168.099 67.6158 167.69C67.1047 167.179 66.7981 166.566 66.6959 165.85C66.6959 165.646 66.6959 165.543 66.6959 165.339V164.726V163.397C66.6959 162.579 66.6959 161.659 66.6959 160.842C66.287 147.043 66.1848 132.733 65.9804 118.73C65.8782 110.348 65.776 101.864 65.5715 93.2784C65.4693 88.9854 65.4693 84.6925 65.3671 80.2973C65.3671 78.1508 65.2649 75.9021 65.2649 73.7556V72.1202C65.2649 71.7114 65.3671 71.4047 65.5715 71.0981C65.776 70.7914 66.0826 70.587 66.3892 70.3826C66.5937 70.2804 66.7981 70.2804 66.9003 70.2804C67.0025 70.2804 67.1047 70.2804 67.3092 70.2804H67.718C85.1965 70.2804 102.982 70.2804 120.665 70.2804C138.348 70.2804 155.826 70.1781 172.998 70.1781C181.584 70.1781 189.965 70.076 198.347 70.076C200.391 70.076 202.538 70.076 204.582 70.076H206.115H206.933C207.137 70.076 207.342 70.0759 207.546 70.1781C208.262 70.3826 208.977 70.9959 209.079 71.8136C209.182 72.1202 209.079 72.7335 209.079 73.2445V74.7778C209.079 75.7999 209.079 76.822 209.079 77.8442C209.079 79.8884 209.079 81.8305 209.079 83.8748C209.182 102.682 208.875 132.017 209.284 154.198C209.386 157.98 209.488 157.775 209.591 160.433C209.693 162.477 209.693 163.806 209.693 164.93C209.795 166.054 209.693 167.179 208.773 168.303C207.955 169.428 206.933 169.734 206.32 169.939C205.706 170.143 205.502 170.143 205.502 170.143C205.604 170.143 206.013 170.245 206.626 170.041C207.24 169.939 208.16 169.53 208.977 168.61C209.386 168.201 209.693 167.588 209.897 166.974C209.999 166.668 210.102 166.361 210.102 165.952C210.102 165.748 210.102 165.646 210.102 165.441C210.102 165.237 210.102 165.135 210.102 164.93C210.102 163.601 210.102 162.17 210.102 160.739C210.102 157.775 210.102 154.504 209.999 151.438C209.999 127.009 209.999 110.859 209.897 87.35C209.897 83.4659 209.897 79.5818 209.897 75.6977C209.897 74.6756 209.897 73.7556 209.897 72.7335C209.897 72.3246 209.897 71.6092 209.693 71.0981C209.488 70.587 209.182 70.0759 208.671 69.7693C208.262 69.4627 207.648 69.156 207.137 69.156C206.831 69.156 206.626 69.156 206.32 69.156H205.604C204.582 69.156 203.662 69.156 202.64 69.156C194.77 69.156 186.695 69.156 178.62 69.2582C162.47 69.2582 145.911 69.3604 129.046 69.3604C112.59 69.3604 96.0312 69.3604 79.4726 69.3604C75.384 69.3604 71.1933 69.3604 67.1047 69.3604C65.9804 69.2582 64.856 69.8715 64.345 70.8936C64.0383 71.4047 63.9361 72.018 64.0383 72.5291V74.0623L64.1405 80.2973C64.2428 88.5766 64.345 96.7537 64.4472 104.931C64.6516 121.285 64.856 137.639 65.0605 153.789C65.0605 157.877 65.1627 161.864 65.1627 165.952C65.2649 167.077 65.776 168.099 66.5937 168.814C67.4114 169.53 68.5357 170.041 69.6601 170.041C71.7044 170.041 73.6464 170.041 75.6907 170.041C83.6633 170.041 91.636 170.143 99.5065 170.143C115.247 170.245 130.784 170.245 146.729 170.245C163.288 170.245 184.548 170.654 197.427 170.347C201.209 170.143 205.502 170.347 200.187 170.143ZM194.872 169.734C195.383 169.836 191.908 169.939 191.294 169.836C190.783 169.734 194.258 169.632 194.872 169.734Z" fill="black"/>
<path d="M119.336 112.187L119.438 115.049C119.438 121.182 114.43 126.19 108.297 126.19" stroke="black" stroke-width="0.75" stroke-miterlimit="10"/>
<path d="M109.115 127.724C109.962 127.724 110.648 127.037 110.648 126.191C110.648 125.344 109.962 124.657 109.115 124.657C108.268 124.657 107.582 125.344 107.582 126.191C107.582 127.037 108.268 127.724 109.115 127.724Z" fill="black"/>
<path d="M119.336 114.538C120.183 114.538 120.869 113.851 120.869 113.005C120.869 112.158 120.183 111.471 119.336 111.471C118.489 111.471 117.803 112.158 117.803 113.005C117.803 113.851 118.489 114.538 119.336 114.538Z" fill="black"/>
<path d="M128.024 87.4495H73.6467C72.9312 87.4495 72.4202 87.9605 72.4202 88.676V110.959C72.4202 111.674 72.9312 112.185 73.6467 112.185H128.024C128.74 112.185 129.251 111.674 129.251 110.959V88.676C129.251 87.9605 128.74 87.4495 128.024 87.4495Z" fill="#FDEAE8"/>
<path d="M128.024 86.9403C127.922 87.0427 127.922 87.1451 128.229 87.1451C128.332 87.0427 128.434 87.0427 128.536 86.9403C128.332 86.838 128.229 86.838 128.024 86.9403Z" fill="#FDEDEB"/>
<path d="M129.251 88.2691C129.354 88.3715 129.456 88.5761 129.558 88.6784C129.661 88.7807 129.763 88.7807 129.865 88.6784C129.661 88.3714 129.661 88.1669 129.251 87.9622C129.149 87.7576 129.047 87.553 129.149 87.4507C129.047 87.4507 128.842 87.1438 128.637 87.2461C128.842 87.553 129.149 87.7576 129.456 88.1668C129.354 88.3714 129.354 88.2691 129.251 88.2691Z" fill="#FDEDEB"/>
<path d="M115.656 111.775C115.757 111.775 115.858 111.775 115.858 111.674C115.757 111.674 115.656 111.674 115.656 111.775Z" fill="#FDEDEB"/>
<path d="M128.943 111.061C128.943 111.163 128.842 111.264 128.842 111.264C128.842 111.366 128.842 111.264 128.943 111.061Z" fill="#FDEDEB"/>
<path d="M129.965 91.4325C129.965 91.3318 129.965 91.3318 129.864 91.2312L129.965 91.4325C129.864 91.4325 129.965 91.4325 129.965 91.4325Z" fill="#FDEDEB"/>
<path d="M128.738 104.925V104.824L128.637 104.724L128.738 104.925Z" fill="#FDEDEB"/>
<path d="M128.637 100.125C128.637 100.228 128.842 100.228 128.945 100.33C128.842 100.228 128.842 100.228 128.842 100.125C128.74 100.023 128.74 100.023 128.637 100.125Z" fill="#FDEDEB"/>
<path d="M128.023 87.4495C127.922 87.5501 127.922 87.5501 127.922 87.5501L128.023 87.4495Z" fill="#FDEDEB"/>
<path d="M73.3408 107.484C73.136 107.996 73.136 106.767 72.8289 107.382C72.9313 107.382 73.2384 107.996 73.3408 107.484Z" fill="#FDEDEB"/>
<path d="M98.689 111.266L98.7896 111.366C98.7896 111.366 98.689 111.366 98.689 111.266Z" fill="#FDEDEB"/>
<path d="M90.6139 111.572C90.6139 111.673 90.6139 111.673 90.6139 111.572C90.7145 111.572 90.8152 111.572 90.8152 111.572H90.6139Z" fill="#FDEDEB"/>
<path d="M110.035 86.5297C110.137 86.632 110.137 86.632 110.239 86.7344C110.137 86.5297 110.751 86.5297 110.035 86.5297Z" fill="#FDEDEB"/>
<path d="M129.762 91.4355C129.863 91.4355 129.863 91.5361 129.863 91.5361C129.863 91.5361 129.863 91.4355 129.762 91.4355C129.863 91.4355 129.863 91.4355 129.762 91.4355Z" fill="#FDEDEB"/>
<path d="M91.9437 113.31C91.8414 113.208 91.739 113.208 91.5343 113.208C91.5343 113.208 91.4319 113.208 91.4319 113.31H91.9437Z" fill="#FDEDEB"/>
<path d="M114.532 86.2232C113.919 86.2232 114.225 86.5299 114.123 86.6321C113.408 86.7343 113.817 86.4277 113.51 86.3254C112.999 86.4277 112.692 86.6321 112.386 86.6321C112.386 86.6321 112.283 86.5299 112.386 86.5299C111.874 86.7343 110.955 86.5299 110.341 86.8365C110.341 86.8365 110.239 86.8365 110.239 86.7343C110.341 86.8365 110.341 87.0409 110.341 87.1431C110.035 87.1431 109.83 87.3476 109.728 87.1431C109.932 87.1431 109.932 87.0409 110.035 87.0409L109.728 87.1431C109.421 86.8365 110.137 87.0409 110.137 86.8365C109.524 86.9387 108.91 87.1431 108.501 87.0409C108.399 86.7343 109.524 86.9387 108.91 86.7343L109.626 86.8365C109.115 86.4277 110.035 86.8365 109.524 86.4277C108.604 86.3254 108.501 86.5299 107.684 86.5299C107.479 86.6321 107.786 86.7343 107.582 86.9387C106.355 87.2454 106.559 86.3254 105.639 86.6321C105.435 86.8365 105.333 87.1432 104.617 86.9387L104.822 86.6321C104.004 86.6321 104.311 87.0409 103.391 86.8365C103.595 86.7343 104.106 86.7343 103.902 86.7343C103.289 86.5299 103.493 86.9387 103.084 86.9387L102.982 86.6321C102.062 86.6321 101.04 86.8365 100.018 86.9387C100.12 86.8365 100.222 86.7343 100.018 86.7343C98.7911 86.8365 97.2579 86.7343 96.0314 86.5299L95.5203 86.7343C95.4181 86.7343 95.3159 86.6321 95.4181 86.6321C94.907 86.5299 95.4181 86.7343 95.2137 86.8365C94.907 86.8365 94.8048 86.7343 95.0092 86.6321C94.1915 86.8365 92.5561 87.0409 91.7384 86.8365L91.9428 86.7343C91.2273 86.6321 91.1251 87.2454 90.5118 86.9387H90.614C89.0808 86.8365 87.4454 87.0409 86.3211 86.7343C86.1166 87.0409 84.7879 86.6321 84.6857 87.0409C83.8679 86.8365 84.0724 86.7343 82.8458 86.6321C82.5392 86.6321 82.3347 86.9387 81.9259 86.9387V86.7343L81.4148 86.9387L81.1082 86.6321L80.6993 86.7343C80.9037 86.7343 81.006 86.8365 81.006 86.9387C80.3927 87.0409 79.575 86.7343 79.575 86.6321L78.144 86.8365C78.144 86.7343 78.4506 86.7343 78.5528 86.6321C77.8373 86.8365 78.4506 86.4276 77.7351 86.6321C77.8373 86.7343 77.7351 86.7343 77.6329 86.8365C77.3263 86.7343 76.5086 86.7343 75.9975 86.7343L76.0997 86.5299C75.5886 86.5299 75.0776 86.5299 74.4643 86.5299C74.1577 86.5299 73.9532 86.5299 73.6466 86.5299C73.1355 86.5299 72.6245 86.7343 72.2156 87.0409C72.5222 86.8365 72.7267 86.8365 72.7267 86.9387C72.7267 87.0409 72.6244 87.1432 72.42 87.3476C72.3178 87.3476 72.2156 87.3476 72.1134 87.3476C72.0112 87.6542 72.5222 87.0409 72.2156 87.6542C72.0112 87.8586 71.909 87.9609 71.8067 87.9609C71.7045 87.8587 71.7045 87.7564 71.8067 87.552C71.6023 87.8586 71.5001 88.0631 71.5001 88.3697C71.3979 88.3697 71.3979 88.1653 71.3979 88.0631C71.3979 88.1653 71.3979 88.2675 71.2957 88.4719C71.2957 88.5741 71.2957 88.6763 71.1935 88.7786C71.1935 88.8808 71.1935 88.8808 71.1935 88.983C71.1935 89.1874 71.0912 89.494 71.2957 89.5963H71.1935C71.1935 90.7206 71.2957 91.2317 71.2957 92.2538C71.5001 92.2538 71.5001 92.6627 71.6023 92.9693C71.5001 93.6848 71.3979 94.4003 71.3979 95.218C71.5001 95.8313 71.6023 95.4225 71.7045 95.6269C71.5001 95.6269 71.5001 96.5468 71.3979 96.0357C71.3979 97.0579 71.3979 97.2623 71.6023 98.5911C71.7045 98.4889 71.7045 98.2844 71.8067 98.3866C71.8067 98.5911 71.7045 98.8977 71.6023 98.8977V98.7955C71.909 100.226 70.989 102.066 71.3979 103.191V103.088L71.6023 104.315C71.6023 104.826 71.5001 104.008 71.2957 104.417C71.6023 105.644 71.2957 106.462 71.5001 107.484C71.1935 107.892 71.1935 108.608 71.2957 109.324C71.2957 109.732 71.2957 110.039 71.2957 110.448C71.2957 110.652 71.2957 110.754 71.2957 110.959V111.061V111.266C71.2957 111.368 71.2957 111.572 71.2957 111.674L71.3979 111.572C71.7045 111.981 71.5001 112.185 71.7045 112.492C71.7045 112.39 71.5001 111.981 71.7045 112.185C72.0112 112.594 72.42 112.901 72.9311 113.105C73.0333 113.105 73.1355 113.208 73.3399 113.208H73.5444H73.6466H74.1577C74.7709 113.208 75.3842 113.208 75.9975 113.31C77.2241 113.412 78.4506 113.514 79.6772 113.616C80.5971 113.616 80.1883 112.901 81.3126 113.208L81.006 113.412C82.8458 113.105 84.6857 113.412 86.4233 113.208C86.3211 113.31 86.3211 113.31 86.1166 113.31C86.5255 113.514 87.5476 113.31 87.5476 113.208C87.8543 113.208 87.6498 113.31 87.7521 113.412C88.1609 113.514 88.672 113.208 88.8764 113.31C88.8764 113.31 88.7742 113.412 88.672 113.412C88.8764 113.31 89.7963 113.412 89.5919 113.208C90.2052 113.31 90.8185 113.105 91.4317 113.208C91.7384 113.003 92.5561 113.31 92.6583 113.003C92.6583 113.31 93.7827 113.31 94.1915 113.105C94.0893 113.208 94.6004 113.208 94.3959 113.31C94.907 113.31 95.3159 113.208 95.2137 113.105C96.1336 113.514 96.9513 112.799 97.4624 113.31C98.8933 113.105 100.222 113.003 101.449 112.901C101.449 113.208 100.018 112.901 100.12 113.31C101.346 113.208 102.062 112.901 103.289 113.003C103.595 113.003 103.084 113.208 102.982 113.208C104.208 113.105 105.333 113.208 106.355 113.003C106.355 113.003 106.253 113.105 106.151 113.105C106.355 113.105 106.662 113.208 106.662 113.003H106.457C106.151 112.799 107.275 112.492 107.377 112.39C106.968 112.799 108.399 112.492 107.888 113.105C107.99 113.105 108.195 113.003 108.195 112.901C108.399 112.901 108.501 113.003 108.297 113.105C109.012 113.003 108.808 112.901 109.524 112.901C109.524 113.003 109.421 113.003 109.319 113.105C109.626 113.003 110.035 112.799 110.648 112.901C110.648 112.901 110.648 113.003 110.546 113.003C111.568 113.003 112.283 112.594 113.305 112.799C112.999 113.105 113.714 112.901 113.714 113.208L114.328 113.105L114.123 113.003C114.634 113.003 115.145 112.799 115.554 112.901L115.145 113.003L116.065 112.901L115.554 112.799C116.065 112.697 115.452 112.39 116.167 112.492C116.065 112.492 116.679 112.492 116.985 112.697C117.19 112.594 117.496 112.492 117.905 112.594C118.007 112.697 117.803 112.901 117.905 113.003C118.11 112.799 119.132 112.901 119.438 112.697C119.336 112.799 119.336 112.901 119.336 112.901L119.54 112.697C119.745 112.799 119.847 112.799 119.745 112.901C120.46 112.901 119.54 112.492 120.358 112.697C120.256 112.697 120.358 112.697 120.154 112.799C120.971 112.901 121.789 112.697 122.607 112.799C122.811 113.105 121.891 112.901 122.198 113.105C123.322 113.003 124.549 112.799 125.673 112.799H125.469C125.673 112.39 126.287 113.003 126.798 112.799C126.695 112.799 126.593 113.003 126.695 113.003C127.104 113.003 127.411 113.003 127.922 113.003C128.024 113.003 128.126 113.003 128.331 112.901C128.535 112.901 128.638 112.799 128.74 112.697C129.046 112.492 129.251 112.288 129.455 111.879C129.455 111.981 129.455 111.981 129.455 112.083C129.66 111.879 129.864 111.47 129.864 111.061C129.864 110.754 129.864 110.448 129.864 110.243C129.762 110.141 129.762 109.835 129.66 110.039C130.273 108.506 129.353 107.177 129.864 105.848C129.864 106.053 129.966 106.257 129.966 106.053L129.864 104.928C129.66 105.031 129.762 105.031 129.66 105.337C129.557 105.235 129.455 104.826 129.455 104.622C129.557 105.133 129.762 104.622 129.864 104.417C129.762 104.417 129.762 104.417 129.66 104.417C129.966 103.804 129.353 104.315 129.557 103.497H129.66C129.66 103.191 129.455 102.884 129.557 102.577C129.762 102.475 129.66 102.884 129.864 102.884C129.864 102.475 129.455 101.964 129.66 101.555C129.762 101.76 129.762 102.066 129.762 102.169C129.966 101.76 129.966 101.657 129.966 101.351L130.068 100.533L129.966 100.738C129.455 100.124 129.864 99.6132 129.557 98.7955C129.864 99.511 129.762 98.8977 129.966 98.9999C130.068 98.7955 130.069 98.4889 130.171 98.5911C129.966 98.1822 130.273 97.9778 130.068 97.4667C130.171 97.4667 130.068 97.0579 130.273 97.1601C130.171 96.649 130.171 97.2623 130.068 97.2623C129.864 96.5468 130.375 95.5247 130.068 94.5025C129.966 93.5826 129.66 93.4804 129.557 92.6627C129.66 92.356 129.864 92.8671 129.864 92.8671C129.966 92.4583 129.966 92.0494 129.864 91.6405C129.966 91.7427 129.966 91.6406 130.068 91.5383C130.068 91.2317 129.762 91.3339 129.864 90.8228C129.966 90.925 130.069 91.0272 130.171 91.1295C130.069 90.7206 129.966 90.3118 129.864 89.9029C129.966 89.8007 130.069 90.1073 130.171 90.3118C130.069 89.8007 130.068 89.0852 129.864 88.983L129.762 89.2896C129.762 89.0852 129.966 89.1874 129.966 89.2896C130.171 89.6985 129.864 89.9029 129.864 89.9029V89.5963C129.455 89.9029 129.966 90.8228 129.864 91.4361L129.557 91.2317L129.864 91.845C129.762 91.9472 129.557 92.0494 129.557 91.7428C129.353 92.1516 129.66 92.1516 129.455 92.4583C129.455 92.4583 129.455 92.4583 129.353 92.4583L129.455 92.8671C129.353 92.7649 129.251 92.9693 129.251 92.6627C129.046 93.3782 129.455 93.8892 129.251 94.1959V94.0937C129.353 95.1158 129.455 94.1959 129.762 95.0136L129.149 95.5247L129.353 95.6269C129.353 95.7291 129.353 95.9335 129.251 95.9335C129.455 96.3424 129.353 95.8313 129.455 96.138C129.251 96.649 129.557 97.5689 129.149 97.6712C129.353 97.8756 129.251 97.1601 129.455 97.7733C129.046 97.9778 129.557 98.3866 129.353 98.8977C129.149 98.7955 129.251 98.2844 129.046 98.7955C129.353 99.1021 128.944 99.7154 129.046 100.124C129.353 100.124 129.149 100.942 129.251 101.657C129.149 101.657 129.046 102.884 129.046 103.497C129.353 103.6 129.251 104.213 129.353 104.724C129.149 104.724 129.149 104.622 129.046 104.417V104.826C129.149 104.928 129.149 105.031 129.251 105.337L129.046 105.235C129.046 105.848 129.251 106.462 129.149 107.177C129.353 107.177 129.66 106.564 129.864 107.381C129.762 107.381 129.557 107.484 129.557 107.279C129.557 107.381 129.66 107.484 129.557 107.688L129.353 107.381C129.251 107.688 129.455 107.586 129.455 107.79C129.251 107.79 129.353 107.995 129.251 107.995C129.251 107.892 129.353 107.79 129.251 107.688C129.251 107.995 129.149 108.404 129.046 108.506C129.149 108.506 129.251 108.506 129.251 108.71C129.251 109.323 129.046 108.915 128.944 109.221C129.046 109.323 128.944 109.732 129.149 109.732C129.149 109.937 129.046 109.937 128.944 110.039C129.046 110.346 128.944 111.47 129.251 111.163V111.061C129.353 111.47 129.046 111.879 128.638 111.981C128.433 112.083 128.229 111.981 128.024 111.981C127.82 111.981 127.513 111.981 127.309 111.981V111.879C126.695 111.981 125.98 111.981 125.571 112.083C125.367 112.083 125.162 111.981 125.264 111.879C124.856 111.981 124.753 111.981 124.14 111.879C124.549 111.777 123.936 111.777 124.651 111.777C124.038 111.674 123.936 111.572 123.322 111.777C123.527 111.572 122.914 111.572 122.607 111.572L123.016 111.674C122.709 111.674 122.402 111.674 122.198 111.674L122.402 111.47C121.176 111.163 120.256 111.981 119.336 111.47C119.029 111.674 119.949 111.572 119.745 111.777C119.234 111.777 118.621 111.368 118.416 111.368C117.701 111.266 117.701 111.777 116.883 111.674C116.985 111.777 117.087 111.981 116.474 112.083C115.963 112.083 115.759 111.674 116.167 111.674C116.27 111.674 116.372 111.674 116.372 111.777C116.576 111.777 116.781 111.674 116.576 111.572L116.474 111.674C116.167 111.572 115.452 111.572 115.656 111.47C115.248 111.572 115.452 111.572 115.759 111.674C115.043 111.572 114.634 111.674 113.919 111.572C114.021 111.674 114.123 111.777 114.021 111.777C112.999 111.674 113.51 111.981 112.794 111.981C112.386 111.879 112.897 111.674 112.181 111.777C111.772 111.674 112.079 111.572 112.283 111.47C111.67 111.674 111.057 111.368 110.648 111.368L110.955 111.266C110.75 111.266 110.546 111.266 110.443 111.266L110.648 111.47C110.443 111.47 110.239 111.47 110.239 111.368C110.035 111.47 110.443 111.674 109.932 111.879C109.626 111.777 109.115 111.981 109.012 111.777C109.83 111.879 108.91 111.572 109.626 111.47C109.524 111.47 109.319 111.47 109.115 111.47C109.115 111.47 109.115 111.368 109.217 111.368C108.399 111.163 108.808 111.674 107.99 111.674C108.093 111.572 107.786 111.368 107.684 111.47C107.99 111.47 107.888 111.674 107.479 111.777C106.968 111.674 106.866 111.879 106.559 111.879H106.866C106.764 111.981 106.457 111.981 106.048 112.083C106.048 111.981 106.355 111.981 106.253 111.981C105.844 112.185 105.333 111.777 104.72 111.879C104.413 111.777 104.72 111.674 104.413 111.572C103.8 111.777 103.697 111.368 102.982 111.572C103.186 111.777 103.186 111.674 102.777 111.879L103.902 111.777L103.186 112.083C103.493 112.083 103.902 111.981 104.106 111.981C103.8 112.083 103.8 112.083 104.004 112.185C103.493 111.879 103.084 112.39 102.471 112.185V111.777C101.653 111.572 101.04 111.981 99.9155 111.879L100.222 111.981C100.12 112.185 99.6088 111.981 99.2 112.083C99.2 111.879 98.9956 111.879 98.8933 111.777C98.8933 111.879 98.0756 111.777 97.9734 112.083L97.4624 111.879C96.6446 111.777 96.4402 112.288 95.6225 112.288C95.8269 112.083 95.5203 111.981 96.0314 111.879C95.7247 111.879 95.5203 111.879 95.5203 111.981C95.3159 111.879 94.7026 112.185 94.4982 112.083C94.3959 112.185 94.2937 112.288 93.9871 112.288V112.185C93.9871 112.288 93.476 112.288 93.7827 112.492C92.965 111.981 91.4318 112.492 90.614 112.083C90.0008 112.185 89.2853 112.185 88.7742 112.185C88.7742 112.185 88.7742 112.083 88.8764 112.083C88.1609 111.981 88.3653 112.492 87.5476 112.39C87.1388 112.185 87.9565 112.288 87.7521 112.185C87.6498 111.674 86.7299 112.288 86.1166 111.981H86.2189C85.81 111.777 85.0945 112.185 84.379 112.185C84.379 112.185 84.379 112.185 84.379 112.083C83.8679 112.288 82.948 112.39 82.2325 112.492C82.437 112.288 82.5392 112.39 82.437 112.185C82.1303 112.185 82.5392 112.492 81.9259 112.594C81.7215 112.492 81.3126 112.39 81.2104 112.185H81.8237C81.517 111.879 81.1082 112.185 80.8015 112.185V112.083C79.8816 112.083 79.8816 112.39 78.9617 112.39L79.0639 112.492C78.5528 112.799 78.655 112.288 78.144 112.594L77.9396 112.288C77.6329 112.39 76.713 112.594 76.0997 112.594C76.4064 112.39 77.2241 112.288 77.6329 112.083C77.3263 112.083 76.4064 112.083 76.3041 112.288C76.4064 112.288 76.6108 112.185 76.713 112.185C76.3041 112.39 75.6909 112.492 75.0776 112.492C75.282 111.879 73.0333 112.39 73.4422 111.777C73.3399 111.777 73.2377 111.674 73.2377 111.572C73.2377 111.572 73.2377 111.368 73.2377 111.163C73.2377 110.959 73.2377 110.857 73.2377 110.652C73.2377 110.039 73.3399 109.323 73.3399 108.71C72.8289 109.221 73.3399 108.301 72.8289 108.404C72.8289 108.097 72.8289 107.995 72.8289 107.893L73.1355 106.87C73.2377 106.666 73.2377 107.177 73.3399 107.177C73.3399 106.462 73.5444 106.87 73.6466 106.359C73.4422 106.462 73.4422 106.155 73.4422 105.746L73.2377 106.359C73.0333 105.337 73.6466 105.439 73.3399 104.519L73.4422 104.826C73.3399 104.315 73.4422 102.884 73.0333 102.373C73.1355 102.271 73.2377 102.169 73.2377 102.373C73.3399 101.146 72.8289 99.6132 73.0333 98.5911L73.1355 98.6933C73.1355 98.4889 72.9311 98.2844 73.0333 97.9778C73.0333 97.9778 73.1355 98.08 73.1355 97.9778C73.1355 97.8756 72.9311 97.3645 73.0333 97.0579L73.1355 97.3645C73.3399 96.1379 72.8289 95.5247 72.7267 94.5025C73.0333 94.5025 73.1355 93.5826 73.2377 93.0715C73.2377 91.6406 72.9311 90.6184 72.8289 89.3918C72.8289 89.2896 72.9311 89.1874 72.9311 89.1874L73.0333 89.0852C73.1355 88.983 73.2377 88.983 73.3399 88.983C73.6466 88.983 73.9532 88.983 74.2599 88.983C74.6687 88.983 74.9754 88.983 75.3842 89.0852C75.1798 88.983 75.3842 88.7786 75.6909 88.7786C75.9975 88.8808 76.5086 88.5741 76.5086 88.8808H76.4064C76.6108 89.1874 77.2241 89.0852 77.7351 89.0852L77.8373 88.6763C79.1661 89.2896 81.2104 88.4719 81.9259 88.983C82.2325 88.8808 82.6414 88.8808 82.948 88.7786V88.983C83.7657 89.0852 84.2768 89.0852 85.2989 88.983L85.0945 89.1874C85.7078 89.1874 85.81 88.5741 86.4233 88.5741L86.6277 88.8808C87.6498 88.8808 88.7742 89.1874 89.7963 88.8808C89.7963 88.8808 89.7963 88.983 89.5919 89.0852C90.103 89.0852 91.534 89.2896 91.3295 88.8808C91.3295 89.1874 92.4539 88.8808 92.965 88.7786L92.8627 88.983C93.3738 88.6764 93.3738 88.6763 93.9871 88.5741C94.1915 88.5741 94.0893 88.7786 93.8849 88.6763C94.3959 88.7786 94.2937 88.4719 94.907 88.5741L94.7026 88.6763C95.2137 88.6763 95.2137 88.5741 95.5203 88.4719C95.8269 88.3697 96.5424 88.5741 96.6446 88.6763C96.7469 88.5741 97.0535 88.3697 97.3601 88.4719C97.3601 88.5741 97.2579 88.5741 97.2579 88.5741C98.1779 88.6763 98.5867 88.3697 99.2 88.5741C99.2 88.6763 99.3022 88.6763 99.3022 88.6763C98.5867 88.6763 97.9734 88.6763 98.0756 88.6763C98.0756 88.8808 98.6889 88.8808 98.1779 89.1874C98.6889 89.0852 99.4044 88.6763 100.018 88.7786C100.018 88.7786 100.12 88.7786 100.12 88.8808H100.018C100.12 88.8808 100.222 88.8808 100.427 88.8808C100.631 88.8808 100.733 88.983 100.938 88.983C101.04 89.1874 101.653 89.0852 101.858 89.0852C101.858 88.8808 102.164 88.8808 101.858 88.6763C101.858 88.6763 101.755 88.6763 101.653 88.6763H101.551C101.346 88.6763 101.142 88.6763 100.835 88.6763C101.04 88.5741 101.346 88.4719 101.653 88.5741C101.755 88.4719 101.96 88.2675 102.062 88.2675C102.471 88.5741 103.186 88.7786 103.289 88.8808C104.208 88.7786 105.333 88.7786 105.946 88.3697C106.151 88.2675 106.253 88.4719 106.355 88.5741C106.253 88.5741 106.048 88.5741 105.946 88.6763C106.457 88.5741 107.479 88.6764 107.582 88.3697C108.195 88.4719 107.275 88.6763 108.093 88.5741L107.99 88.6763C109.728 89.0852 110.75 87.9608 112.692 88.5741C112.59 88.5741 112.488 88.4719 112.488 88.4719C114.634 88.6764 116.985 88.2675 119.132 88.6763C119.745 88.7786 119.847 88.5741 120.154 88.4719L120.256 88.6763L120.869 88.3697C121.789 88.1653 122.402 88.983 123.527 88.5741L123.425 88.3697C123.833 88.3697 124.753 88.2675 124.651 88.4719C124.651 88.4719 124.753 88.2675 124.958 88.3697V88.4719L125.98 88.2675C126.798 88.3697 125.878 88.7786 127.002 88.7786C127.411 88.7786 128.229 88.4719 128.024 88.3697C127.82 88.3697 127.615 88.2675 127.615 88.1653L128.024 88.0631C128.126 87.6542 128.433 87.3476 127.411 87.0409L126.798 87.2454L126.593 87.0409H127.104C126.798 86.8365 126.593 87.0409 126.389 87.1431C126.287 87.0409 126.287 86.9387 126.082 86.9387L125.469 86.7343C125.367 86.6321 125.776 86.4277 125.367 86.4277C125.06 86.6321 125.673 86.7343 125.162 86.8365C124.856 86.6321 124.958 86.5299 124.549 86.6321C124.447 86.5299 124.549 86.4277 124.753 86.4277C124.447 86.5299 123.833 86.4276 123.731 86.6321C123.425 86.4276 122.607 86.7343 122.607 86.3254C122.505 86.4277 121.994 86.6321 121.687 86.6321C122.198 86.2232 120.563 86.6321 120.665 86.121C120.256 86.5299 119.132 86.3254 118.416 86.5299C118.416 86.5299 118.518 86.4277 118.621 86.4277C118.212 86.4277 118.11 86.3254 117.803 86.2232C117.701 86.5299 117.087 86.6321 116.781 86.7343C116.27 86.4276 117.087 86.4276 116.883 86.121C116.883 86.3254 116.065 86.3254 116.167 86.5299C115.759 86.3254 115.861 86.4276 115.656 86.2232C115.554 86.6321 115.248 86.3254 114.941 86.5299C114.43 86.3254 114.839 86.2232 114.225 86.3254C113.919 86.3254 114.532 86.2232 114.532 86.2232ZM100.018 86.8365C100.12 86.8365 100.222 86.8365 100.324 86.8365C100.222 86.8365 100.12 86.8365 100.018 86.8365ZM98.7911 86.8365C98.8933 86.8365 99.0978 86.8365 99.3022 86.8365C99.3022 86.9387 99.3022 87.0409 99.2 86.9387C99.2 86.9387 98.9956 86.9387 98.7911 86.8365ZM101.346 88.3697C101.142 88.3697 101.04 88.3697 101.04 88.2675C101.142 88.2675 101.244 88.2675 101.346 88.3697C101.449 88.2675 101.449 88.2675 101.346 88.3697C101.449 88.2675 101.346 88.2675 101.346 88.3697Z" fill="#FDEDEB"/>
<path d="M101.651 88.0612C101.752 88.0612 101.752 88.0612 101.651 88.0612C101.752 88.0612 101.651 87.9605 101.651 88.0612H101.551C101.651 88.0612 101.651 88.0612 101.651 88.0612Z" fill="#FDEDEB"/>
<path d="M81.9259 86.4272V86.5278L82.0265 86.4272H81.9259Z" fill="#FDEDEB"/>
<path d="M129.66 104.212C129.66 104.212 129.76 104.212 129.66 104.212C129.76 104.112 129.76 104.212 129.66 104.212Z" fill="#FDEDEB"/>
<path d="M129.762 101.352L129.864 100.942C129.762 101.147 129.762 101.249 129.762 101.352Z" fill="#FDEDEB"/>
<path d="M116.986 112.594C116.883 112.594 116.781 112.696 116.679 112.696C116.781 112.696 116.986 112.696 116.986 112.594Z" fill="#FDEDEB"/>
<path d="M116.065 112.695C116.27 112.695 116.373 112.695 116.577 112.695C116.475 112.593 116.27 112.593 116.065 112.695Z" fill="#FDEDEB"/>
<path d="M129.965 89.2872V89.1866C129.864 89.2872 129.864 89.2872 129.965 89.2872Z" fill="#FDEDEB"/>
<path d="M129.864 88.9816L129.965 89.1828C129.864 89.0822 129.864 88.9816 129.864 88.9816Z" fill="#FDEDEB"/>
<path d="M129.864 93.2774C129.864 93.0727 130.069 92.7656 129.967 92.4585H129.864C130.069 92.5609 129.762 93.0727 129.864 93.2774Z" fill="#FDEDEB"/>
<path d="M128.944 97.0585L129.047 96.3419C128.944 96.4443 128.842 96.6491 128.842 96.3419C128.535 97.1609 128.944 96.0349 128.944 97.0585Z" fill="#FDEDEB"/>
<path d="M128.74 99.4078C128.74 98.9984 128.638 99.4078 128.535 99.4078C128.638 99.6126 128.74 99.715 128.74 99.4078Z" fill="#FDEDEB"/>
<path d="M124.751 111.774V111.572C124.449 111.572 124.751 111.572 124.751 111.774Z" fill="#FDEDEB"/>
<path d="M121.483 112.799L121.79 112.902L121.994 112.697L121.483 112.799Z" fill="#FDEDEB"/>
<path d="M91.3295 111.368L91.431 111.57C91.6338 111.57 91.6338 111.368 91.3295 111.368Z" fill="#FDEDEB"/>
<path d="M79.065 111.675C78.9626 111.573 78.5531 111.47 78.3484 111.573C78.6555 111.573 78.9626 111.675 79.065 111.675Z" fill="#FDEDEB"/>
<path d="M78.6553 88.37L78.4506 88.4723L78.86 88.37H78.6553Z" fill="#FDEDEB"/>
<path fill-rule="evenodd" clip-rule="evenodd" d="M128.536 89.5969C128.536 89.2902 128.536 89.0858 128.536 88.8814C128.536 88.7792 128.536 88.6769 128.536 88.6769V88.5747C128.536 88.4725 128.434 88.3703 128.331 88.1659C128.127 87.9614 128.025 88.0637 128.127 88.0637C128.229 88.0637 128.536 88.1659 128.74 88.4725C128.74 88.5747 128.842 88.5747 128.842 88.7792C128.842 88.9836 128.945 89.0858 128.945 89.188C129.047 89.4947 129.047 89.5969 129.047 89.5969C129.251 92.2544 129.251 95.7297 129.353 99.0005C129.456 101.556 129.558 104.213 129.558 106.871C129.558 108.2 129.66 109.631 129.66 110.96C129.66 111.368 129.456 111.777 129.149 112.084C128.945 112.186 128.74 112.391 128.536 112.391C128.331 112.493 128.025 112.493 127.922 112.493C127.207 112.493 126.491 112.493 125.776 112.493C120.154 112.595 114.328 112.697 108.4 112.799C102.471 112.902 96.4407 112.902 90.4101 112.902C87.3437 112.902 84.3795 112.902 81.3131 112.902C79.7799 112.902 78.3489 112.902 76.8157 112.902H74.567H74.0559H73.7493C73.647 112.902 73.4426 112.902 73.3404 112.902C72.7271 112.799 72.216 112.391 72.0116 111.879C71.9094 111.675 71.8072 111.368 71.8072 111.164V110.96V110.857V110.653V109.733C71.8072 109.12 71.8072 108.404 71.8072 107.791C71.8072 106.462 71.8072 105.236 71.8072 103.907C71.8072 101.351 71.8072 98.7961 71.9094 96.343C71.9094 93.7876 71.9094 91.3345 71.9094 88.8814C71.9094 88.7792 71.9094 88.4725 72.0116 88.2681C72.1138 88.0637 72.216 87.8592 72.3183 87.6548C72.6249 87.246 73.0338 87.0415 73.4426 86.9393C73.5448 86.9393 73.647 86.9393 73.7493 86.9393H73.9537H74.4647H75.3847C76.6112 86.9393 77.8378 86.9393 79.1666 86.9393C89.1835 86.9393 99.3027 87.0415 110.035 87.1437C112.693 87.1437 117.497 87.1437 120.563 87.1437C121.892 87.1437 125.98 87.1438 127.207 87.4504C130.887 88.2681 122.198 87.9615 119.541 87.9615C107.889 87.9615 96.2362 87.8592 84.4817 87.8592C81.5175 87.8592 78.6555 87.8592 75.6913 87.8592H74.567C74.1581 87.8592 73.7492 87.8592 73.5448 87.8592C73.2382 87.9615 73.0338 88.1659 72.9315 88.4725C72.8293 88.5747 72.8293 88.7792 72.8293 88.8814V89.3925C72.8293 90.8234 72.8293 92.3566 72.8293 93.7876C72.8293 96.7518 72.8293 99.716 72.8293 102.68C72.8293 104.213 72.8293 105.644 72.8293 107.178V109.426V110.551C72.8293 110.96 72.8293 111.266 72.9315 111.573C73.0338 111.879 73.3404 112.084 73.5448 112.084C73.8515 112.186 74.1581 112.084 74.4647 112.186H76.4068C77.7356 112.186 78.9621 112.186 80.2909 112.186C82.8463 112.186 85.4016 112.186 87.9569 112.186C93.0676 112.186 98.0761 112.186 103.085 112.186C108.093 112.186 113.101 112.084 118.008 112.084C120.461 112.084 122.914 111.982 125.367 111.982H127.207H128.127C128.434 111.982 128.638 111.982 128.842 111.777C129.047 111.675 129.149 111.471 129.149 111.266C129.149 111.062 129.149 110.755 129.149 110.448V108.609C128.74 102.271 128.434 96.1385 128.536 89.5969Z" fill="black"/>
<path d="M88.979 96.548H126.083" stroke="black" stroke-width="0.75" stroke-miterlimit="10"/>
<path d="M88.979 101.659H111.159" stroke="black" stroke-width="0.75" stroke-miterlimit="10"/>
<path d="M121.994 107.281H124.958" stroke="black" stroke-width="0.75" stroke-miterlimit="10"/>
<path d="M123.425 108.712V105.748" stroke="black" stroke-width="0.75" stroke-miterlimit="10"/>
<path d="M83.7661 109.938H77.1222C76.3045 109.938 75.589 109.223 75.589 108.405V92.2553C75.589 91.4376 76.3045 90.7221 77.1222 90.7221H83.7661C84.5838 90.7221 85.2993 91.4376 85.2993 92.2553V108.405C85.2993 109.223 84.686 109.938 83.7661 109.938Z" fill="#F4857A"/>
<path d="M106.764 141.624H73.2379C72.8291 141.624 72.4202 141.931 72.4202 142.442V156.24C72.4202 156.649 72.7269 157.058 73.2379 157.058H106.764C107.173 157.058 107.582 156.752 107.582 156.24V142.442C107.582 142.033 107.173 141.624 106.764 141.624Z" fill="#FDEAE8"/>
<path fill-rule="evenodd" clip-rule="evenodd" d="M106.764 143.055C106.764 142.85 106.764 142.748 106.764 142.646C106.764 142.646 106.764 142.442 106.764 142.544C106.764 142.544 106.764 142.646 106.764 142.442C106.764 142.339 106.662 142.339 106.764 142.339C106.764 142.339 106.866 142.442 106.968 142.442C106.968 142.442 106.968 142.442 107.071 142.544C107.071 142.646 107.173 142.748 107.173 142.85C107.275 143.055 107.275 143.157 107.275 143.157C107.479 144.792 107.479 146.939 107.582 148.983C107.684 150.516 107.786 152.152 107.786 153.89C107.786 154.707 107.888 155.525 107.888 156.445C107.888 156.751 107.786 157.058 107.479 157.263C107.377 157.365 107.275 157.467 107.071 157.467C106.968 157.569 106.764 157.569 106.662 157.569C106.253 157.569 105.844 157.569 105.333 157.569C101.858 157.671 98.2802 157.774 94.6005 157.876C90.9208 157.978 87.2411 157.978 83.4592 157.978C81.6193 157.978 79.6773 157.978 77.8374 157.978C76.9175 157.978 75.9976 157.978 75.0777 157.978H73.6467H73.34H73.1356C73.0334 157.978 72.9312 157.978 72.829 157.978C72.4201 157.876 72.0113 157.569 71.8068 157.16C71.7046 156.956 71.7046 156.751 71.6024 156.649V156.547V156.445V156.24V155.627V154.401C71.6024 153.583 71.6024 152.867 71.6024 152.05C71.6024 150.516 71.6024 148.881 71.7046 147.348C71.7046 145.815 71.7046 144.281 71.7046 142.748C71.7046 142.646 71.7046 142.442 71.7046 142.339C71.7046 142.135 71.8068 142.033 71.9091 141.931C72.1135 141.624 72.4201 141.522 72.7268 141.419C72.829 141.419 72.9312 141.419 72.9312 141.419H73.34H73.6467H74.26H76.6109C82.7437 141.419 88.9787 141.522 95.7248 141.624C97.3602 141.624 100.324 141.624 102.164 141.624C102.982 141.624 105.537 141.624 106.253 141.931C108.502 142.748 103.186 142.442 101.551 142.442C94.2938 142.442 87.1389 142.339 79.8817 142.339C78.0419 142.339 76.3042 142.339 74.4644 142.339H73.7489C73.5445 142.339 73.2378 142.339 73.1356 142.339C72.9312 142.339 72.829 142.544 72.829 142.646C72.829 142.748 72.829 142.748 72.829 142.85V143.157V145.917C72.829 147.757 72.829 149.597 72.829 151.436C72.829 152.356 72.829 153.276 72.829 154.196V155.627V156.343C72.829 156.547 72.829 156.751 72.9312 156.956C73.0334 157.058 73.1356 157.263 73.34 157.263C73.5445 157.365 73.6467 157.263 73.8511 157.263H75.0777C75.8954 157.263 76.6109 157.263 77.4286 157.263C78.9618 157.263 80.5972 157.263 82.1304 157.263C85.299 157.263 88.3654 157.263 91.4318 157.263C94.4983 157.263 97.5647 157.263 100.631 157.16C102.164 157.16 103.697 157.058 105.231 157.058H106.355H106.968C107.173 157.058 107.173 157.058 107.275 156.956C107.479 156.751 107.479 156.649 107.479 156.24V155.116C107.071 150.823 106.764 147.041 106.764 143.055Z" fill="black"/>
<path d="M82.6415 147.349H102.573" stroke="black" stroke-width="0.75" stroke-miterlimit="10"/>
<path d="M82.6415 150.417H96.3382" stroke="black" stroke-width="0.75" stroke-miterlimit="10"/>
<path d="M102.982 153.892H104.824" stroke="black" stroke-width="0.75" stroke-miterlimit="10"/>
<path d="M103.902 154.813V152.972" stroke="black" stroke-width="0.75" stroke-miterlimit="10"/>
<path d="M79.473 155.527H75.3845C74.8734 155.527 74.4645 155.118 74.4645 154.607V144.693C74.4645 144.182 74.8734 143.773 75.3845 143.773H79.473C79.9841 143.773 80.3929 144.182 80.3929 144.693V154.607C80.3929 155.118 79.9841 155.527 79.473 155.527Z" fill="#F4857A"/>
<path d="M199.881 138.864H145.605C144.583 138.864 143.765 138.047 143.765 137.024V113.924C143.765 112.902 144.583 112.084 145.605 112.084H199.881C200.903 112.084 201.72 112.902 201.72 113.924V137.024C201.823 138.047 200.903 138.864 199.881 138.864Z" stroke="black" stroke-width="0.75" stroke-miterlimit="10" stroke-dasharray="4.02 4.02"/>
<path d="M149.183 139.889C148.467 141.116 147.649 142.343 146.934 143.671C146.627 144.182 146.729 144.489 147.24 144.796C147.649 145 148.058 145.307 148.467 145.511C148.876 145.716 149.285 145.716 149.489 145.205C150.205 143.876 151.022 142.649 151.738 141.32C151.84 141.32 151.84 141.423 151.942 141.525C152.249 141.934 152.453 142.24 152.76 142.649C152.964 142.956 153.271 143.16 153.68 143.058C154.089 142.956 154.191 142.649 154.293 142.24C154.702 140.094 155.009 137.845 155.418 135.699C155.52 134.881 155.724 134.063 155.826 133.348C155.929 132.939 155.826 132.632 155.52 132.428C155.213 132.223 154.906 132.223 154.498 132.53C152.147 134.37 149.694 136.312 147.343 138.152C147.036 138.356 146.832 138.663 146.934 139.072C147.036 139.481 147.343 139.583 147.752 139.685C148.263 139.787 148.671 139.787 149.183 139.889Z" fill="black"/>
<path d="M158.281 132.734C158.588 132.632 158.895 132.53 159.202 132.53C159.406 132.427 159.509 132.325 159.509 132.12C159.406 131.916 159.304 131.814 158.997 131.916C158.383 132.121 157.77 132.223 157.053 132.427C156.849 132.53 156.746 132.632 156.746 132.837C156.746 133.041 156.951 133.144 157.156 133.041C157.667 132.939 157.974 132.837 158.281 132.734Z" fill="#020202"/>
<path d="M156.235 130.795C156.235 130.999 156.338 130.999 156.44 130.999C156.645 130.999 156.747 130.999 156.747 130.795C157.054 130.283 157.361 129.771 157.668 129.26C157.668 129.158 157.77 129.158 157.77 129.055C157.872 128.851 157.872 128.748 157.668 128.646C157.463 128.544 157.361 128.544 157.258 128.748C156.849 129.362 156.542 129.976 156.133 130.59C156.235 130.692 156.235 130.795 156.235 130.795Z" fill="#010101"/>
<path d="M159.509 136.007C159.509 135.905 159.406 135.803 159.304 135.803C158.69 135.496 158.179 135.086 157.565 134.78C157.36 134.677 157.155 134.677 157.053 134.882C156.951 135.086 156.951 135.189 157.258 135.393C157.872 135.7 158.383 136.11 158.997 136.416C159.099 136.519 159.304 136.519 159.406 136.416C159.509 136.212 159.509 136.11 159.509 136.007Z" fill="#020201"/>
<path d="M150.614 130.69C150.512 130.69 150.409 130.793 150.409 130.895C150.409 131.099 150.409 131.202 150.614 131.202C151.023 131.509 151.535 131.713 151.944 132.02C152.046 132.123 152.251 132.225 152.353 132.225C152.558 132.327 152.66 132.327 152.762 132.123C152.865 131.918 152.762 131.816 152.66 131.713C152.046 131.304 151.432 130.997 150.818 130.588C150.716 130.69 150.614 130.69 150.614 130.69Z" fill="#020201"/>
<path d="M154.192 129.771C154.09 129.464 153.987 129.157 153.987 128.85C153.885 128.646 153.783 128.543 153.578 128.543C153.373 128.543 153.271 128.748 153.373 128.953C153.578 129.566 153.68 130.283 153.885 130.896C153.987 131.101 154.09 131.203 154.294 131.203C154.499 131.101 154.601 130.999 154.499 130.794C154.396 130.487 154.294 130.18 154.192 129.771Z" fill="#010100"/>
<path d="M148.058 138.866C148.672 138.969 149.183 139.071 149.796 139.071C149.898 139.071 149.898 139.071 150 139.071C150.409 139.173 150.614 139.48 150.409 139.786C149.898 140.706 149.387 141.524 148.876 142.444C148.569 142.955 148.365 143.364 148.058 143.875C147.956 143.977 147.956 144.079 148.161 144.181C148.365 144.284 148.569 144.386 148.774 144.59C148.876 144.693 148.978 144.693 149.08 144.488C149.796 143.159 150.614 141.933 151.329 140.604C151.636 139.991 152.045 139.888 152.454 140.604C152.76 141.115 153.169 141.626 153.578 142.137C154.089 139.275 154.498 136.413 155.009 133.653C152.556 135.289 150.307 137.026 148.058 138.866Z" fill="#FDFDFD"/>
<path d="M106.764 119.24H73.2378C72.8289 119.24 72.42 119.547 72.42 120.058V133.857C72.42 134.266 72.7267 134.674 73.2378 134.674H106.764C107.173 134.674 107.582 134.368 107.582 133.857V120.058C107.582 119.649 107.173 119.24 106.764 119.24Z" fill="#E9F7FF"/>
<path fill-rule="evenodd" clip-rule="evenodd" d="M106.764 120.671C106.764 120.467 106.764 120.365 106.764 120.262C106.764 120.262 106.764 120.058 106.764 120.16C106.764 120.16 106.764 120.262 106.764 120.058C106.764 119.956 106.662 119.956 106.764 119.956C106.764 119.956 106.866 120.058 106.968 120.058C106.968 120.058 106.968 120.058 107.07 120.16C107.07 120.262 107.173 120.365 107.173 120.467C107.275 120.671 107.275 120.773 107.275 120.773C107.479 122.409 107.479 124.555 107.581 126.6C107.684 128.133 107.786 129.768 107.786 131.506C107.786 132.324 107.888 133.141 107.888 134.061C107.888 134.368 107.786 134.675 107.479 134.879C107.377 134.981 107.275 135.083 107.07 135.083C106.968 135.186 106.764 135.186 106.662 135.186C106.253 135.186 105.844 135.186 105.333 135.186C101.858 135.288 98.28 135.39 94.6004 135.492C90.9207 135.594 87.241 135.594 83.4591 135.594C81.6192 135.594 79.6772 135.594 77.8373 135.594C76.9174 135.594 75.9975 135.594 75.0776 135.594H73.6466H73.3399H73.1355C73.0333 135.594 72.9311 135.594 72.8289 135.594C72.42 135.492 72.0111 135.186 71.8067 134.777C71.7045 134.572 71.7045 134.368 71.6023 134.266V134.163V133.755V133.55V132.937V131.71C71.6023 130.893 71.6023 130.177 71.6023 129.359C71.6023 127.826 71.6023 126.191 71.7045 124.658C71.7045 123.124 71.7045 121.591 71.7045 120.058C71.7045 119.956 71.7045 119.751 71.7045 119.649C71.7045 119.445 71.8067 119.342 71.9089 119.24C72.1134 118.934 72.42 118.831 72.7266 118.729C72.8289 118.729 72.9311 118.729 72.9311 118.729H73.3399H73.6466H74.2598H76.6108C82.7436 118.729 88.9786 118.831 95.7247 118.934C97.3601 118.934 100.324 118.934 102.164 118.934C102.982 118.934 105.537 118.934 106.253 119.24C108.501 120.058 103.186 119.751 101.551 119.751C94.2937 119.751 87.1388 119.649 79.8816 119.649C78.0417 119.649 76.3041 119.649 74.4643 119.649H73.7488C73.5444 119.649 73.2377 119.649 73.1355 119.649C72.9311 119.649 72.8289 119.854 72.8289 119.956C72.8289 120.058 72.8289 120.058 72.8289 120.16V120.467V123.227C72.8289 125.066 72.8289 126.906 72.8289 128.746C72.8289 129.666 72.8289 130.586 72.8289 131.506V132.937V133.652C72.8289 133.857 72.8289 134.061 72.9311 134.266C73.0333 134.368 73.1355 134.572 73.3399 134.572C73.5444 134.675 73.6466 134.572 73.851 134.572H75.0776C75.8953 134.572 76.6108 134.572 77.4285 134.572C78.9617 134.572 80.5971 134.572 82.1303 134.572C85.2989 134.572 88.3653 134.572 91.4317 134.572C94.4981 134.572 97.5645 134.572 100.631 134.47C102.164 134.47 103.697 134.368 105.231 134.368H106.355H106.968C107.173 134.368 107.173 134.368 107.275 134.266C107.479 134.061 107.479 133.959 107.479 133.55V132.426C107.07 128.44 106.764 124.658 106.764 120.671Z" fill="black"/>
<path d="M82.6416 124.964H102.573" stroke="black" stroke-width="0.75" stroke-miterlimit="10"/>
<path d="M82.6416 128.029H96.3382" stroke="black" stroke-width="0.75" stroke-miterlimit="10"/>
<path d="M102.982 131.502H104.824" stroke="black" stroke-width="0.75" stroke-miterlimit="10"/>
<path d="M103.902 132.423V130.582" stroke="black" stroke-width="0.75" stroke-miterlimit="10"/>
<path d="M79.4729 133.243H75.3843C74.8733 133.243 74.4644 132.834 74.4644 132.323V122.408C74.4644 121.897 74.8733 121.488 75.3843 121.488H79.4729C79.984 121.488 80.3928 121.897 80.3928 122.408V132.323C80.3928 132.731 79.984 133.243 79.4729 133.243Z" fill="#7BD3FF"/>
<path d="M111.159 149.596H113.612C119.847 149.596 124.958 144.486 124.958 138.251C124.958 132.016 130.069 126.905 136.304 126.905H141.517" stroke="black" stroke-width="0.75" stroke-miterlimit="10"/>
<path d="M111.159 151.133C112.006 151.133 112.692 150.446 112.692 149.599C112.692 148.753 112.006 148.066 111.159 148.066C110.312 148.066 109.626 148.753 109.626 149.599C109.626 150.446 110.312 151.133 111.159 151.133Z" fill="black"/>
<path d="M141.516 128.438C142.363 128.438 143.05 127.752 143.05 126.905C143.05 126.058 142.363 125.372 141.516 125.372C140.67 125.372 139.983 126.058 139.983 126.905C139.983 127.752 140.67 128.438 141.516 128.438Z" fill="black"/>
<path d="M154.906 72.1197V82.2389C154.906 88.4739 160.017 93.5846 166.252 93.5846C172.487 93.5846 177.598 98.6952 177.598 104.93V110.143" stroke="black" stroke-width="0.75" stroke-miterlimit="10"/>
<path d="M154.907 76.3103C155.753 76.3103 156.44 75.6238 156.44 74.7771C156.44 73.9303 155.753 73.2439 154.907 73.2439C154.06 73.2439 153.373 73.9303 153.373 74.7771C153.373 75.6238 154.06 76.3103 154.907 76.3103Z" fill="black"/>
<path d="M177.598 111.677C178.445 111.677 179.131 110.99 179.131 110.143C179.131 109.297 178.445 108.61 177.598 108.61C176.751 108.61 176.065 109.297 176.065 110.143C176.065 110.99 176.751 111.677 177.598 111.677Z" fill="black"/>
<path d="M226.967 55.2546C228.491 55.2546 229.727 54.019 229.727 52.4948C229.727 50.9706 228.491 49.735 226.967 49.735C225.443 49.735 224.207 50.9706 224.207 52.4948C224.207 54.019 225.443 55.2546 226.967 55.2546Z" fill="#73CBF2"/>
<path d="M247.308 82.0339C249.058 82.0339 250.477 80.6153 250.477 78.8653C250.477 77.1153 249.058 75.6967 247.308 75.6967C245.558 75.6967 244.139 77.1153 244.139 78.8653C244.139 80.6153 245.558 82.0339 247.308 82.0339Z" fill="#FEFADB"/>
<path d="M215.316 65.8846C215.937 65.8846 216.441 65.3807 216.441 64.7592C216.441 64.1377 215.937 63.6338 215.316 63.6338C214.694 63.6338 214.191 64.1377 214.191 64.7592C214.191 65.3807 214.694 65.8846 215.316 65.8846Z" fill="#F4857A"/>
<path d="M215.519 41.8638C213.475 48.7121 211.328 55.5604 209.284 62.4087C209.182 62.7154 209.693 62.9198 209.795 62.5109C211.84 55.6626 213.986 48.8143 216.03 41.966C216.133 41.6593 215.621 41.5571 215.519 41.8638Z" fill="black"/>
<path d="M222.368 38.1851C220.834 42.5803 219.403 46.9755 217.87 51.3707C217.768 51.6773 218.279 51.8818 218.381 51.4729C219.914 47.0777 221.345 42.6826 222.879 38.2874C222.981 37.9807 222.47 37.8785 222.368 38.1851Z" fill="black"/>
<path d="M240.97 56.6857C235.042 60.0588 229.114 63.6362 223.185 67.2137C221.55 68.2358 219.914 69.258 218.279 70.2801C217.972 70.4845 218.279 70.8934 218.586 70.7912C224.412 67.1115 230.34 63.534 236.268 60.161C237.904 59.1388 239.642 58.2189 241.277 57.299C241.584 56.9924 241.277 56.4813 240.97 56.6857Z" fill="black"/>
<path d="M73.386 208H133.872" stroke="black" stroke-width="0.75" stroke-miterlimit="10"/>
<path d="M140.38 208H154.786" stroke="black" stroke-width="0.75" stroke-miterlimit="10"/>
<path d="M73.386 214.944H103.672" stroke="black" stroke-width="0.75" stroke-miterlimit="10"/>
<path d="M109.487 214.944H140.38" stroke="black" stroke-width="0.75" stroke-miterlimit="10"/>
<path d="M73.386 221.276H87.9652" stroke="black" stroke-width="0.75" stroke-miterlimit="10"/>
<path d="M93.6058 221.276H108.011" stroke="black" stroke-width="0.75" stroke-miterlimit="10"/>
<path d="M113.392 221.276H153.918" stroke="black" stroke-width="0.75" stroke-miterlimit="10"/>
<path d="M73.386 274.734H92.2174" stroke="black" stroke-width="0.75" stroke-miterlimit="10"/>
<path d="M99.4202 274.734H118.078" stroke="black" stroke-width="0.75" stroke-miterlimit="10"/>
<path d="M125.02 274.734H143.591" stroke="black" stroke-width="0.75" stroke-miterlimit="10"/>
<path d="M73.386 281.763H111.049" stroke="black" stroke-width="0.75" stroke-miterlimit="10"/>
<path d="M114.607 281.763H126.756" stroke="black" stroke-width="0.75" stroke-miterlimit="10"/>
<path d="M131.789 281.763H163.464" stroke="black" stroke-width="0.75" stroke-miterlimit="10"/>
<path d="M73.386 288.706H111.049" stroke="black" stroke-width="0.75" stroke-miterlimit="10"/>
<path d="M119.987 288.706H138.645" stroke="black" stroke-width="0.75" stroke-miterlimit="10"/>
<path d="M120.421 262.498H73.386V234.382C73.386 233.167 74.3406 232.125 75.6423 232.125H120.421V262.498Z" fill="#FDEAE8"/>
<path d="M120.421 236.377H73.386V233.253C73.386 232.646 73.9067 232.125 74.5142 232.125H120.421V236.377Z" fill="#FBD6D2"/>
<path fill-rule="evenodd" clip-rule="evenodd" d="M112.003 231.953C103.238 232.04 94.3866 231.779 85.8821 231.779C82.4109 231.779 78.9397 231.779 75.5552 231.779H74.9477H74.6006C74.4271 231.779 74.3403 231.779 74.1667 231.866C73.646 232.04 73.1253 232.56 73.0386 233.081C72.9518 233.428 73.0386 233.602 73.0386 233.775V234.383V235.685C73.0386 237.42 73.0386 239.069 73.0386 240.805C73.0386 247.574 73.0386 254.256 73.0386 260.938C73.0386 261.111 73.0386 261.285 73.0386 261.632C73.0386 261.892 73.2121 262.153 73.3857 262.326C73.5593 262.5 73.8196 262.673 74.0799 262.76C74.3403 262.847 74.6006 262.847 74.7742 262.847C75.642 262.847 76.423 262.847 77.204 262.847C78.8529 262.847 80.5017 262.847 82.1505 262.847C85.4482 262.847 88.6591 262.847 91.87 262.847C98.2917 262.847 104.714 262.847 110.962 262.934C112.784 262.934 115.735 262.934 117.557 262.934C121.375 262.934 117.557 262.413 115.648 262.413C104.106 261.979 91.5228 262.066 81.2827 262.239H77.8115H76.0759H75.2081H74.7742C74.6006 262.239 74.5138 262.239 74.3403 262.239C73.9064 262.153 73.4725 261.719 73.5593 261.198V259.462V255.991C73.5593 251.305 73.5593 246.619 73.5593 242.02C73.5593 239.676 73.5593 237.333 73.5593 235.077V233.341C73.5593 232.908 73.9932 232.474 74.5138 232.474H77.9851C82.5844 232.474 87.2706 232.56 91.87 232.56C96.4694 232.56 101.069 232.56 105.668 232.647C110.267 232.647 114.78 232.647 119.379 232.647C119.813 232.734 120.074 233.081 120.074 233.515V235.251V238.635C120.074 240.891 120.16 243.148 120.16 245.404C120.247 249.917 120.334 254.429 120.421 258.942C120.421 259.289 120.421 259.81 120.421 260.417C120.421 260.764 120.421 261.025 120.421 261.372C120.421 261.719 120.247 262.066 120.074 262.239C119.64 262.673 119.119 262.673 119.119 262.76C119.119 262.76 119.206 262.847 119.379 262.76C119.553 262.76 119.987 262.673 120.334 262.153C120.508 261.892 120.594 261.632 120.681 261.285C120.681 261.024 120.681 260.764 120.681 260.504C120.681 259.983 120.681 259.376 120.681 258.855C120.681 257.727 120.681 256.425 120.681 255.297C120.681 252.954 120.681 250.784 120.594 250.09C120.594 245.925 120.594 241.672 120.508 237.333C120.508 236.292 120.508 235.164 120.508 234.123V233.255C120.508 232.908 120.334 232.56 120.074 232.3C119.813 232.04 119.553 231.866 119.206 231.866C119.032 231.866 118.859 231.866 118.772 231.866H118.338C116.429 231.953 114.173 231.953 112.003 231.953ZM115.127 232.04C114.954 231.953 116.169 231.866 116.429 231.953C116.602 232.04 115.388 232.127 115.127 232.04Z" fill="black"/>
<path fill-rule="evenodd" clip-rule="evenodd" d="M108.445 236.116C105.755 236.203 103.065 235.943 100.375 235.943C91.8703 235.943 83.6262 236.116 75.9027 235.943C75.382 235.943 74.4274 235.943 73.9067 235.943C72.6918 235.943 73.9067 236.463 74.5142 236.463C78.0722 236.897 81.9773 236.81 85.1014 236.637C96.6433 236.116 108.098 237.244 119.206 236.29C119.553 236.29 121.202 236.116 120.161 235.943C119.119 235.769 116.95 235.856 116.516 235.943C113.826 236.116 111.136 236.029 108.445 236.116ZM109.4 236.29C109.313 236.203 109.747 236.116 109.834 236.203C109.834 236.203 109.487 236.377 109.4 236.29Z" fill="black"/>
<path d="M76.2504 234.816C76.5384 234.816 76.7719 234.582 76.7719 234.294C76.7719 234.006 76.5384 233.773 76.2504 233.773C75.9624 233.773 75.7289 234.006 75.7289 234.294C75.7289 234.582 75.9624 234.816 76.2504 234.816Z" fill="black"/>
<path d="M79.6349 234.816C79.9229 234.816 80.1564 234.582 80.1564 234.294C80.1564 234.006 79.9229 233.773 79.6349 233.773C79.3469 233.773 79.1134 234.006 79.1134 234.294C79.1134 234.582 79.3469 234.816 79.6349 234.816Z" fill="black"/>
<path d="M83.0192 234.816C83.3072 234.816 83.5407 234.582 83.5407 234.294C83.5407 234.006 83.3072 233.773 83.0192 233.773C82.7312 233.773 82.4977 234.006 82.4977 234.294C82.4977 234.582 82.7312 234.816 83.0192 234.816Z" fill="black"/>
<path d="M160.253 239.848H131.789C131.442 239.848 131.095 240.108 131.095 240.542V252.258C131.095 252.605 131.355 252.952 131.789 252.952H160.253C160.601 252.952 160.948 252.692 160.948 252.258V240.542C160.948 240.195 160.601 239.848 160.253 239.848Z" fill="white"/>
<path fill-rule="evenodd" clip-rule="evenodd" d="M160.514 241.064C160.514 240.37 160.514 240.544 160.34 240.283C160.253 240.197 160.167 240.197 160.253 240.197C160.34 240.197 160.427 240.283 160.601 240.457C160.601 240.544 160.601 240.544 160.687 240.63C160.687 240.717 160.687 240.804 160.774 240.891C160.774 241.064 160.861 241.151 160.861 241.151C160.948 242.54 160.948 244.362 161.035 246.098C161.035 247.399 161.121 248.788 161.121 250.263C161.121 250.957 161.121 251.652 161.208 252.433C161.208 252.693 161.121 252.867 160.948 253.04C160.774 253.214 160.514 253.3 160.34 253.214C159.993 253.214 159.646 253.214 159.212 253.214C156.262 253.3 153.224 253.3 150.1 253.387C146.976 253.387 143.852 253.474 140.641 253.474C139.079 253.474 137.43 253.474 135.868 253.474C135.087 253.474 134.306 253.474 133.525 253.474H132.31H132.05H131.876C131.789 253.474 131.703 253.474 131.703 253.474C131.442 253.387 131.095 253.214 131.008 252.953C130.922 252.867 130.922 252.693 130.922 252.606C130.922 252.433 130.922 252.433 130.922 252.346V251.825V250.784C130.922 250.09 130.922 249.482 130.922 248.788C130.922 247.486 130.922 246.098 130.922 244.796C130.922 243.494 130.922 242.192 130.922 240.891C130.922 240.717 131.008 240.457 131.095 240.283C131.269 240.11 131.442 239.936 131.703 239.936C131.789 239.936 131.789 239.936 131.876 239.936H131.963H132.223H132.744H134.74C139.947 239.936 145.24 239.936 150.968 240.023C152.356 240.023 154.873 240.023 156.435 240.023C157.129 240.023 159.299 240.023 159.906 240.197C161.816 240.63 157.303 240.457 155.914 240.457C149.753 240.457 143.678 240.37 137.517 240.37C135.955 240.37 134.48 240.37 132.918 240.37H132.31C132.137 240.37 131.876 240.37 131.789 240.37C131.616 240.457 131.529 240.544 131.442 240.717C131.356 240.891 131.442 241.064 131.442 241.238V243.581C131.442 245.143 131.442 246.705 131.442 248.267C131.442 249.048 131.442 249.829 131.442 250.61V251.825V252.433C131.442 252.606 131.442 252.867 131.529 252.953C131.616 253.127 131.703 253.214 131.876 253.214C132.05 253.3 132.223 253.214 132.397 253.214H133.438C134.133 253.214 134.74 253.214 135.434 253.214C136.736 253.214 138.124 253.214 139.426 253.214C142.116 253.214 144.72 253.214 147.323 253.214C149.927 253.214 152.53 253.214 155.133 253.127C156.435 253.127 157.737 253.127 159.039 253.04H159.993H160.514C160.687 253.04 160.774 253.04 160.861 252.953C160.948 252.867 161.035 252.78 161.035 252.693C161.035 252.606 161.035 252.433 161.035 252.259V251.304C160.687 247.66 160.514 244.449 160.514 241.064Z" fill="black"/>
<path d="M139.773 244.706H156.695" stroke="black" stroke-width="0.5" stroke-miterlimit="10"/>
<path d="M139.773 247.309H151.401" stroke="black" stroke-width="0.5" stroke-miterlimit="10"/>
<path d="M157.129 250.259H158.693" stroke="black" stroke-width="0.5" stroke-miterlimit="10"/>
<path d="M157.91 251.043V249.479" stroke="black" stroke-width="0.5" stroke-miterlimit="10"/>
<path d="M137.083 251.735H133.611C133.178 251.735 132.83 251.388 132.83 250.954V242.536C132.83 242.103 133.178 241.755 133.611 241.755H137.083C137.517 241.755 137.864 242.103 137.864 242.536V250.954C137.864 251.301 137.517 251.735 137.083 251.735Z" fill="#F4F4F4"/>
<defs>
<filter id="filter0_dd_1_11523" x="0" y="0" width="374" height="531" filterUnits="userSpaceOnUse" color-interpolation-filters="sRGB">
<feFlood flood-opacity="0" result="BackgroundImageFix"/>
<feColorMatrix in="SourceAlpha" type="matrix" values="0 0 0 0 0 0 0 0 0 0 0 0 0 0 0 0 0 0 127 0" result="hardAlpha"/>
<feOffset/>
<feGaussianBlur stdDeviation="0.5"/>
<feComposite in2="hardAlpha" operator="out"/>
<feColorMatrix type="matrix" values="0 0 0 0 0 0 0 0 0 0 0 0 0 0 0 0 0 0 0.5 0"/>
<feBlend mode="normal" in2="BackgroundImageFix" result="effect1_dropShadow_1_11523"/>
<feColorMatrix in="SourceAlpha" type="matrix" values="0 0 0 0 0 0 0 0 0 0 0 0 0 0 0 0 0 0 127 0" result="hardAlpha"/>
<feOffset dx="2" dy="4"/>
<feGaussianBlur stdDeviation="6"/>
<feComposite in2="hardAlpha" operator="out"/>
<feColorMatrix type="matrix" values="0 0 0 0 0.247059 0 0 0 0 0.247059 0 0 0 0 0.266667 0 0 0 0.1 0"/>
<feBlend mode="normal" in2="effect1_dropShadow_1_11523" result="effect2_dropShadow_1_11523"/>
<feBlend mode="normal" in="SourceGraphic" in2="effect2_dropShadow_1_11523" result="shape"/>
</filter>
<filter id="filter1_d_1_11523" x="126" y="435" width="137" height="41" filterUnits="userSpaceOnUse" color-interpolation-filters="sRGB">
<feFlood flood-opacity="0" result="BackgroundImageFix"/>
<feColorMatrix in="SourceAlpha" type="matrix" values="0 0 0 0 0 0 0 0 0 0 0 0 0 0 0 0 0 0 127 0" result="hardAlpha"/>
<feOffset dy="1"/>
<feColorMatrix type="matrix" values="0 0 0 0 0.239216 0 0 0 0 0.184314 0 0 0 0 0.14902 0 0 0 0.15 0"/>
<feBlend mode="normal" in2="BackgroundImageFix" result="effect1_dropShadow_1_11523"/>
<feBlend mode="normal" in="SourceGraphic" in2="effect1_dropShadow_1_11523" result="shape"/>
</filter>
</defs>
</svg>
