<svg width="1440" height="960" viewBox="0 0 1440 960" fill="none" xmlns="http://www.w3.org/2000/svg">
<rect opacity="0.65" x="1" width="1440" height="1059.89" fill="url(#paint0_linear_1_337)"/>
<path d="M1275.74 943.647C1275.74 952.618 1281.78 960.145 1289.83 961.988H1490.26C1494.17 959.035 1496.97 954.616 1497.97 949.509C1498.24 948.177 1498.37 946.8 1498.37 945.379C1498.37 934.077 1489.62 924.906 1478.79 924.906C1476.09 924.906 1473.52 925.483 1471.18 926.505H1470.78C1459.73 898.838 1433.6 879.408 1403.14 879.408C1373.06 879.408 1347.2 898.349 1335.92 925.461L1296.96 925.15L1290.74 925.106C1282.24 926.571 1275.74 934.321 1275.74 943.647Z" fill="#DEF5FF"/>
<path d="M1294.1 925.261C1294.1 925.261 1324.56 927.482 1347.42 962.01L1294.1 925.261Z" fill="#DEF5FF"/>
<path d="M1294.1 925.261C1294.1 925.261 1324.56 927.482 1347.42 962.01" stroke="#ADD5FA" stroke-miterlimit="10"/>
<path d="M1351.75 901.413C1351.75 901.413 1393.52 918.245 1400.74 961.988L1351.75 901.413Z" fill="#DEF5FF"/>
<path d="M1351.75 901.413C1351.75 901.413 1393.52 918.245 1400.74 961.988" stroke="#ADD5FA" stroke-miterlimit="10"/>
<path d="M1416.03 880.607C1416.03 880.607 1455.27 898.549 1458.29 962.01L1416.03 880.607Z" fill="#DEF5FF"/>
<path d="M1416.03 880.607C1416.03 880.607 1455.27 898.549 1458.29 962.01" stroke="#ADD5FA" stroke-miterlimit="10"/>
<path d="M63.1371 829.932C64.2336 829.601 65.2436 830.732 64.9478 831.959L63.469 838.138L61.9901 844.317C61.6944 845.545 60.3237 845.965 59.5158 845.06L55.476 840.537L51.4362 836.014C50.6282 835.109 50.9962 833.575 52.0999 833.244L57.6185 831.588L63.1371 829.932Z" fill="white"/>
<path d="M267.23 791.07H284.633C284.724 791.055 284.807 791.008 284.867 790.935C284.93 790.857 284.964 790.757 284.964 790.655C284.964 790.552 284.93 790.453 284.867 790.374C284.804 790.303 284.723 790.252 284.633 790.228H267.23C267.137 790.252 267.052 790.302 266.985 790.374C266.923 790.453 266.889 790.552 266.889 790.655C266.889 790.757 266.923 790.857 266.985 790.935C267.05 791.008 267.137 791.055 267.23 791.07Z" fill="white"/>
<path d="M285.261 790.206C283.984 788.499 282.472 786.434 282.951 784.099C283.026 783.615 283.223 783.162 283.523 782.788C283.824 782.415 284.215 782.134 284.654 781.977C285.048 781.832 285.474 781.82 285.874 781.945C286.273 782.07 286.625 782.325 286.879 782.673L287.571 782.247C287.071 781.431 286.816 780.476 286.836 779.505C286.857 778.535 287.154 777.593 287.688 776.802C288.283 775.88 289.104 775.147 290.064 774.68C291.024 774.213 292.087 774.031 293.138 774.153C298.258 774.523 301.408 779.373 303.973 783.493C304.016 783.59 304.092 783.666 304.186 783.706C304.282 783.745 304.388 783.745 304.484 783.706C304.571 783.659 304.642 783.584 304.687 783.493C304.723 783.391 304.723 783.279 304.687 783.178C304.647 782.632 304.79 782.087 305.091 781.64C305.398 781.194 305.841 780.872 306.347 780.731C306.819 780.607 307.312 780.607 307.784 780.731C308.259 780.846 308.698 781.085 309.061 781.427C310.754 782.842 311.19 785.233 311.488 787.354C311.515 787.443 311.567 787.522 311.637 787.579C311.71 787.63 311.795 787.657 311.882 787.657C311.966 787.655 312.047 787.628 312.116 787.579C312.19 787.525 312.243 787.446 312.265 787.354C312.478 785.76 314.394 786.03 315.331 786.658C316.533 787.467 317.459 788.6 318.737 789.296C319.927 789.941 321.229 790.327 322.564 790.431C323.898 790.535 325.239 790.355 326.507 789.903C326.997 789.734 326.784 788.915 326.294 789.094C324.784 789.637 323.166 789.756 321.599 789.441C320.031 789.127 318.569 788.388 317.353 787.298C316.352 786.411 315.288 785.289 313.894 785.289C313.351 785.243 312.81 785.404 312.369 785.741C311.928 786.079 311.616 786.571 311.488 787.13H312.255C311.807 784.424 311.116 781.247 308.433 780.08C306.304 779.148 303.516 780.742 303.91 783.448L304.633 783.122C302.345 779.429 299.812 775.477 295.682 773.939C292.19 772.637 288.039 773.58 286.485 777.431C286.114 778.272 285.953 779.199 286.017 780.125C286.084 781.054 286.373 781.95 286.858 782.729C287.156 783.167 287.837 782.729 287.55 782.303C286.23 780.248 283.292 781.023 282.44 783.077C281.195 785.929 283.068 788.69 284.686 790.857C285.027 791.194 285.581 790.587 285.261 790.206Z" fill="white"/>
<path d="M529 886.057H520.619V896.4H504.192V868.158H489.951V837.778L482.158 829.595H473.279V807.286H457.716C450.284 807.294 443.158 810.397 437.901 815.913C432.644 821.43 429.684 828.91 429.67 836.714V880.371H430.064V879.945H397.723V901.079H385.442V908.915H363.057V904.281C363.054 900.989 361.808 897.833 359.591 895.506C357.375 893.178 354.37 891.87 351.235 891.867H286.318L286.403 864.24H275.008V835.337L270.744 830.793C267.632 827.531 263.415 825.699 259.018 825.7H243.497V880.337H227.508V899.367H176V900.195H228.318V881.165H244.308V826.539H259.018C263.209 826.536 267.231 828.279 270.2 831.386L274.283 835.684V865.08H285.667L285.539 892.762H351.225C352.671 892.752 354.104 893.043 355.442 893.619C356.78 894.196 357.996 895.045 359.018 896.119C360.041 897.193 360.85 898.469 361.399 899.874C361.947 901.279 362.225 902.785 362.215 904.303V909.721H386.221V901.885H398.501V880.796H430.384V836.815C430.404 829.227 433.287 821.958 438.402 816.599C443.518 811.24 450.447 808.229 457.673 808.226H472.405V830.491H481.86L489.172 838.181V868.942H503.403V897.24H521.408V886.919H528.881V886.057H529Z" fill="white" stroke="white" stroke-width="0.25"/>
<line x1="528.5" y1="886.725" x2="528.5" y2="959.893" stroke="white"/>
<line x1="176.5" y1="899.268" x2="176.5" y2="959.893" stroke="white"/>
<path d="M126.922 915.655C144.782 915.655 159.261 900.521 159.261 881.853C159.261 863.184 144.782 848.051 126.922 848.051C109.062 848.051 94.5837 863.184 94.5837 881.853C94.5837 900.521 109.062 915.655 126.922 915.655Z" fill="#FFF6F5"/>
<path d="M126.714 863.503V962.354" stroke="#F9C2BC" stroke-miterlimit="10"/>
<path d="M126.714 885.244L143.586 867.609" stroke="#F9C2BC" stroke-miterlimit="10"/>
<path d="M126.714 901.701L106.565 880.64" stroke="#F9C2BC" stroke-miterlimit="10"/>
<path d="M156.833 948.29C156.833 955.005 152.316 960.64 146.289 962.02H-3.74881C-6.67483 959.809 -8.77393 956.501 -9.52134 952.678C-9.72807 951.681 -9.82349 950.65 -9.82349 949.587C-9.82349 941.126 -3.27174 934.261 4.83843 934.261C6.85802 934.261 8.7822 934.693 10.5314 935.458H10.8336C19.1028 914.747 38.6626 900.203 61.4665 900.203C83.9841 900.203 103.337 914.381 111.781 934.677L140.946 934.444L145.606 934.411C151.966 935.508 156.833 941.309 156.833 948.29Z" fill="#BFE2FB"/>
<path d="M143.093 934.527C143.093 934.527 120.289 936.189 103.178 962.036L143.093 934.527Z" fill="#BFE2FB"/>
<path d="M143.093 934.527C143.093 934.527 120.289 936.189 103.178 962.036" stroke="#EAF8FF" stroke-miterlimit="10"/>
<path d="M99.934 916.675C99.934 916.675 68.6701 929.274 63.2634 962.02L99.934 916.675Z" fill="#BFE2FB"/>
<path d="M99.934 916.675C99.934 916.675 68.6701 929.274 63.2634 962.02" stroke="#EAF8FF" stroke-miterlimit="10"/>
<path d="M51.8137 901.1C51.8137 901.1 22.4422 914.531 20.1841 962.036L51.8137 901.1Z" fill="#BFE2FB"/>
<path d="M51.8137 901.1C51.8137 901.1 22.4422 914.531 20.1841 962.036" stroke="#EAF8FF" stroke-miterlimit="10"/>
<path d="M1436.72 706H1416.63L1395.46 727.19V793.823H1374.65V818.094H1338.39V801.238C1338.39 797.524 1337.21 793.906 1335.01 790.91C1332.82 787.915 1329.72 785.698 1326.18 784.582L1270.75 767.084V813.627H1225.92V853.004H1170.18V836.97H1141.71V744.172H1098.06" stroke="white" stroke-miterlimit="10"/>
<path d="M1098.06 744.182H1077.97L1056.8 765.373V832.005H1036V963.425" stroke="white" stroke-miterlimit="10"/>
<path d="M1409.2 740.172H1413.03" stroke="white" stroke-miterlimit="10"/>
<path d="M1421.43 740.172H1425.25" stroke="white" stroke-miterlimit="10"/>
<path d="M1433.64 740.172H1437.46" stroke="white" stroke-miterlimit="10"/>
<path d="M1409.2 750.648H1413.03" stroke="white" stroke-miterlimit="10"/>
<path d="M1421.43 750.648H1425.25" stroke="white" stroke-miterlimit="10"/>
<path d="M1433.64 750.648H1437.46" stroke="white" stroke-miterlimit="10"/>
<path d="M1409.2 761.123H1413.03" stroke="white" stroke-miterlimit="10"/>
<path d="M1421.43 761.123H1425.25" stroke="white" stroke-miterlimit="10"/>
<path d="M1433.64 761.123H1437.46" stroke="white" stroke-miterlimit="10"/>
<path d="M1409.2 771.59H1413.03" stroke="white" stroke-miterlimit="10"/>
<path d="M1421.43 771.59H1425.25" stroke="white" stroke-miterlimit="10"/>
<path d="M1433.64 771.59H1437.46" stroke="white" stroke-miterlimit="10"/>
<path d="M1409.2 782.066H1413.03" stroke="white" stroke-miterlimit="10"/>
<path d="M1421.43 782.066H1425.25" stroke="white" stroke-miterlimit="10"/>
<path d="M1433.64 782.066H1437.46" stroke="white" stroke-miterlimit="10"/>
<path d="M1409.2 792.541H1413.03" stroke="white" stroke-miterlimit="10"/>
<path d="M1421.43 792.541H1425.25" stroke="white" stroke-miterlimit="10"/>
<path d="M1433.64 792.541H1437.46" stroke="white" stroke-miterlimit="10"/>
<path d="M1409.2 803.017H1413.03" stroke="white" stroke-miterlimit="10"/>
<path d="M1421.43 803.017H1425.25" stroke="white" stroke-miterlimit="10"/>
<path d="M1433.64 803.017H1437.46" stroke="white" stroke-miterlimit="10"/>
<path d="M1409.2 813.483H1413.03" stroke="white" stroke-miterlimit="10"/>
<path d="M1421.43 813.483H1425.25" stroke="white" stroke-miterlimit="10"/>
<path d="M1433.64 813.483H1437.46" stroke="white" stroke-miterlimit="10"/>
<path d="M1409.2 823.958H1413.03" stroke="white" stroke-miterlimit="10"/>
<path d="M1421.43 823.958H1425.25" stroke="white" stroke-miterlimit="10"/>
<path d="M1433.64 823.958H1437.46" stroke="white" stroke-miterlimit="10"/>
<path d="M1104.81 764.291C1105.55 764.291 1106.14 763.695 1106.14 762.961C1106.14 762.227 1105.55 761.631 1104.81 761.631C1104.08 761.631 1103.48 762.227 1103.48 762.961C1103.48 763.695 1104.08 764.291 1104.81 764.291Z" stroke="white" stroke-miterlimit="10"/>
<path d="M1114.89 764.291C1115.62 764.291 1116.22 763.695 1116.22 762.961C1116.22 762.227 1115.62 761.631 1114.89 761.631C1114.15 761.631 1113.56 762.227 1113.56 762.961C1113.56 763.695 1114.15 764.291 1114.89 764.291Z" stroke="white" stroke-miterlimit="10"/>
<path d="M1124.96 764.291C1125.7 764.291 1126.29 763.695 1126.29 762.961C1126.29 762.227 1125.7 761.631 1124.96 761.631C1124.23 761.631 1123.63 762.227 1123.63 762.961C1123.63 763.695 1124.23 764.291 1124.96 764.291Z" stroke="white" stroke-miterlimit="10"/>
<path d="M1104.81 774.69C1105.55 774.69 1106.14 774.095 1106.14 773.36C1106.14 772.626 1105.55 772.031 1104.81 772.031C1104.08 772.031 1103.48 772.626 1103.48 773.36C1103.48 774.095 1104.08 774.69 1104.81 774.69Z" stroke="white" stroke-miterlimit="10"/>
<path d="M1114.89 774.69C1115.62 774.69 1116.22 774.095 1116.22 773.36C1116.22 772.626 1115.62 772.031 1114.89 772.031C1114.15 772.031 1113.56 772.626 1113.56 773.36C1113.56 774.095 1114.15 774.69 1114.89 774.69Z" stroke="white" stroke-miterlimit="10"/>
<path d="M1124.96 774.69C1125.7 774.69 1126.29 774.095 1126.29 773.36C1126.29 772.626 1125.7 772.031 1124.96 772.031C1124.23 772.031 1123.63 772.626 1123.63 773.36C1123.63 774.095 1124.23 774.69 1124.96 774.69Z" stroke="white" stroke-miterlimit="10"/>
<path d="M1104.81 785.089C1105.55 785.089 1106.14 784.494 1106.14 783.76C1106.14 783.025 1105.55 782.43 1104.81 782.43C1104.08 782.43 1103.48 783.025 1103.48 783.76C1103.48 784.494 1104.08 785.089 1104.81 785.089Z" stroke="white" stroke-miterlimit="10"/>
<path d="M1114.89 785.089C1115.62 785.089 1116.22 784.494 1116.22 783.76C1116.22 783.025 1115.62 782.43 1114.89 782.43C1114.15 782.43 1113.56 783.025 1113.56 783.76C1113.56 784.494 1114.15 785.089 1114.89 785.089Z" stroke="white" stroke-miterlimit="10"/>
<path d="M1124.96 785.089C1125.7 785.089 1126.29 784.494 1126.29 783.76C1126.29 783.025 1125.7 782.43 1124.96 782.43C1124.23 782.43 1123.63 783.025 1123.63 783.76C1123.63 784.494 1124.23 785.089 1124.96 785.089Z" stroke="white" stroke-miterlimit="10"/>
<path d="M1104.81 795.489C1105.55 795.489 1106.14 794.893 1106.14 794.159C1106.14 793.424 1105.55 792.829 1104.81 792.829C1104.08 792.829 1103.48 793.424 1103.48 794.159C1103.48 794.893 1104.08 795.489 1104.81 795.489Z" stroke="white" stroke-miterlimit="10"/>
<path d="M1114.89 795.489C1115.62 795.489 1116.22 794.893 1116.22 794.159C1116.22 793.424 1115.62 792.829 1114.89 792.829C1114.15 792.829 1113.56 793.424 1113.56 794.159C1113.56 794.893 1114.15 795.489 1114.89 795.489Z" stroke="white" stroke-miterlimit="10"/>
<path d="M1124.96 795.489C1125.7 795.489 1126.29 794.893 1126.29 794.159C1126.29 793.424 1125.7 792.829 1124.96 792.829C1124.23 792.829 1123.63 793.424 1123.63 794.159C1123.63 794.893 1124.23 795.489 1124.96 795.489Z" stroke="white" stroke-miterlimit="10"/>
<path d="M1104.81 805.887C1105.55 805.887 1106.14 805.291 1106.14 804.557C1106.14 803.823 1105.55 803.227 1104.81 803.227C1104.08 803.227 1103.48 803.823 1103.48 804.557C1103.48 805.291 1104.08 805.887 1104.81 805.887Z" stroke="white" stroke-miterlimit="10"/>
<path d="M1114.89 805.887C1115.62 805.887 1116.22 805.291 1116.22 804.557C1116.22 803.823 1115.62 803.227 1114.89 803.227C1114.15 803.227 1113.56 803.823 1113.56 804.557C1113.56 805.291 1114.15 805.887 1114.89 805.887Z" stroke="white" stroke-miterlimit="10"/>
<path d="M1124.96 805.887C1125.7 805.887 1126.29 805.291 1126.29 804.557C1126.29 803.823 1125.7 803.227 1124.96 803.227C1124.23 803.227 1123.63 803.823 1123.63 804.557C1123.63 805.291 1124.23 805.887 1124.96 805.887Z" stroke="white" stroke-miterlimit="10"/>
<path d="M1104.81 816.286C1105.55 816.286 1106.14 815.691 1106.14 814.956C1106.14 814.222 1105.55 813.626 1104.81 813.626C1104.08 813.626 1103.48 814.222 1103.48 814.956C1103.48 815.691 1104.08 816.286 1104.81 816.286Z" stroke="white" stroke-miterlimit="10"/>
<path d="M1114.89 816.286C1115.62 816.286 1116.22 815.691 1116.22 814.956C1116.22 814.222 1115.62 813.626 1114.89 813.626C1114.15 813.626 1113.56 814.222 1113.56 814.956C1113.56 815.691 1114.15 816.286 1114.89 816.286Z" stroke="white" stroke-miterlimit="10"/>
<path d="M1124.96 816.286C1125.7 816.286 1126.29 815.691 1126.29 814.956C1126.29 814.222 1125.7 813.626 1124.96 813.626C1124.23 813.626 1123.63 814.222 1123.63 814.956C1123.63 815.691 1124.23 816.286 1124.96 816.286Z" stroke="white" stroke-miterlimit="10"/>
<path d="M1104.81 826.685C1105.55 826.685 1106.14 826.09 1106.14 825.355C1106.14 824.621 1105.55 824.026 1104.81 824.026C1104.08 824.026 1103.48 824.621 1103.48 825.355C1103.48 826.09 1104.08 826.685 1104.81 826.685Z" stroke="white" stroke-miterlimit="10"/>
<path d="M1114.89 826.685C1115.62 826.685 1116.22 826.09 1116.22 825.355C1116.22 824.621 1115.62 824.026 1114.89 824.026C1114.15 824.026 1113.56 824.621 1113.56 825.355C1113.56 826.09 1114.15 826.685 1114.89 826.685Z" stroke="white" stroke-miterlimit="10"/>
<path d="M1124.96 826.685C1125.7 826.685 1126.29 826.09 1126.29 825.355C1126.29 824.621 1125.7 824.026 1124.96 824.026C1124.23 824.026 1123.63 824.621 1123.63 825.355C1123.63 826.09 1124.23 826.685 1124.96 826.685Z" stroke="white" stroke-miterlimit="10"/>
<path d="M1104.81 837.083C1105.55 837.083 1106.14 836.488 1106.14 835.754C1106.14 835.019 1105.55 834.424 1104.81 834.424C1104.08 834.424 1103.48 835.019 1103.48 835.754C1103.48 836.488 1104.08 837.083 1104.81 837.083Z" stroke="white" stroke-miterlimit="10"/>
<path d="M1114.89 837.083C1115.62 837.083 1116.22 836.488 1116.22 835.754C1116.22 835.019 1115.62 834.424 1114.89 834.424C1114.15 834.424 1113.56 835.019 1113.56 835.754C1113.56 836.488 1114.15 837.083 1114.89 837.083Z" stroke="white" stroke-miterlimit="10"/>
<defs>
<linearGradient id="paint0_linear_1_337" x1="798.5" y1="1032.19" x2="-216.069" y2="-255.714" gradientUnits="userSpaceOnUse">
<stop offset="0.181393" stop-color="#9FDDFF"/>
<stop offset="0.543466" stop-color="#D8F1FF"/>
</linearGradient>
</defs>
</svg>
