<svg width="376" height="448" viewBox="0 0 376 448" fill="none" xmlns="http://www.w3.org/2000/svg">
<path d="M319.611 342.587C320.692 342.587 321.568 341.714 321.568 340.637C321.568 339.56 320.692 338.688 319.611 338.688C318.53 338.688 317.654 339.56 317.654 340.637C317.654 341.714 318.53 342.587 319.611 342.587Z" fill="black"/>
<path d="M90.1803 168.268L84.2462 166.625C84.1866 166.608 84.1236 166.607 84.0633 166.621C84.0031 166.636 83.9477 166.666 83.9026 166.708C83.8574 166.751 83.8241 166.804 83.8059 166.863C83.7877 166.922 83.7852 166.985 83.7986 167.045L85.3333 172.995C85.3486 173.057 85.38 173.113 85.4243 173.158C85.4686 173.203 85.5242 173.236 85.5853 173.253C85.6464 173.27 85.711 173.27 85.7723 173.254C85.8337 173.238 85.8896 173.206 85.9344 173.161L90.3337 168.854C90.3756 168.81 90.4055 168.757 90.4206 168.698C90.4358 168.639 90.4357 168.578 90.4203 168.519C90.405 168.46 90.3749 168.406 90.3329 168.363C90.2909 168.319 90.2384 168.286 90.1803 168.268Z" fill="black"/>
<path d="M239.195 132.465L237.737 134.14C237.418 134.507 237.457 135.062 237.826 135.38L239.507 136.833C239.875 137.151 240.432 137.112 240.751 136.745L242.209 135.07C242.529 134.703 242.489 134.148 242.121 133.83L240.44 132.377C240.072 132.059 239.515 132.098 239.195 132.465Z" fill="black"/>
<path opacity="0.5" d="M38.6707 159.92C33.2758 121.81 71.1594 92.1511 106.861 106.534L322.088 193.241C357.79 207.624 364.533 255.262 334.226 278.989L151.523 422.027C121.216 445.754 76.5886 427.776 71.1937 389.666L38.6707 159.92Z" fill="#F0FAFF"/>
<path d="M172.007 419.43H168.887C168.646 419.43 168.452 419.624 168.452 419.863V422.972C168.452 423.212 168.646 423.406 168.887 423.406H172.007C172.247 423.406 172.442 423.212 172.442 422.972V419.863C172.442 419.624 172.247 419.43 172.007 419.43Z" fill="black"/>
<path d="M302.436 271.131L286.821 268.583L286.143 276.699L262.611 273.718L254.286 270.915L253.225 273.259L252.687 268.838L241.177 268.15L243.595 251.471C244.733 244.705 258.506 238.984 265.335 238.462L277.792 239.048C286.488 239.048 303.28 248.375 302.308 256.988L302.436 271.131Z" fill="white"/>
<path d="M316.887 446.825H245.935V365.394C245.935 356.02 249.672 347.029 256.326 340.401C262.979 333.772 272.002 330.049 281.411 330.049C290.82 330.049 299.843 333.772 306.496 340.401C313.149 347.029 316.887 356.02 316.887 365.394V446.825Z" fill="#FFBBB6"/>
<path d="M283.559 354.219C287.011 346.944 289.586 339.288 291.233 331.411C290.593 331.233 289.954 331.067 289.289 330.914L251.843 345.86C247.978 351.646 245.922 358.443 245.935 365.393V446.824H260.45C263.581 446.824 266.583 445.585 268.797 443.38C271.01 441.174 272.254 438.183 272.254 435.064V404.357C272.308 387.023 276.167 369.91 283.559 354.219Z" fill="#EDA19B"/>
<path d="M283.815 339.057L248.748 351.582C246.883 355.949 245.926 360.648 245.935 365.394V446.825H251.792C252.896 446.824 253.986 446.584 254.986 446.119C255.987 445.655 256.874 444.979 257.585 444.139C258.296 443.298 258.814 442.313 259.104 441.252C259.393 440.19 259.447 439.079 259.261 437.995C256.703 422.846 254.785 398.497 262.445 374.644C268.558 355.545 283.815 339.057 283.815 339.057Z" fill="black"/>
<path d="M316.887 446.825V446.468H246.28V365.393C246.284 356.111 249.986 347.211 256.573 340.647C263.161 334.084 272.095 330.396 281.411 330.392C290.726 330.396 299.658 334.085 306.244 340.648C312.829 347.212 316.529 356.113 316.529 365.393V446.825H316.887H317.232V365.393C317.232 355.931 313.46 346.857 306.744 340.166C300.029 333.476 290.921 329.717 281.424 329.717C271.927 329.717 262.819 333.476 256.103 340.166C249.388 346.857 245.615 355.931 245.615 365.393V447.182H317.232V446.825H316.887Z" fill="black"/>
<path d="M291.425 330.049C291.425 330.049 286.309 340.166 270.656 348.18C270.656 348.18 256.857 356.908 256.371 357.265C255.885 357.622 249.209 362.756 249.209 362.756C248.445 363.026 247.78 363.517 247.299 364.166C246.818 364.816 246.543 365.594 246.511 366.4C246.37 369.267 248.25 383.232 248.493 385.054C248.736 386.876 252.969 416.666 253.225 418.705C253.48 420.743 255.59 429.14 255.974 430.465C256.358 431.79 257.649 435.664 257.816 436.428C257.982 437.193 258.046 439.817 255.706 440.556L248.787 442.748L239.592 445.398C239.486 445.43 239.375 445.432 239.268 445.406C239.161 445.38 239.063 445.325 238.985 445.249C238.906 445.172 238.85 445.075 238.822 444.969C238.794 444.863 238.795 444.752 238.824 444.646L240.474 438.773L238.62 427.433L236.829 433.192L234.118 446.825L213.362 446.481C213.05 446.477 212.746 446.378 212.493 446.197C212.239 446.015 212.048 445.76 211.945 445.467C211.841 445.173 211.831 444.855 211.915 444.556C212 444.256 212.174 443.99 212.416 443.793L218.963 438.429L217.864 426.872C217.864 426.872 219.334 392.533 218.529 390.852C213.592 380.658 214.692 379.117 212.556 375.867C206.712 366.948 205.919 343.555 205.919 343.555C205.919 343.555 207.198 334.406 212.122 327.564C219.999 316.581 233.492 305.598 237.699 303.279C251.869 295.532 254.542 288.932 254.542 288.932" fill="#8ADBFF"/>
<path d="M284.621 210.252C284.416 207.513 281.283 206.608 279.007 206.213C276.374 205.78 273.705 205.614 271.039 205.716C270.438 205.716 269.837 205.716 269.249 205.78C268.91 205.78 268.584 205.914 268.345 206.153C268.105 206.392 267.97 206.716 267.97 207.054C267.97 207.392 268.105 207.716 268.345 207.955C268.584 208.194 268.91 208.328 269.249 208.328C270.758 208.239 272.28 208.226 273.789 208.328C274.428 208.328 275.068 208.328 275.72 208.418L276.743 208.507H277.191H277.421C277.421 208.507 279.122 208.8 279.288 208.838C279.851 208.978 280.388 209.157 280.925 209.348L281.13 209.45L281.488 209.653L281.795 209.845L281.641 209.73L281.731 209.806L281.859 209.921C281.923 209.921 282.166 210.265 281.999 210.061C281.833 209.857 281.999 210.163 282.089 210.227C282.178 210.291 282.089 210.074 282.089 210.099V210.24V210.405C282.089 210.545 282.089 210.036 282.089 210.291C282.089 210.628 282.224 210.953 282.463 211.191C282.703 211.43 283.028 211.565 283.368 211.565C283.537 211.561 283.703 211.525 283.858 211.457C284.013 211.389 284.153 211.291 284.269 211.169C284.386 211.047 284.477 210.903 284.537 210.746C284.598 210.588 284.626 210.421 284.621 210.252Z" fill="#CCCCCC"/>
<path d="M260.949 211.743C260.367 214.251 260.054 216.814 260.015 219.388C260.015 220.751 260.015 222.115 259.939 223.478C259.872 224.597 259.915 225.719 260.067 226.829C260.424 228.703 261.403 230.403 262.845 231.657C264.287 232.911 266.11 233.647 268.021 233.748C269.156 233.748 270.277 233.509 271.313 233.048C272.349 232.587 273.275 231.914 274.032 231.072C274.339 230.741 273.84 230.244 273.533 230.575C272.71 231.511 271.658 232.217 270.479 232.626C269.3 233.035 268.034 233.131 266.806 232.907C265.658 232.65 264.581 232.143 263.652 231.423C262.724 230.703 261.967 229.786 261.435 228.74C260.233 226.37 260.642 223.555 260.68 220.993C260.662 217.957 260.979 214.927 261.627 211.96C261.742 211.488 261.051 211.361 260.949 211.743Z" fill="black"/>
<path d="M270.093 220.611H270.016H270.08L270.016 220.535V220.624V220.535V220.624V220.547V220.662V220.573L269.939 220.713L270.003 220.636H270.08H270.157H270.285H270.374H270.451V220.726V220.828V220.917L270.604 220.611V220.343L270.438 220.14H270.17L269.952 220.292C269.885 220.421 269.825 220.552 269.773 220.687V220.777V221.044L269.927 221.197H270.182H270.361L270.477 221.095L270.604 220.904L270.694 220.649V220.305L270.617 220.165L270.4 219.948H270.118L269.914 220.114V220.382L270.093 220.611Z" fill="black"/>
<path d="M262.982 220.751V220.675V220.764V220.675V220.764V220.688V220.802V220.713L262.906 220.853V220.777H262.995H263.123H263.2H263.264V220.866V220.968V221.057L263.417 220.751V220.484L263.264 220.28H262.982L262.778 220.446C262.709 220.564 262.645 220.692 262.586 220.828V220.917V221.185L262.739 221.337H263.008L263.187 221.274L263.302 221.172L263.43 220.981L263.507 220.726V220.458V220.382V220.242L263.276 220.025H263.008L262.79 220.191V220.458L262.982 220.751Z" fill="black"/>
<path d="M276.999 223.503C277.788 223.328 278.523 222.968 279.146 222.454C279.768 221.94 280.26 221.287 280.58 220.547C280.765 220.15 280.838 219.71 280.79 219.274C280.743 218.839 280.577 218.424 280.311 218.075C280.025 217.778 279.663 217.565 279.264 217.457C278.866 217.349 278.445 217.351 278.047 217.464C277.61 217.598 277.209 217.831 276.876 218.145C276.543 218.459 276.288 218.845 276.129 219.273C276.106 219.32 276.093 219.371 276.092 219.424C276.091 219.476 276.102 219.528 276.123 219.576C276.145 219.623 276.176 219.666 276.216 219.7C276.256 219.734 276.302 219.76 276.353 219.774C276.403 219.788 276.456 219.791 276.508 219.783C276.56 219.774 276.609 219.755 276.653 219.725C276.696 219.695 276.732 219.657 276.759 219.612C276.786 219.567 276.802 219.516 276.807 219.464C276.946 219.088 277.189 218.759 277.508 218.516C277.828 218.272 278.21 218.124 278.61 218.088C278.809 218.071 279.01 218.097 279.198 218.165C279.386 218.233 279.557 218.341 279.698 218.482C279.84 218.623 279.948 218.793 280.017 218.98C280.085 219.168 280.111 219.368 280.094 219.566C279.993 220.395 279.588 221.158 278.956 221.707C278.355 222.259 277.618 222.642 276.82 222.815C276.372 222.917 276.564 223.605 276.999 223.503Z" fill="black"/>
<path d="M277.638 223.044C277.485 228.37 277.638 233.696 277.446 239.01C277.462 239.091 277.506 239.165 277.57 239.217C277.634 239.27 277.715 239.299 277.798 239.299C277.881 239.299 277.962 239.27 278.026 239.217C278.09 239.165 278.134 239.091 278.15 239.01C278.303 233.696 278.15 228.37 278.342 223.044C278.326 222.963 278.282 222.889 278.218 222.836C278.154 222.784 278.073 222.755 277.99 222.755C277.907 222.755 277.826 222.784 277.762 222.836C277.698 222.889 277.654 222.963 277.638 223.044Z" fill="black"/>
<path d="M265.873 233.136C266.062 235.207 266.105 237.289 266.001 239.367C266.016 239.448 266.06 239.522 266.124 239.575C266.188 239.627 266.269 239.656 266.352 239.656C266.435 239.656 266.516 239.627 266.58 239.575C266.645 239.522 266.688 239.448 266.704 239.367C266.808 237.289 266.766 235.207 266.576 233.136C266.538 232.677 265.821 232.677 265.873 233.136Z" fill="black"/>
<path d="M272.05 232.257C270.771 232.958 270.899 234.079 266.538 236.474C266.154 236.678 266.691 235.99 266.359 236.245C266.295 235.531 266.359 234.079 266.359 233.365C270.541 233.76 268.737 233.646 268.737 233.646C268.507 233.327 267.817 234.104 269.466 233.365" fill="black"/>
<path d="M271.922 231.951C271.344 232.325 270.826 232.784 270.387 233.314C269.451 234.246 268.392 235.047 267.241 235.697L266.845 235.926L266.461 236.143C266.371 236.232 266.256 236.015 266.602 236.346C266.947 236.678 266.729 236.576 266.806 236.474V236.359C266.837 236.278 266.838 236.189 266.811 236.106C266.784 236.024 266.729 235.953 266.656 235.906C266.584 235.858 266.497 235.837 266.41 235.845C266.323 235.854 266.242 235.891 266.179 235.951L266.717 236.244C266.627 235.289 266.717 234.321 266.717 233.365L266.359 233.709L268.507 233.926H268.955C268.801 233.926 268.955 233.926 268.955 233.926C269.07 233.926 268.955 233.926 268.725 233.683L268.814 233.339L269.031 233.25H268.673L268.929 233.352C268.673 233.034 267.983 233.148 267.983 233.607C267.983 234.41 269.262 233.734 269.569 233.607C269.875 233.48 269.632 232.817 269.223 233.008C269.031 233.085 268.84 233.174 268.648 233.237H268.469C268.469 233.148 268.673 233.632 268.609 233.48C268.737 233.798 268.75 233.645 268.609 233.773H268.533H268.405C268.507 233.926 268.725 233.913 268.891 233.926C269.057 233.938 269.428 233.926 269.428 233.569C269.428 233.212 268.993 233.199 268.725 233.161L266.307 232.919C266.261 232.919 266.215 232.928 266.172 232.946C266.129 232.964 266.091 232.991 266.059 233.024C266.026 233.057 266.001 233.097 265.985 233.14C265.968 233.183 265.96 233.229 265.962 233.276C265.962 234.231 265.873 235.2 265.962 236.155C265.962 236.397 266.256 236.639 266.486 236.461C266.717 236.283 266.486 236.55 266.243 236.461L266.077 236.257C266.077 236.079 266.077 236.092 266.077 236.257V236.359C266.053 236.431 266.048 236.508 266.064 236.582C266.08 236.656 266.115 236.724 266.167 236.78C266.474 237.085 266.985 236.665 267.254 236.512C267.997 236.087 268.714 235.619 269.402 235.11C270.129 234.531 270.808 233.896 271.436 233.212C271.662 232.955 271.935 232.743 272.241 232.588C272.689 232.358 272.331 231.747 271.922 231.951Z" fill="black"/>
<path d="M266.116 219.923C265.855 221.181 265.722 222.462 265.719 223.746C265.735 223.827 265.778 223.901 265.843 223.954C265.907 224.007 265.988 224.035 266.071 224.035C266.154 224.035 266.235 224.007 266.299 223.954C266.363 223.901 266.407 223.827 266.422 223.746C266.424 222.53 266.548 221.318 266.793 220.127C266.817 220.038 266.805 219.942 266.76 219.862C266.715 219.781 266.639 219.721 266.55 219.694C266.507 219.68 266.461 219.675 266.415 219.679C266.37 219.684 266.325 219.697 266.285 219.718C266.244 219.739 266.209 219.768 266.179 219.804C266.15 219.839 266.129 219.88 266.116 219.923Z" fill="black"/>
<path d="M271.922 216.877C271.421 216.57 270.832 216.435 270.246 216.495L269.991 216.597L269.888 216.852C269.888 217.018 270.042 217.221 270.246 217.196H270.63H270.809H270.899L271.244 217.298H271.308L271.487 217.4C271.567 217.434 271.657 217.438 271.74 217.411C271.823 217.383 271.893 217.327 271.937 217.252C271.981 217.176 271.996 217.088 271.979 217.003C271.962 216.917 271.914 216.841 271.845 216.788L271.922 216.877Z" fill="black"/>
<path d="M264.376 217.349C263.874 217.045 263.285 216.915 262.701 216.98L262.445 217.082L262.343 217.324C262.346 217.418 262.385 217.506 262.451 217.573C262.518 217.639 262.607 217.677 262.701 217.681C262.829 217.668 262.957 217.668 263.085 217.681H263.392L263.75 217.783L263.929 217.885C264.009 217.919 264.099 217.923 264.182 217.895C264.265 217.868 264.335 217.811 264.379 217.736C264.423 217.661 264.438 217.573 264.421 217.487C264.404 217.402 264.356 217.326 264.287 217.273L264.376 217.349Z" fill="black"/>
<path d="M266.653 225.886C267.495 225.876 268.301 225.543 268.904 224.956C268.937 224.923 268.964 224.885 268.982 224.842C269.001 224.799 269.01 224.753 269.01 224.707C269.01 224.661 269.001 224.615 268.982 224.572C268.964 224.529 268.937 224.491 268.904 224.459C268.837 224.394 268.747 224.358 268.654 224.358C268.561 224.358 268.472 224.394 268.405 224.459L268.29 224.548L268.085 224.701L267.637 224.956H267.497L267.254 225.032H267.113H266.781C266.688 225.032 266.599 225.068 266.532 225.132C266.465 225.196 266.426 225.284 266.423 225.376C266.402 225.424 266.392 225.476 266.393 225.529C266.393 225.581 266.405 225.633 266.427 225.681C266.448 225.728 266.479 225.771 266.518 225.807C266.557 225.842 266.603 225.869 266.653 225.886Z" fill="black"/>
<path d="M260.207 215.184C263.545 214.674 269.453 213.323 271.717 209.972C270.948 211.48 270.008 212.895 268.916 214.19C268.848 214.258 268.804 214.346 268.79 214.441C268.776 214.536 268.793 214.633 268.839 214.718C268.885 214.803 268.957 214.87 269.045 214.91C269.133 214.951 269.231 214.962 269.325 214.942C270.783 214.687 272.599 213.808 272.868 210.724C272.868 210.724 273.418 217.898 276.922 218.649C276.922 218.649 277.817 217.248 278.828 217.719C279.838 218.191 280.669 218.993 280.388 219.873C280.117 220.742 279.638 221.533 278.994 222.179C278.521 222.523 277.715 222.701 277.958 224.409L277.881 227.913C277.881 227.913 287.306 220.968 282.856 212.967C278.406 204.965 273.981 206.596 273.981 206.596C273.981 206.596 264.504 200.416 258.698 213.272C258.601 213.501 258.567 213.752 258.6 213.998C258.634 214.244 258.732 214.477 258.886 214.672C259.041 214.867 259.244 215.017 259.477 215.107C259.709 215.197 259.961 215.224 260.207 215.184Z" fill="black"/>
<path d="M283.559 214.534C283.559 214.534 286.117 225.275 286.232 229.327C286.347 233.379 277.753 232.257 277.753 232.257L277.945 225.708" fill="black"/>
<path d="M280.861 220.523C280.814 221.093 280.601 221.637 280.248 222.088C279.896 222.539 279.419 222.879 278.876 223.064C278.333 223.25 277.748 223.274 277.191 223.134C276.635 222.993 276.131 222.694 275.743 222.273C275.354 221.852 275.097 221.328 275.003 220.764C274.908 220.2 274.981 219.62 275.212 219.097C275.443 218.573 275.822 218.128 276.303 217.815C276.784 217.503 277.346 217.337 277.92 217.337C278.733 217.374 279.498 217.729 280.049 218.326C280.6 218.923 280.892 219.712 280.861 220.523Z" fill="#CCCCCC"/>
<path d="M280.861 220.521H280.516C280.523 221.264 280.249 221.983 279.748 222.534C279.514 222.786 279.232 222.988 278.918 223.128C278.603 223.268 278.264 223.343 277.92 223.35C277.577 223.347 277.238 223.273 276.925 223.132C276.613 222.992 276.333 222.788 276.104 222.534C275.609 221.979 275.336 221.263 275.336 220.521C275.336 219.779 275.609 219.063 276.104 218.508C276.332 218.252 276.612 218.046 276.924 217.904C277.237 217.761 277.576 217.685 277.92 217.68C278.265 217.687 278.605 217.765 278.919 217.907C279.233 218.05 279.516 218.254 279.748 218.508C280.249 219.059 280.523 219.778 280.516 220.521H281.219C281.174 219.879 280.942 219.265 280.552 218.753C280.161 218.241 279.629 217.854 279.02 217.639C278.412 217.425 277.753 217.392 277.126 217.545C276.499 217.698 275.931 218.03 275.491 218.501C275.051 218.972 274.759 219.56 274.65 220.194C274.541 220.828 274.621 221.48 274.879 222.069C275.137 222.659 275.562 223.16 276.102 223.512C276.642 223.864 277.274 224.051 277.92 224.05C278.825 224.014 279.68 223.623 280.298 222.962C280.916 222.301 281.247 221.424 281.219 220.521H280.861Z" fill="black"/>
<path d="M279.326 220.954V220.878C279.326 220.878 279.071 221.184 279.199 221.044L279.275 220.942L279.723 220.394C280.222 219.782 280.708 219.12 281.181 218.495C282.357 216.934 283.312 215.219 284.02 213.399C284.408 212.391 284.59 211.317 284.557 210.239C284.557 209.901 284.422 209.577 284.182 209.338C283.943 209.099 283.617 208.965 283.278 208.965C282.939 208.965 282.614 209.099 282.374 209.338C282.134 209.577 281.999 209.901 281.999 210.239C282.012 210.438 282.012 210.638 281.999 210.838V211.092C281.999 211.334 281.999 211.092 281.999 211.092V211.271C281.932 211.704 281.825 212.131 281.68 212.545L281.449 213.182V213.309C281.402 213.432 281.346 213.551 281.283 213.666C281.089 214.103 280.872 214.528 280.631 214.94C280.196 215.705 279.697 216.457 279.186 217.183L278.457 218.151C278.329 218.33 278.61 217.96 278.457 218.151L278.303 218.355L277.996 218.725C277.674 219.075 277.379 219.45 277.114 219.846C276.994 219.988 276.907 220.154 276.859 220.333C276.81 220.511 276.802 220.699 276.833 220.881C276.865 221.064 276.936 221.237 277.041 221.389C277.147 221.542 277.285 221.669 277.445 221.763C277.605 221.857 277.784 221.915 277.969 221.933C278.154 221.951 278.341 221.929 278.516 221.868C278.692 221.806 278.852 221.708 278.985 221.579C279.118 221.449 279.222 221.293 279.288 221.12L279.326 220.954Z" fill="#CCCCCC"/>
<path d="M284.583 210.01H284.941C284.826 209.368 284.558 208.764 284.16 208.247C283.761 207.731 283.244 207.317 282.651 207.041C281.524 206.48 280.316 206.098 279.071 205.907C276.851 205.547 274.605 205.377 272.356 205.397H271.078C270.477 205.397 269.875 205.397 269.274 205.397C268.871 205.427 268.489 205.589 268.187 205.856C268.028 205.991 267.901 206.159 267.815 206.349C267.729 206.538 267.686 206.744 267.689 206.952V207.028H268.034H267.689C267.707 207.424 267.861 207.801 268.123 208.099C268.26 208.261 268.43 208.391 268.622 208.481C268.814 208.572 269.024 208.619 269.236 208.621H269.326C270.234 208.621 271.154 208.545 272.075 208.545H273.827L275.746 208.634L276.756 208.723H277.203H277.434H277.574H277.689C277.775 208.727 277.86 208.697 277.924 208.64C277.989 208.583 278.028 208.503 278.035 208.417C278.047 208.333 278.027 208.248 277.98 208.177C277.933 208.107 277.861 208.056 277.779 208.035L277.689 208.379L277.792 208.035H277.574V208.226V208.035V208.226V208.035V208.354L277.664 208.035V208.354L277.753 208.035L277.664 208.379L277.792 208.048L277.702 208.392L277.83 208.06L277.702 208.392L277.907 208.099H277.83L277.702 208.43L277.907 208.137L277.702 208.43L277.984 208.213L277.907 208.137L277.702 208.43L277.984 208.213L277.702 208.43H278.06L277.984 208.213L277.702 208.43H278.06H277.702L277.881 208.736C277.974 208.674 278.039 208.577 278.06 208.468H277.702L277.881 208.774L277.702 208.481V208.812H277.83L277.651 208.519V208.85V208.557V208.812V208.519V208.812L278.559 208.978L279.429 209.143C279.962 209.274 280.487 209.436 281.002 209.628L281.117 209.296L280.963 209.615L281.155 209.704L281.309 209.386L281.155 209.704L281.488 209.882L281.667 209.589L281.475 209.882L281.705 210.035H281.782L281.871 210.125L281.961 210.277L282.255 210.086L281.922 210.201V210.277L282.268 210.201H281.91V210.711H282.255H281.91V210.966C281.839 211.372 281.736 211.773 281.603 212.163L281.373 212.788L281.705 212.915L281.373 212.788L281.692 212.928L281.373 212.788L281.206 213.144C281.014 213.552 280.797 213.96 280.567 214.355C280.132 215.119 279.646 215.846 279.135 216.572L278.418 217.527L278.713 217.719L278.444 217.502L278.303 217.68L277.996 218.05C277.663 218.412 277.359 218.799 277.088 219.209C276.952 219.46 276.882 219.74 276.884 220.025C276.875 220.307 276.944 220.585 277.084 220.831C277.224 221.076 277.429 221.277 277.677 221.414C277.924 221.548 278.201 221.618 278.482 221.617C278.764 221.621 279.042 221.55 279.287 221.411C279.532 221.272 279.735 221.071 279.876 220.828L279.569 220.649L279.863 220.853L279.569 220.649L279.838 220.866L280.273 220.343C280.784 219.719 281.27 219.069 281.743 218.419C282.948 216.84 283.921 215.098 284.634 213.246C284.99 212.3 285.18 211.3 285.196 210.29V209.959V209.691H284.838H284.493V209.933H284.838H284.493V210.227C284.478 211.155 284.301 212.073 283.969 212.94C283.276 214.73 282.338 216.415 281.181 217.948C280.708 218.585 280.222 219.222 279.723 219.834C279.582 220.012 279.441 220.19 279.288 220.356C279.209 220.492 279.095 220.604 278.958 220.68C278.821 220.756 278.665 220.794 278.508 220.789C278.342 220.789 278.178 220.745 278.035 220.662C277.9 220.586 277.789 220.475 277.714 220.339C277.64 220.204 277.605 220.051 277.613 219.897C277.61 219.737 277.649 219.579 277.728 219.439C277.98 219.056 278.267 218.698 278.585 218.368L278.879 217.986L279.019 217.808L278.725 217.617L279.007 217.82C279.262 217.502 279.505 217.183 279.736 216.852C280.264 216.117 280.755 215.356 281.206 214.571C281.449 214.164 281.667 213.743 281.871 213.297C281.871 213.183 281.986 213.055 282.038 212.94C282.127 212.724 282.204 212.52 282.281 212.291C282.423 211.875 282.534 211.449 282.613 211.017H282.268L282.613 211.093V210.927H282.255H282.613V210.66V210.048V209.921L282.485 209.704L282.357 209.564L282.229 209.449L281.961 209.271L281.577 209.054L281.385 208.965C280.845 208.767 280.294 208.597 279.736 208.455L278.789 208.277L278.188 208.162H277.971H277.728H277.625C277.576 208.189 277.534 208.227 277.503 208.274C277.471 208.321 277.452 208.374 277.446 208.43L277.536 208.647L277.651 208.748H277.728H277.945V208.443V208.748V208.443V208.748V208.404V208.748V208.404V208.748V208.404V208.748V208.404V208.748V208.404L277.868 208.748V208.404L277.792 208.748L277.868 208.404L277.766 208.736L277.843 208.392L277.741 208.723L277.83 208.379V208.022V208.379V208.022H277.677H277.459H276.999L275.963 207.933C275.311 207.933 274.684 207.857 274.019 207.844H272.241C271.304 207.844 270.37 207.869 269.441 207.92C269.331 207.922 269.222 207.899 269.122 207.852C269.022 207.806 268.935 207.738 268.865 207.653C268.704 207.473 268.609 207.244 268.597 207.003C268.598 206.894 268.622 206.786 268.669 206.687C268.715 206.588 268.782 206.5 268.865 206.43C269.048 206.262 269.283 206.163 269.53 206.149C270.106 206.149 270.707 206.149 271.295 206.149H272.574C274.784 206.127 276.992 206.298 279.173 206.659C280.341 206.833 281.476 207.186 282.536 207.704C283.031 207.93 283.463 208.272 283.797 208.7C284.131 209.128 284.357 209.63 284.455 210.163L284.583 210.01Z" fill="black"/>
<path d="M260.309 225.377L257.151 228.524C257.09 228.588 257.057 228.672 257.057 228.76C257.057 228.847 257.09 228.932 257.151 228.996L257.342 229.187C257.372 229.217 257.408 229.242 257.448 229.259C257.487 229.276 257.53 229.284 257.573 229.284C257.616 229.284 257.658 229.276 257.698 229.259C257.737 229.242 257.773 229.217 257.803 229.187L258.174 228.817C258.223 228.758 258.249 228.684 258.249 228.607C258.249 228.53 258.223 228.456 258.174 228.397L257.79 227.849" fill="black"/>
<path d="M260.067 225.173L256.895 228.333C256.772 228.46 256.703 228.629 256.703 228.805C256.702 228.895 256.719 228.985 256.754 229.068C256.789 229.152 256.842 229.227 256.908 229.289L257.087 229.48C257.219 229.604 257.391 229.676 257.573 229.684C257.755 229.681 257.929 229.608 258.059 229.48L258.43 229.111C258.553 228.984 258.622 228.815 258.621 228.639C258.623 228.499 258.583 228.362 258.506 228.244L258.123 227.696L257.547 228.104L257.918 228.652L257.547 229.021L257.355 228.83L260.514 225.67L260.015 225.173H260.067Z" fill="black"/>
<path d="M277.741 239.392L278.636 239.583C282.706 240.431 286.698 241.62 290.568 243.138C292.912 244.039 295.14 245.215 297.205 246.642C298.907 247.732 300.215 249.334 300.939 251.216C301.986 255.631 302.454 260.162 302.333 264.697C302.351 269.398 301.923 274.091 301.054 278.712C300.21 282.981 298.855 286.472 297.09 288.052C295.325 289.632 291.616 290.511 287.255 290.511C279.122 290.511 268.52 287.721 262.253 283.057C261.19 282.289 259.909 281.879 258.596 281.885H258.212C257.353 281.878 256.496 281.788 255.654 281.618C254.701 281.437 253.734 281.343 252.764 281.337C251.728 281.304 250.694 281.451 249.708 281.77L249.963 282.433C250.857 282.157 251.791 282.032 252.726 282.064C253.652 282.067 254.577 282.152 255.488 282.318C256.36 282.492 257.246 282.585 258.135 282.599H258.519C259.682 282.593 260.816 282.959 261.755 283.643C268.213 288.434 278.892 291.212 287.179 291.288C291.629 291.288 295.389 290.498 297.474 288.651C299.558 286.803 300.799 283.261 301.668 278.929C302.539 274.244 302.967 269.487 302.947 264.722C303.057 260.119 302.576 255.52 301.515 251.038C300.579 248.694 298.863 246.742 296.655 245.508C289.608 240.908 277.779 238.742 277.766 238.729L277.638 239.417L277.741 239.392Z" fill="black"/>
<path d="M249.298 279.962H249.388H249.49L249.746 279.873C249.903 279.808 250.066 279.757 250.232 279.72C250.563 279.623 250.901 279.551 251.242 279.503C251.333 279.479 251.412 279.42 251.46 279.339C251.507 279.258 251.521 279.161 251.498 279.07C251.471 278.981 251.411 278.905 251.331 278.858C251.25 278.81 251.155 278.795 251.063 278.815C250.334 278.935 249.621 279.14 248.94 279.427C248.894 279.447 248.852 279.476 248.817 279.513C248.783 279.551 248.757 279.595 248.741 279.643C248.725 279.691 248.72 279.742 248.725 279.792C248.73 279.842 248.746 279.891 248.772 279.935C248.797 279.978 248.832 280.016 248.873 280.045C248.915 280.075 248.962 280.095 249.011 280.105C249.061 280.115 249.113 280.114 249.162 280.102C249.211 280.091 249.258 280.069 249.298 280.038V279.962Z" fill="black"/>
<path d="M248.608 277.935H248.697L248.876 277.821L249.03 277.617H249.119L249.503 277.489H249.708H249.81C249.902 277.486 249.989 277.45 250.055 277.386C250.122 277.322 250.162 277.237 250.168 277.145C250.168 276.967 250.002 276.763 249.81 276.789C249.144 276.85 248.512 277.107 247.994 277.528C247.96 277.56 247.933 277.598 247.915 277.641C247.897 277.684 247.887 277.73 247.887 277.776C247.887 277.822 247.897 277.868 247.915 277.911C247.933 277.954 247.96 277.992 247.994 278.024C248.035 278.07 248.086 278.105 248.144 278.126C248.202 278.148 248.264 278.154 248.325 278.145C248.386 278.136 248.444 278.112 248.493 278.076C248.542 278.039 248.582 277.991 248.608 277.935Z" fill="black"/>
<path d="M246.856 275.705C247.992 274.99 249.248 274.485 250.564 274.214C251.893 273.975 253.247 273.906 254.593 274.011C255.053 274.011 255.053 273.323 254.593 273.297C253.181 273.206 251.764 273.287 250.373 273.539C249.01 273.822 247.71 274.349 246.536 275.094C246.114 275.336 246.472 275.935 246.856 275.705Z" fill="black"/>
<path d="M254.286 271.246C255.297 271.09 256.33 271.137 257.322 271.384C258.315 271.632 259.248 272.074 260.067 272.686C260.471 273.024 260.899 273.335 261.345 273.616C261.868 273.859 262.417 274.039 262.982 274.151C264.338 274.495 265.706 274.839 267.088 275.145C272.203 276.254 277.408 276.279 282.588 276.789C285.599 277.037 288.566 277.675 291.412 278.687C291.834 278.84 292.013 278.165 291.591 278.012C286.693 276.152 281.424 275.973 276.244 275.629C273.484 275.473 270.737 275.137 268.021 274.623C266.64 274.342 265.272 274.011 263.916 273.667C263.266 273.532 262.626 273.357 261.998 273.145C261.422 272.855 260.885 272.496 260.399 272.074C258.642 270.775 256.439 270.22 254.273 270.533C253.851 270.571 253.838 271.246 254.286 271.246Z" fill="black"/>
<path d="M265.272 238.117C261.974 238.857 258.731 239.819 255.565 240.997C253.048 241.908 250.631 243.073 248.352 244.475C246.385 245.56 244.824 247.25 243.901 249.292C240.474 259.166 240.487 272.685 240.474 272.711H241.19C241.19 272.711 241.19 271.87 241.19 270.456C241.344 266.213 241.983 256.797 244.515 249.521C245.39 247.628 246.851 246.065 248.684 245.062C252.034 243.075 255.622 241.517 259.363 240.424C261.064 239.888 262.56 239.481 263.647 239.213C264.734 238.946 265.374 238.805 265.374 238.805L265.22 238.117H265.272Z" fill="black"/>
<path d="M244.528 275.158C243.787 274.386 242.973 273.687 242.098 273.069C240.535 271.847 238.644 271.116 236.663 270.966H236.241C234.395 271.015 232.629 271.725 231.266 272.967C230.599 273.68 230.085 274.521 229.755 275.439C229.425 276.357 229.287 277.332 229.348 278.305H230.051C229.993 277.425 230.114 276.541 230.409 275.709C230.703 274.877 231.165 274.113 231.765 273.464C233.009 272.342 234.616 271.705 236.292 271.667H236.663C238.493 271.808 240.239 272.491 241.676 273.629C242.27 274.054 242.838 274.513 243.377 275.005C243.582 275.196 243.748 275.349 243.85 275.464L244.017 275.63L244.528 275.145V275.158Z" fill="black"/>
<path d="M231.535 277.183C231.369 278.08 231.369 279 231.535 279.897C231.559 279.985 231.617 280.059 231.696 280.105C231.775 280.15 231.869 280.162 231.957 280.139C232.048 280.115 232.126 280.056 232.174 279.975C232.222 279.894 232.236 279.797 232.213 279.706C232.072 278.931 232.072 278.137 232.213 277.361C232.236 277.272 232.223 277.177 232.177 277.097C232.13 277.016 232.053 276.958 231.963 276.935C231.873 276.911 231.778 276.924 231.697 276.97C231.617 277.017 231.559 277.093 231.535 277.183Z" fill="black"/>
<path d="M233.837 277.209C233.773 278.06 233.811 278.915 233.952 279.757C233.979 279.846 234.039 279.921 234.12 279.966C234.201 280.011 234.297 280.023 234.387 279.999C234.476 279.972 234.552 279.913 234.6 279.833C234.647 279.752 234.662 279.657 234.642 279.566C234.506 278.788 234.472 277.996 234.54 277.209C234.542 277.162 234.534 277.116 234.518 277.073C234.501 277.03 234.476 276.99 234.444 276.957C234.411 276.924 234.373 276.897 234.33 276.879C234.287 276.861 234.241 276.852 234.195 276.852C234.101 276.855 234.012 276.894 233.945 276.96C233.879 277.026 233.84 277.115 233.837 277.209Z" fill="black"/>
<path d="M237.673 279.184C237.673 278.496 237.558 277.795 237.545 277.094C237.545 276.687 237.545 276.088 237.916 275.82C237.997 275.772 238.056 275.695 238.08 275.604C238.104 275.514 238.091 275.417 238.044 275.336C238.022 275.297 237.992 275.262 237.956 275.234C237.919 275.206 237.878 275.186 237.834 275.174C237.79 275.162 237.744 275.159 237.699 275.165C237.654 275.171 237.61 275.186 237.571 275.209C237.326 275.416 237.133 275.676 237.006 275.97C236.88 276.264 236.823 276.584 236.842 276.903C236.846 277.669 236.889 278.435 236.97 279.197C236.973 279.29 237.012 279.379 237.078 279.446C237.145 279.512 237.234 279.55 237.328 279.554C237.376 279.554 237.423 279.544 237.466 279.525C237.51 279.506 237.549 279.479 237.582 279.444C237.614 279.409 237.639 279.368 237.655 279.324C237.671 279.279 237.677 279.231 237.673 279.184Z" fill="black"/>
<path d="M240.308 278.89C240.698 278.664 241.038 278.361 241.306 278C241.574 277.638 241.766 277.226 241.868 276.788C241.882 276.745 241.886 276.699 241.881 276.653C241.876 276.608 241.861 276.564 241.839 276.525C241.816 276.486 241.785 276.451 241.748 276.424C241.712 276.397 241.67 276.378 241.625 276.368C241.535 276.344 241.44 276.356 241.359 276.401C241.277 276.446 241.217 276.521 241.19 276.61L241.114 276.89V277.017V277.094C241.024 277.271 240.921 277.441 240.807 277.603L240.717 277.705L240.513 277.909L240.397 278.011L240.142 278.177C240.062 278.224 240.004 278.301 239.982 278.391C239.959 278.48 239.973 278.575 240.02 278.655C240.068 278.734 240.145 278.791 240.235 278.814C240.325 278.837 240.42 278.823 240.5 278.776L240.308 278.89Z" fill="black"/>
<path d="M216.623 227.377H154.112C153.342 227.377 152.718 227.999 152.718 228.766V271.603C152.718 272.37 153.342 272.992 154.112 272.992H216.623C217.393 272.992 218.017 272.37 218.017 271.603V228.766C218.017 227.999 217.393 227.377 216.623 227.377Z" fill="#FFF9CA"/>
<path d="M152.73 270.749V271.615C152.73 271.98 152.876 272.33 153.135 272.588C153.394 272.846 153.745 272.991 154.112 272.991H216.636C216.818 272.993 216.999 272.959 217.168 272.89C217.337 272.822 217.491 272.721 217.621 272.593C217.75 272.465 217.853 272.313 217.924 272.145C217.994 271.977 218.03 271.797 218.03 271.615V270.749H152.73Z" fill="#1A1A1A"/>
<path d="M216.636 272.992V272.648H154.112C153.837 272.648 153.573 272.539 153.379 272.346C153.185 272.152 153.076 271.89 153.076 271.616V228.766C153.076 228.492 153.185 228.23 153.379 228.036C153.573 227.843 153.837 227.734 154.112 227.734H216.636C216.911 227.734 217.174 227.843 217.368 228.036C217.563 228.23 217.672 228.492 217.672 228.766V271.616C217.672 271.89 217.563 272.152 217.368 272.346C217.174 272.539 216.911 272.648 216.636 272.648V273.349C217.097 273.349 217.54 273.166 217.866 272.841C218.192 272.516 218.375 272.076 218.375 271.616V228.766C218.377 228.537 218.333 228.311 218.246 228.099C218.16 227.887 218.032 227.695 217.87 227.533C217.709 227.37 217.516 227.241 217.304 227.154C217.093 227.066 216.865 227.021 216.636 227.021H154.112C153.882 227.021 153.655 227.066 153.443 227.154C153.231 227.241 153.039 227.37 152.877 227.533C152.716 227.695 152.588 227.887 152.501 228.099C152.414 228.311 152.371 228.537 152.372 228.766V271.616C152.372 272.076 152.556 272.516 152.882 272.841C153.208 273.166 153.65 273.349 154.112 273.349H216.636V272.992Z" fill="black"/>
<path d="M189.204 272.992H181.531V279.082H189.204V272.992Z" fill="black"/>
<path d="M189.204 279.082V278.725H181.889V273.348H188.846V279.082H189.204V278.725V279.082H189.562V272.647H181.185V279.439H189.562V279.082H189.204Z" fill="black"/>
<path d="M158.345 266.506H156.708V268.137H158.345V266.506Z" fill="#1A1A1A"/>
<path d="M162.565 266.506H160.928V268.137H162.565V266.506Z" fill="#1A1A1A"/>
<path d="M166.773 266.506H165.136V268.137H166.773V266.506Z" fill="#1A1A1A"/>
<path d="M247.815 279.732H201.814C201.517 279.732 201.277 279.972 201.277 280.267V282.612C201.277 282.907 201.517 283.147 201.814 283.147H247.815C248.111 283.147 248.352 282.907 248.352 282.612V280.267C248.352 279.972 248.111 279.732 247.815 279.732Z" fill="#CCCCCC"/>
<path d="M247.828 283.134V282.79H201.788L201.609 282.612V280.254L201.788 280.076H247.828L248.007 280.254V282.612L247.828 282.79V283.491C247.944 283.491 248.058 283.468 248.165 283.424C248.272 283.38 248.37 283.315 248.452 283.233C248.534 283.152 248.599 283.055 248.643 282.948C248.687 282.841 248.71 282.727 248.71 282.612V280.254C248.71 280.139 248.687 280.025 248.643 279.918C248.599 279.811 248.534 279.714 248.452 279.633C248.37 279.551 248.272 279.486 248.165 279.442C248.058 279.398 247.944 279.375 247.828 279.375H201.788C201.554 279.375 201.33 279.468 201.164 279.633C200.999 279.798 200.906 280.021 200.906 280.254V282.612C200.906 282.845 200.999 283.068 201.164 283.233C201.33 283.398 201.554 283.491 201.788 283.491H247.828V283.134Z" fill="black"/>
<path d="M194.307 283.134H176.402V280.165C176.402 279.888 176.513 279.622 176.71 279.426C176.906 279.23 177.173 279.12 177.451 279.12H193.22C193.498 279.12 193.764 279.23 193.961 279.426C194.158 279.622 194.268 279.888 194.268 280.165L194.307 283.134Z" fill="black"/>
<path d="M194.307 283.134V282.79H176.799V280.165C176.799 279.982 176.872 279.807 177.001 279.678C177.131 279.549 177.306 279.477 177.489 279.477H193.258C193.442 279.477 193.619 279.549 193.751 279.678C193.882 279.806 193.958 279.981 193.961 280.165V283.172H194.307H194.665V280.165C194.665 279.793 194.517 279.437 194.253 279.174C193.989 278.911 193.631 278.763 193.258 278.763H177.489C177.126 278.78 176.783 278.934 176.531 279.195C176.279 279.456 176.137 279.803 176.134 280.165V283.529H194.716V283.172L194.307 283.134Z" fill="black"/>
<path d="M214.193 279.044H211.316V279.655H214.193V279.044Z" fill="black"/>
<path d="M214.18 279.669V279.312H211.661V279.045H211.303V279.401H213.835V279.669H214.18V279.312V279.669H214.538V279.045V278.701H210.958V279.669V280.013H214.538V279.669H214.18Z" fill="black"/>
<path d="M218.976 279.044H216.099V279.655H218.976V279.044Z" fill="black"/>
<path d="M218.976 279.669V279.312H216.457V279.045H216.099V279.401H218.618V279.669H218.976V279.312V279.669H219.334V279.045V278.701H215.753V279.669V280.013H219.334V279.669H218.976Z" fill="black"/>
<path d="M223.772 279.044H220.894V279.655H223.772V279.044Z" fill="black"/>
<path d="M223.772 279.669V279.312H221.253V279.045H220.895V279.401H223.414V279.669H223.772V279.312V279.669H224.117V279.045V278.701H220.537V279.669V280.013H224.117V279.669H223.772Z" fill="black"/>
<path d="M228.568 279.044H225.69V279.655H228.568V279.044Z" fill="black"/>
<path d="M228.568 279.669V279.312H226.036V279.045H225.69V279.401H228.21V279.669H228.568V279.312V279.669H228.913V279.045V278.701H225.332V279.669V280.013H228.913V279.669H228.568Z" fill="black"/>
<path d="M259.146 283.134H136.962C135.754 283.134 134.775 284.109 134.775 285.313V286.752C134.775 287.956 135.754 288.931 136.962 288.931H259.146C260.354 288.931 261.333 287.956 261.333 286.752V285.313C261.333 284.109 260.354 283.134 259.146 283.134Z" fill="black"/>
<path d="M259.159 288.932V288.588H136.962C136.722 288.588 136.484 288.541 136.262 288.449C136.04 288.358 135.839 288.224 135.669 288.054C135.499 287.885 135.364 287.684 135.272 287.463C135.18 287.242 135.133 287.005 135.133 286.766V285.262C135.133 285.023 135.18 284.786 135.272 284.565C135.364 284.344 135.499 284.143 135.669 283.974C135.839 283.805 136.04 283.671 136.262 283.579C136.484 283.488 136.722 283.44 136.962 283.44H259.159C259.644 283.44 260.109 283.632 260.452 283.974C260.795 284.316 260.987 284.779 260.987 285.262V286.715C260.987 287.198 260.795 287.662 260.452 288.003C260.109 288.345 259.644 288.537 259.159 288.537V289.238C259.837 289.238 260.488 288.969 260.967 288.491C261.447 288.014 261.716 287.365 261.716 286.689V285.262C261.716 284.587 261.447 283.938 260.967 283.46C260.488 282.983 259.837 282.714 259.159 282.714H136.962C136.284 282.714 135.633 282.983 135.153 283.46C134.674 283.938 134.404 284.587 134.404 285.262V286.715C134.404 287.391 134.674 288.039 135.153 288.517C135.633 288.995 136.284 289.263 136.962 289.263H259.159V288.932Z" fill="black"/>
<path d="M286.821 268.889C289.489 268.892 292.152 269.101 294.788 269.513C296.067 269.73 297.346 269.985 298.625 270.29C299.213 270.43 299.789 270.571 300.364 270.736L301.195 270.978C301.387 270.978 302.193 271.157 302.295 271.335V270.915L302.628 270.825H302.551L302.807 271.169C302.807 270.711 302.154 270.724 302.103 271.169C302.107 271.246 302.133 271.319 302.178 271.381C302.224 271.442 302.287 271.488 302.359 271.514C302.443 271.543 302.533 271.548 302.619 271.528C302.705 271.507 302.784 271.462 302.845 271.399C302.901 271.343 302.937 271.271 302.948 271.193C302.96 271.115 302.946 271.035 302.909 270.966C302.679 270.532 302.09 270.494 301.63 270.367L299.661 269.806C298.267 269.449 296.847 269.144 295.415 268.902C292.576 268.418 289.701 268.175 286.821 268.175C286.726 268.175 286.635 268.213 286.567 268.28C286.5 268.347 286.463 268.437 286.463 268.532C286.463 268.627 286.5 268.717 286.567 268.784C286.635 268.851 286.726 268.889 286.821 268.889Z" fill="black"/>
<path d="M286.846 268.812C286.69 271.417 286.339 274.006 285.797 276.559C285.708 277.005 286.386 277.196 286.475 276.75C287.035 274.135 287.399 271.481 287.562 268.812C287.588 268.366 286.885 268.366 286.846 268.812Z" fill="black"/>
<path d="M252.866 256.848C252.202 259.525 251.956 262.288 252.137 265.04C252.176 267.811 252.42 270.575 252.866 273.31C252.943 273.756 253.634 273.565 253.557 273.119C253.114 270.448 252.874 267.747 252.841 265.04C252.655 262.352 252.897 259.652 253.557 257.039C253.582 256.947 253.57 256.85 253.524 256.767C253.477 256.685 253.399 256.624 253.308 256.599C253.216 256.574 253.118 256.586 253.035 256.632C252.953 256.679 252.892 256.756 252.866 256.848Z" fill="black"/>
<path d="M241.254 268.455C244.873 267.906 248.528 267.629 252.189 267.627C252.27 267.611 252.344 267.568 252.397 267.504C252.45 267.44 252.479 267.36 252.479 267.277C252.479 267.194 252.45 267.113 252.397 267.049C252.344 266.985 252.27 266.942 252.189 266.926C248.464 266.93 244.744 267.216 241.062 267.78C240.615 267.844 240.807 268.519 241.254 268.455Z" fill="black"/>
<path d="M262.701 244.706C263.622 246.709 264.861 248.55 266.371 250.159C266.404 250.202 266.445 250.236 266.493 250.259C266.541 250.283 266.593 250.295 266.646 250.295C266.7 250.295 266.752 250.283 266.8 250.259C266.848 250.236 266.889 250.202 266.921 250.159C268.121 248.385 269.473 246.718 270.963 245.177L270.4 245.114C271.679 246.885 272.753 248.72 273.802 250.605C273.852 250.683 273.93 250.74 274.02 250.763C274.11 250.787 274.205 250.776 274.288 250.733C275.885 249.722 277.281 248.426 278.406 246.91C279.684 245.279 280.963 243.597 282.242 241.941C282.511 241.584 281.897 241.24 281.628 241.597C280.349 243.202 279.198 244.833 277.932 246.413C276.846 247.871 275.497 249.115 273.955 250.083L274.441 250.21C273.392 248.325 272.258 246.494 271.039 244.719C271.012 244.673 270.974 244.635 270.93 244.606C270.886 244.577 270.835 244.558 270.783 244.55C270.73 244.543 270.676 244.547 270.626 244.563C270.575 244.579 270.528 244.606 270.489 244.642C268.963 246.218 267.576 247.924 266.346 249.739L266.896 249.662C265.428 248.096 264.227 246.301 263.34 244.349C263.097 243.941 262.522 244.298 262.701 244.706Z" fill="black"/>
<path d="M286.667 291.123C289.625 294.011 291.965 297.465 293.547 301.277C295.13 305.089 295.922 309.181 295.875 313.306C295.682 321.883 292.253 330.072 286.271 336.241C280.554 342.217 273.201 346.243 266.18 350.461C262.343 352.767 258.621 355.188 255.015 357.826C253.199 359.159 251.413 360.54 249.657 361.967C248.16 363.177 246.574 364.4 246.165 366.388C245.997 367.347 245.95 368.323 246.025 369.293C246.025 370.503 246.025 371.714 246.089 372.924C246.089 375.358 246.089 377.779 246.012 380.213C245.871 384.85 245.551 389.501 245.053 394.126C244.043 403.546 242.29 412.872 239.809 422.018C238.53 426.617 236.97 431.115 235.742 435.715C235.131 437.88 234.703 440.092 234.463 442.328C234.537 443.385 234.307 444.442 233.799 445.373C233.53 445.72 233.185 446.002 232.79 446.196C232.396 446.39 231.962 446.492 231.522 446.494C227.992 446.622 224.424 446.494 220.895 446.494H214.897C214.475 446.494 214.04 446.494 213.618 446.494C213.365 446.489 213.121 446.402 212.923 446.247C212.724 446.092 212.582 445.876 212.517 445.633C212.452 445.39 212.468 445.133 212.563 444.9C212.658 444.666 212.826 444.47 213.042 444.341C214.628 443.067 216.252 441.793 217.864 440.595C218.478 440.123 219.143 439.716 219.27 438.875C219.3 438.424 219.279 437.971 219.206 437.524C218.593 430.746 218.26 423.954 218.107 417.138C217.829 405.973 218.256 394.802 219.386 383.691C220.575 372.326 222.608 360.756 227.059 350.181C228.909 345.534 231.471 341.201 234.655 337.337C237.341 334.203 240.193 331.183 242.968 328.112C245.104 325.73 247.252 323.36 249.362 320.977C251.792 318.276 254.226 315.57 256.665 312.861C257.368 312.083 258.123 311.319 258.788 310.516L258.903 310.376C259.21 310.045 258.711 309.548 258.404 309.879C256.601 311.905 254.785 313.905 252.969 315.919L241.254 328.915C236.97 333.668 232.468 338.191 229.322 343.797C223.81 353.672 221.227 365.076 219.603 376.173C217.999 387.762 217.255 399.452 217.378 411.149C217.378 419.236 217.706 427.305 218.362 435.358C218.439 436.288 218.529 437.206 218.605 438.136C218.682 439.066 218.247 439.41 217.621 439.894L214.922 441.984L212.659 443.729C212.286 443.971 212.008 444.335 211.873 444.757C211.738 445.18 211.753 445.636 211.917 446.048C212.518 447.437 214.168 447.17 215.395 447.17H228.772C230.088 447.304 231.416 447.24 232.711 446.978C233.425 446.712 234.038 446.233 234.466 445.605C234.894 444.978 235.117 444.233 235.103 443.475C235.267 441.103 235.657 438.752 236.267 436.454C237.469 431.74 239.131 427.153 240.41 422.438C241.689 417.724 242.725 413.213 243.62 408.55C245.39 399.177 246.429 389.682 246.728 380.149C246.728 377.715 246.817 375.294 246.805 372.861C246.805 371.748 246.779 370.639 246.728 369.535C246.571 368.187 246.715 366.821 247.15 365.534C247.619 364.657 248.274 363.892 249.068 363.292C249.951 362.54 250.859 361.814 251.78 361.1C253.698 359.588 255.663 358.131 257.675 356.73C264.76 351.773 272.523 347.887 279.544 342.841C286.309 337.974 291.885 331.82 294.686 323.882C297.45 316.119 297.139 307.598 293.816 300.055C292.234 296.502 289.975 293.287 287.166 290.588C286.846 290.359 286.335 290.805 286.667 291.123Z" fill="black"/>
<path d="M254.286 288.766C252.383 292.402 249.522 295.455 246.012 297.596C234.591 304.54 223.145 312.478 214.82 323.156C210.592 328.296 207.623 334.346 206.149 340.828C205.755 342.89 205.563 344.985 205.574 347.084C205.574 353.595 207.313 359.991 209.129 366.197C211.538 374.682 214.573 382.978 218.209 391.017L218.848 390.724C215.228 382.726 212.206 374.473 209.807 366.031C207.991 359.813 206.277 353.493 206.277 347.097C206.266 345.044 206.458 342.996 206.853 340.981C208.298 334.605 211.219 328.653 215.383 323.601C223.606 313.039 234.988 305.139 246.383 298.208C250.004 295.993 252.952 292.84 254.913 289.085L254.286 288.753V288.766Z" fill="black"/>
<path d="M238.262 427.495L240.052 437.306C240.114 437.634 240.144 437.967 240.142 438.3C240.141 438.957 240.024 439.608 239.796 440.224C239.4 441.282 238.837 442.773 238.262 444.251C238.201 444.405 238.17 444.569 238.172 444.735C238.172 445.073 238.307 445.397 238.547 445.636C238.787 445.875 239.112 446.009 239.451 446.009C239.595 446.007 239.738 445.982 239.873 445.933C244.093 444.518 251.511 442.174 255.77 440.836C256.227 440.693 256.652 440.461 257.018 440.152C257.384 439.843 257.685 439.464 257.902 439.038C258.119 438.612 258.248 438.146 258.281 437.669C258.315 437.193 258.252 436.714 258.097 436.262C254.997 426.728 252.855 416.911 251.703 406.956C250.053 393.921 246.715 369.165 246.715 369.165L246.012 369.254C246.012 369.254 246.216 370.808 246.562 373.331C247.572 380.9 249.759 397.272 251.012 407.045C252.158 417.047 254.3 426.911 257.406 436.491C257.516 436.789 257.573 437.104 257.573 437.421C257.571 438.036 257.373 438.634 257.008 439.128C256.642 439.623 256.128 439.989 255.539 440.173C251.281 441.511 243.863 443.856 239.643 445.27H239.438C239.274 445.266 239.118 445.197 239.003 445.079C238.942 445.024 238.894 444.958 238.861 444.883C238.827 444.808 238.811 444.727 238.812 444.646V444.416C239.387 442.926 239.95 441.435 240.346 440.377C240.599 439.683 240.729 438.95 240.73 438.211C240.728 437.835 240.693 437.46 240.628 437.09L238.85 427.279L238.147 427.406L238.262 427.495Z" fill="black"/>
<path d="M148.523 288.932V446.469H137.78V447.182H149.226V288.932H148.523Z" fill="black"/>
<path d="M233.76 288.932V446.469H223.017V447.182H234.463V288.932H233.76Z" fill="black"/>
<path d="M269.492 253.408C269.53 253.358 269.582 253.321 269.641 253.301C269.7 253.28 269.764 253.278 269.824 253.293C269.892 253.305 269.955 253.331 270.011 253.371C270.066 253.411 270.112 253.462 270.144 253.522C270.288 253.824 270.333 254.163 270.272 254.491C270.26 254.653 270.196 254.807 270.091 254.931C269.985 255.054 269.842 255.141 269.684 255.179C269.543 255.192 269.402 255.154 269.287 255.072C269.172 254.99 269.09 254.87 269.057 254.733C268.971 254.335 269.03 253.92 269.223 253.561H269.057C268.857 253.954 268.798 254.404 268.891 254.835C268.94 255.003 269.046 255.149 269.19 255.249C269.334 255.348 269.508 255.396 269.684 255.383C269.878 255.349 270.056 255.254 270.191 255.112C270.327 254.969 270.414 254.788 270.438 254.593C270.47 254.382 270.47 254.167 270.438 253.956C270.419 253.766 270.358 253.583 270.259 253.421C270.207 253.343 270.14 253.278 270.06 253.23C269.98 253.181 269.891 253.151 269.799 253.14C269.71 253.124 269.619 253.135 269.537 253.172C269.455 253.208 269.386 253.268 269.338 253.344L269.492 253.408Z" fill="black"/>
<path d="M268.699 259.498C268.735 259.449 268.785 259.413 268.841 259.392C268.898 259.372 268.96 259.369 269.019 259.383C269.087 259.39 269.153 259.415 269.209 259.455C269.265 259.495 269.31 259.55 269.338 259.612C269.493 259.91 269.543 260.251 269.479 260.581C269.465 260.742 269.401 260.895 269.296 261.019C269.19 261.142 269.049 261.229 268.891 261.269C268.75 261.282 268.609 261.244 268.494 261.162C268.379 261.08 268.297 260.96 268.264 260.823C268.179 260.425 268.238 260.009 268.43 259.65H268.264C268.058 260.042 267.999 260.494 268.098 260.925C268.151 261.088 268.255 261.23 268.396 261.329C268.537 261.428 268.706 261.478 268.878 261.473C269.073 261.437 269.251 261.342 269.389 261.2C269.527 261.059 269.616 260.878 269.645 260.683C269.684 260.472 269.684 260.256 269.645 260.046C269.631 259.855 269.569 259.671 269.466 259.51C269.419 259.429 269.352 259.361 269.272 259.312C269.191 259.263 269.1 259.235 269.006 259.23C268.918 259.217 268.828 259.23 268.746 259.266C268.665 259.302 268.595 259.36 268.546 259.434L268.699 259.498Z" fill="black"/>
<path d="M268.699 265.652C268.733 265.602 268.782 265.562 268.839 265.54C268.896 265.517 268.959 265.512 269.019 265.525C269.087 265.538 269.152 265.566 269.207 265.608C269.263 265.65 269.308 265.705 269.338 265.767C269.493 266.065 269.543 266.406 269.479 266.735C269.463 266.896 269.399 267.048 269.293 267.171C269.188 267.294 269.048 267.382 268.891 267.423C268.75 267.436 268.609 267.399 268.494 267.317C268.379 267.235 268.297 267.114 268.264 266.977C268.177 266.579 268.236 266.164 268.43 265.805H268.264C268.058 266.196 267.999 266.648 268.098 267.079C268.151 267.243 268.255 267.384 268.396 267.483C268.537 267.582 268.706 267.633 268.878 267.627C269.073 267.592 269.251 267.497 269.389 267.355C269.527 267.213 269.616 267.032 269.645 266.837C269.684 266.627 269.684 266.411 269.645 266.2C269.633 266.009 269.571 265.825 269.466 265.665C269.418 265.583 269.351 265.514 269.271 265.463C269.191 265.412 269.1 265.381 269.006 265.372C268.917 265.365 268.827 265.381 268.747 265.419C268.666 265.457 268.597 265.516 268.546 265.589L268.699 265.652Z" fill="black"/>
<path d="M260.169 282.447L268.341 286.766C268.341 286.766 274.556 289.773 278.751 290.015C280.964 290.111 283.166 290.38 285.337 290.818C285.812 290.817 286.283 290.91 286.722 291.091C287.161 291.273 287.56 291.539 287.895 291.875C288.905 292.984 292.767 298.131 293.803 301.024C293.803 301.024 288.688 302.018 270.783 293.889C265.582 291.48 260.016 289.947 254.312 289.353C254.312 289.353 251.204 281.962 252.125 281.708" fill="black"/>
<path d="M211.751 346.422H213.362V346.244H211.751V346.422Z" fill="black"/>
<path d="M213.106 343.632L214.5 343.874V343.709L213.119 343.479L213.106 343.632Z" fill="black"/>
<path d="M238.863 353.927L240.244 354.615L240.333 354.462L238.952 353.774L238.863 353.927Z" fill="black"/>
<path d="M217.971 427.04C224.621 427.705 231.313 427.841 237.985 427.448V427.283C231.313 427.665 224.621 427.525 217.971 426.862V427.04Z" fill="black"/>
<path d="M240.971 426.723L247.825 424.812L251.202 423.881L252.877 423.41C253.184 423.321 253.542 423.308 253.721 423.028V422.939V422.862L253.568 422.951C252.995 423.191 252.405 423.387 251.803 423.537L250.358 423.945L247.224 424.812L240.971 426.557V426.723Z" fill="black"/>
<path d="M251.588 317.981C251.588 317.981 233.069 332.838 226.854 339.056C220.639 345.274 219.475 379.549 219.475 379.549C219.475 379.549 223.107 356.079 228.146 347.848C234.891 337.103 242.747 327.093 251.588 317.981Z" fill="black"/>
<path d="M288.304 268.545C288.304 268.545 299.2 275.616 301.4 279.044C301.4 279.044 302.167 274.253 302.257 273.297C302.346 272.342 303.42 271.246 301.413 270.52C298.906 269.602 288.304 268.545 288.304 268.545Z" fill="black"/>
<path d="M242.482 267.921C242.482 267.921 250.846 269.628 253.224 272.673C252.955 271.413 252.776 270.136 252.687 268.851C252.815 268.43 252.879 267.322 251.728 267.335" fill="black"/>
<path d="M229.377 431.153L231.603 431.255V431.089L229.377 430.974V431.153Z" fill="black"/>
<path d="M229.39 432.885C230.154 433.218 230.993 433.341 231.82 433.242V433.064C231.024 433.171 230.214 433.057 229.48 432.732L229.39 432.885Z" fill="black"/>
<path d="M229.646 435.052C230.248 435.362 230.93 435.482 231.603 435.396V435.217C230.962 435.305 230.31 435.194 229.735 434.899L229.646 435.052Z" fill="black"/>
<path d="M249.238 427.967L251.067 427.279V427.101L249.225 427.802L249.238 427.967Z" fill="black"/>
<path d="M249.699 430.337C250.467 430.246 251.212 430.018 251.898 429.662L251.809 429.509C251.152 429.855 250.437 430.075 249.699 430.159V430.337Z" fill="black"/>
<path d="M250.389 432.223C251.116 432.263 251.838 432.071 252.448 431.675L252.359 431.522C251.775 431.902 251.085 432.086 250.389 432.045V432.223Z" fill="black"/>
<path d="M291.425 330.048C291.425 330.048 300.543 318.504 293.829 301.023L254.286 289.351" fill="#8ADBFF"/>
<path d="M18.5294 175.733L24.3483 189.557C24.5785 190.08 24.0669 190.653 23.4147 190.602L8.72039 189.239C8.5827 189.242 8.44705 189.205 8.3303 189.132C8.21355 189.059 8.12086 188.954 8.06366 188.829C8.00646 188.704 7.98729 188.566 8.00855 188.43C8.02982 188.294 8.09055 188.168 8.18324 188.067L17.0587 175.542C17.1585 175.438 17.2815 175.359 17.4177 175.311C17.5539 175.263 17.6994 175.248 17.8425 175.267C17.9857 175.285 18.1224 175.337 18.2417 175.418C18.361 175.499 18.4596 175.607 18.5294 175.733Z" fill="#D1EEFF"/>
<path d="M81.6092 328.952L96.624 329.954C97.196 329.983 97.4818 330.695 97.1442 331.253L89.345 343.734C89.2863 343.858 89.1923 343.962 89.0747 344.034C88.9571 344.105 88.8211 344.14 88.6834 344.135C88.5457 344.131 88.4125 344.086 88.3003 344.006C88.1881 343.926 88.1019 343.816 88.0522 343.688L80.7795 330.176C80.731 330.041 80.7151 329.896 80.7332 329.753C80.7513 329.611 80.8027 329.474 80.8835 329.355C80.9642 329.236 81.072 329.137 81.1981 329.067C81.3241 328.997 81.465 328.958 81.6092 328.952Z" fill="#FFCDC8"/>
<path d="M156.798 174.782V192.225C156.798 192.563 156.663 192.887 156.423 193.126C156.183 193.365 155.858 193.499 155.519 193.499H101.422C101.083 193.499 100.758 193.365 100.518 193.126C100.278 192.887 100.143 192.563 100.143 192.225V178.146L95.8592 173.877C95.8113 173.854 95.7725 173.815 95.7488 173.768C95.7251 173.72 95.7177 173.666 95.7279 173.614C95.7381 173.562 95.7652 173.514 95.8051 173.479C95.8451 173.444 95.8955 173.423 95.9487 173.419H155.493C155.671 173.415 155.848 173.448 156.012 173.516C156.177 173.584 156.325 173.685 156.448 173.813C156.57 173.942 156.665 174.094 156.725 174.261C156.786 174.428 156.81 174.605 156.798 174.782Z" fill="white"/>
<path d="M156.798 174.782H156.401V192.226C156.398 192.471 156.299 192.706 156.124 192.88C155.95 193.053 155.714 193.152 155.468 193.156H101.371C101.126 193.152 100.892 193.053 100.719 192.879C100.547 192.705 100.45 192.47 100.45 192.226V177.98L96.0383 173.585L95.9232 173.699H96.0894V173.585L95.9744 173.699L96.0894 173.814V173.699H95.9488L96.0639 173.814L95.9488 173.699V173.865H96.0639L95.9488 173.75V173.916H155.493C155.739 173.916 155.974 174.012 156.149 174.184C156.324 174.355 156.424 174.589 156.427 174.833H157.233C157.233 174.606 157.187 174.382 157.1 174.172C157.012 173.963 156.884 173.772 156.722 173.612C156.561 173.453 156.369 173.326 156.158 173.24C155.947 173.155 155.721 173.111 155.493 173.113H95.9488C95.8602 173.113 95.7725 173.131 95.6911 173.167C95.6098 173.202 95.5364 173.253 95.4756 173.317C95.4204 173.375 95.3772 173.443 95.3487 173.517C95.3201 173.591 95.3068 173.671 95.3094 173.75C95.3072 173.835 95.3219 173.919 95.3526 173.997C95.3834 174.076 95.4295 174.148 95.4884 174.209L99.6703 178.363V192.226C99.6703 192.683 99.8518 193.122 100.175 193.446C100.499 193.771 100.938 193.955 101.397 193.958H155.493C155.955 193.958 156.397 193.776 156.723 193.451C157.049 193.126 157.233 192.685 157.233 192.226V174.782H156.798Z" fill="#1A1A1A"/>
<path d="M105.553 181.203H149.329V180.4H105.553" fill="#1A1A1A"/>
<path d="M105.553 186.619H128.777V185.816H105.553" fill="#1A1A1A"/>
<path d="M212.467 204.224V217.73C212.467 218.002 212.574 218.262 212.766 218.456C212.957 218.649 213.217 218.759 213.49 218.762H243.914C244.189 218.762 244.453 218.654 244.647 218.46C244.841 218.267 244.95 218.004 244.95 217.73V206.798L248.288 203.473C248.312 203.446 248.328 203.413 248.334 203.378C248.341 203.343 248.337 203.307 248.324 203.274C248.31 203.24 248.288 203.212 248.259 203.19C248.23 203.169 248.196 203.157 248.16 203.154H213.49C213.351 203.154 213.214 203.182 213.086 203.236C212.959 203.291 212.843 203.37 212.748 203.47C212.652 203.57 212.578 203.689 212.529 203.819C212.481 203.948 212.46 204.086 212.467 204.224Z" fill="#D6EAE7"/>
<path d="M212.467 204.225H212.032V217.731C212.032 218.116 212.186 218.485 212.459 218.758C212.732 219.03 213.103 219.183 213.49 219.183H243.914C244.302 219.183 244.674 219.031 244.95 218.758C245.225 218.486 245.382 218.117 245.385 217.731V207.028L248.595 203.83C248.705 203.711 248.768 203.557 248.774 203.396C248.776 203.315 248.761 203.234 248.731 203.158C248.701 203.083 248.656 203.014 248.599 202.956C248.542 202.897 248.473 202.851 248.398 202.82C248.323 202.788 248.242 202.772 248.16 202.772H213.49C213.103 202.772 212.732 202.925 212.459 203.197C212.186 203.47 212.032 203.839 212.032 204.225H212.889C212.889 204.066 212.952 203.913 213.065 203.801C213.178 203.689 213.33 203.626 213.49 203.626H248.173V203.384L247.994 203.549L248.173 203.626V203.384L247.994 203.549L248.16 203.396H247.93L247.994 203.549L248.16 203.396L247.981 203.218L247.917 203.396H248.16L247.981 203.218L244.643 206.543L244.528 206.849V217.731C244.525 217.891 244.459 218.043 244.344 218.155C244.229 218.267 244.075 218.329 243.914 218.329H213.477C213.318 218.329 213.165 218.266 213.052 218.154C212.939 218.042 212.876 217.889 212.876 217.731V204.225H212.467Z" fill="#1A1A1A"/>
<path d="M238.466 208.48H216.048C215.947 208.498 215.855 208.55 215.789 208.628C215.723 208.706 215.687 208.805 215.687 208.907C215.687 209.009 215.723 209.108 215.789 209.186C215.855 209.264 215.947 209.316 216.048 209.334H238.466C238.529 209.345 238.593 209.342 238.654 209.325C238.715 209.309 238.772 209.279 238.821 209.238C238.869 209.198 238.908 209.147 238.935 209.09C238.961 209.033 238.975 208.97 238.975 208.907C238.975 208.844 238.961 208.781 238.935 208.724C238.908 208.667 238.869 208.616 238.821 208.576C238.772 208.535 238.715 208.505 238.654 208.489C238.593 208.472 238.529 208.469 238.466 208.48Z" fill="#1A1A1A"/>
<path d="M228.235 212.635H216.048C215.947 212.652 215.855 212.704 215.789 212.782C215.723 212.861 215.687 212.959 215.687 213.061C215.687 213.163 215.723 213.262 215.789 213.34C215.855 213.418 215.947 213.471 216.048 213.488H228.235C228.298 213.499 228.362 213.496 228.423 213.48C228.484 213.463 228.541 213.434 228.589 213.393C228.638 213.352 228.677 213.301 228.704 213.244C228.73 213.187 228.744 213.125 228.744 213.061C228.744 212.998 228.73 212.936 228.704 212.879C228.677 212.821 228.638 212.771 228.589 212.73C228.541 212.689 228.484 212.66 228.423 212.643C228.362 212.627 228.298 212.624 228.235 212.635Z" fill="#1A1A1A"/>
<path d="M59.1075 301.749H59.3755L59.4266 301.737L59.4138 301.686L59.0564 301.673L59.0436 301.737L59.1075 301.749Z" fill="black"/>
<path fill-rule="evenodd" clip-rule="evenodd" d="M38.3895 333.412C38.3895 333.412 38.0449 333.997 38.2874 333.59L38.3895 333.412Z" fill="black"/>
<path fill-rule="evenodd" clip-rule="evenodd" d="M38.6835 333.043C38.6835 333.043 38.2496 333.59 38.5431 333.195L38.6835 333.043Z" fill="black"/>
<path fill-rule="evenodd" clip-rule="evenodd" d="M39.0416 332.712C39.0416 332.712 38.5566 333.144 38.914 332.813L39.0416 332.712Z" fill="black"/>
<path fill-rule="evenodd" clip-rule="evenodd" d="M39.5019 332.406C39.5019 332.406 38.9275 332.877 39.3232 332.546L39.5019 332.406Z" fill="black"/>
<path fill-rule="evenodd" clip-rule="evenodd" d="M39.8217 332.062C39.8856 332.062 39.2857 332.481 39.6814 332.164L39.8217 332.062Z" fill="black"/>
<path fill-rule="evenodd" clip-rule="evenodd" d="M38.0319 335.183C38.0319 335.183 38.3255 335.857 38.1085 335.387L38.0319 335.183Z" fill="black"/>
<path fill-rule="evenodd" clip-rule="evenodd" d="M38.4412 336.024C38.6581 336.228 38.7092 336.482 38.4412 336.024V336.024Z" fill="black"/>
<path fill-rule="evenodd" clip-rule="evenodd" d="M38.4407 336.024C38.1089 335.541 38.2238 335.502 38.4407 336.024V336.024Z" fill="black"/>
<path fill-rule="evenodd" clip-rule="evenodd" d="M37.8656 335.349L37.9932 335.616L37.8656 335.349Z" fill="black"/>
<path fill-rule="evenodd" clip-rule="evenodd" d="M37.7505 335.12C37.7505 334.7 37.7505 334.967 37.7505 335.209C37.7505 335.451 37.9296 335.643 37.7505 335.12Z" fill="black"/>
<path fill-rule="evenodd" clip-rule="evenodd" d="M38.0063 335.718L38.1339 335.922L38.0063 335.718Z" fill="black"/>
<path fill-rule="evenodd" clip-rule="evenodd" d="M61.4991 340.178C61.4991 340.178 61.3969 340.699 61.4991 340.33V340.178Z" fill="black"/>
<path fill-rule="evenodd" clip-rule="evenodd" d="M61.4224 338.777C61.4224 338.777 61.4862 339.222 61.4224 338.891V338.777Z" fill="black"/>
<path fill-rule="evenodd" clip-rule="evenodd" d="M60.7953 341.401C60.7953 341.401 60.438 341.757 60.6932 341.503L60.7953 341.401Z" fill="black"/>
<path fill-rule="evenodd" clip-rule="evenodd" d="M60.3093 341.809C60.1817 341.974 59.9648 342 60.3093 341.809V341.809Z" fill="black"/>
<path fill-rule="evenodd" clip-rule="evenodd" d="M60.3098 341.808C60.5905 341.541 60.6416 341.592 60.3098 341.808V341.808Z" fill="black"/>
<path fill-rule="evenodd" clip-rule="evenodd" d="M60.6031 341.325L60.476 341.465L60.6031 341.325Z" fill="black"/>
<path fill-rule="evenodd" clip-rule="evenodd" d="M60.6804 341.172C61.076 340.854 60.2209 341.63 60.6804 341.172V341.172Z" fill="black"/>
<path fill-rule="evenodd" clip-rule="evenodd" d="M60.4112 341.452L60.3098 341.553L60.4112 341.452Z" fill="black"/>
<path fill-rule="evenodd" clip-rule="evenodd" d="M69.1085 324.85C69.1085 324.85 69.3127 325.588 69.1085 325.066V324.85Z" fill="black"/>
<path fill-rule="evenodd" clip-rule="evenodd" d="M68.9166 324.353C68.9166 324.29 69.1081 325.091 68.9166 324.569V324.353Z" fill="black"/>
<path fill-rule="evenodd" clip-rule="evenodd" d="M68.8271 323.844C68.8271 323.78 68.9929 324.518 68.8271 324.009V323.844Z" fill="black"/>
<path fill-rule="evenodd" clip-rule="evenodd" d="M68.6608 323.295C68.6608 323.295 68.8651 324.033 68.7247 323.511L68.6608 323.295Z" fill="black"/>
<path fill-rule="evenodd" clip-rule="evenodd" d="M68.533 322.85C68.533 322.774 68.7117 323.511 68.533 323.015V322.85Z" fill="black"/>
<path fill-rule="evenodd" clip-rule="evenodd" d="M69.5177 326.889C69.5177 326.889 69.7219 327.639 69.5177 327.118V326.889Z" fill="black"/>
<path fill-rule="evenodd" clip-rule="evenodd" d="M69.7607 327.832C69.8883 328.137 69.8756 328.366 69.7607 327.832V327.832Z" fill="black"/>
<path fill-rule="evenodd" clip-rule="evenodd" d="M69.7604 327.831C69.569 327.31 69.6328 327.31 69.7604 327.831V327.831Z" fill="black"/>
<path fill-rule="evenodd" clip-rule="evenodd" d="M69.3386 327.042L69.428 327.322L69.3386 327.042Z" fill="black"/>
<path fill-rule="evenodd" clip-rule="evenodd" d="M69.2491 326.812C69.1212 326.035 69.5049 327.857 69.2491 326.812V326.812Z" fill="black"/>
<path fill-rule="evenodd" clip-rule="evenodd" d="M69.4282 327.424L69.492 327.653L69.4282 327.424Z" fill="black"/>
<path fill-rule="evenodd" clip-rule="evenodd" d="M74.0321 315.319C74.0321 315.319 74.1087 314.721 74.0321 315.141V315.319Z" fill="black"/>
<path fill-rule="evenodd" clip-rule="evenodd" d="M74.0321 315.713C74.0321 315.713 74.1087 315.128 74.0321 315.548V315.713Z" fill="black"/>
<path fill-rule="evenodd" clip-rule="evenodd" d="M73.9299 316.121C73.9299 316.121 73.9937 315.587 73.9299 315.981V316.121Z" fill="black"/>
<path fill-rule="evenodd" clip-rule="evenodd" d="M73.8787 316.554C73.8787 316.554 73.9553 315.969 73.8787 316.389V316.554Z" fill="black"/>
<path fill-rule="evenodd" clip-rule="evenodd" d="M73.8275 316.912C73.8275 316.912 73.9168 316.39 73.8275 316.784V316.912Z" fill="black"/>
<path fill-rule="evenodd" clip-rule="evenodd" d="M74.5053 313.739C74.5053 313.739 74.7351 313.192 74.5692 313.573L74.5053 313.739Z" fill="black"/>
<path fill-rule="evenodd" clip-rule="evenodd" d="M74.8123 313.051C74.8888 312.81 75.0292 312.682 74.8123 313.051V313.051Z" fill="black"/>
<path fill-rule="evenodd" clip-rule="evenodd" d="M74.8119 313.051C74.6588 313.496 74.595 313.471 74.8119 313.051V313.051Z" fill="black"/>
<path fill-rule="evenodd" clip-rule="evenodd" d="M74.7354 313.752L74.7993 313.536L74.7354 313.752Z" fill="black"/>
<path fill-rule="evenodd" clip-rule="evenodd" d="M74.6969 313.93C74.4034 314.489 74.9904 313.18 74.6969 313.93V313.93Z" fill="black"/>
<path fill-rule="evenodd" clip-rule="evenodd" d="M74.8634 313.484L74.9273 313.319L74.8634 313.484Z" fill="black"/>
<path fill-rule="evenodd" clip-rule="evenodd" d="M76.8712 321.002C76.8712 321.091 77.0247 319.728 76.8712 320.62V321.002Z" fill="black"/>
<path fill-rule="evenodd" clip-rule="evenodd" d="M76.7561 321.881C76.7561 321.983 76.9352 320.607 76.8201 321.499L76.7561 321.881Z" fill="black"/>
<path fill-rule="evenodd" clip-rule="evenodd" d="M76.5899 322.774C76.5899 322.875 76.7817 321.601 76.5899 322.48V322.774Z" fill="black"/>
<path fill-rule="evenodd" clip-rule="evenodd" d="M76.4748 323.742C76.4748 323.844 76.6922 322.467 76.5515 323.359L76.4748 323.742Z" fill="black"/>
<path fill-rule="evenodd" clip-rule="evenodd" d="M76.3341 324.532C76.3341 324.634 76.5516 323.373 76.3981 324.239L76.3341 324.532Z" fill="black"/>
<path fill-rule="evenodd" clip-rule="evenodd" d="M77.3444 317.46C77.3779 317.286 77.4383 317.118 77.5235 316.963C77.6513 316.759 77.7025 316.644 77.5235 317.065L77.3444 317.46Z" fill="black"/>
<path fill-rule="evenodd" clip-rule="evenodd" d="M78.2908 316.071C78.5721 315.6 78.8407 315.332 78.2908 316.071V316.071Z" fill="black"/>
<path fill-rule="evenodd" clip-rule="evenodd" d="M78.2908 316.071C78.1404 316.283 77.9643 316.475 77.7665 316.644C77.7665 316.644 77.971 316.466 78.2908 316.071Z" fill="black"/>
<path fill-rule="evenodd" clip-rule="evenodd" d="M77.6002 317.358L77.7792 316.925L77.6002 317.358Z" fill="black"/>
<path fill-rule="evenodd" clip-rule="evenodd" d="M77.549 317.753C77.4595 318.441 77.4851 317.982 77.549 317.6C77.5717 317.472 77.6104 317.348 77.6641 317.23C77.6162 317.402 77.5778 317.577 77.549 317.753Z" fill="black"/>
<path fill-rule="evenodd" clip-rule="evenodd" d="M38.7353 337.158C38.7353 337.158 38.965 336.777 38.8119 337.044L38.7353 337.158Z" fill="black"/>
<path fill-rule="evenodd" clip-rule="evenodd" d="M38.5945 337.502C38.5945 337.502 38.8243 337.108 38.5945 337.388V337.502Z" fill="black"/>
<path fill-rule="evenodd" clip-rule="evenodd" d="M38.4412 337.706C38.4412 337.706 38.6581 337.35 38.4412 337.617V337.706Z" fill="black"/>
<path fill-rule="evenodd" clip-rule="evenodd" d="M38.2238 337.999C38.2238 337.999 38.4535 337.604 38.3003 337.884L38.2238 337.999Z" fill="black"/>
<path fill-rule="evenodd" clip-rule="evenodd" d="M38.1469 338.254C38.1469 338.254 38.3511 337.898 38.1469 338.165V338.254Z" fill="black"/>
<path fill-rule="evenodd" clip-rule="evenodd" d="M39.5026 336.151C39.5026 336.151 39.694 335.744 39.5664 336.024L39.5026 336.151Z" fill="black"/>
<path fill-rule="evenodd" clip-rule="evenodd" d="M39.6817 335.629C39.6945 335.438 39.8093 335.336 39.6817 335.629V335.629Z" fill="black"/>
<path fill-rule="evenodd" clip-rule="evenodd" d="M39.6814 335.63C39.5793 335.973 39.5027 335.947 39.6814 335.63V335.63Z" fill="black"/>
<path fill-rule="evenodd" clip-rule="evenodd" d="M39.6561 336.228L39.72 336.062L39.6561 336.228Z" fill="black"/>
<path fill-rule="evenodd" clip-rule="evenodd" d="M39.6175 336.33C39.324 336.737 39.9238 335.757 39.6175 336.33V336.33Z" fill="black"/>
<path fill-rule="evenodd" clip-rule="evenodd" d="M61.5374 347.696C61.5374 347.696 61.6269 348.001 61.5374 347.798V347.696Z" fill="black"/>
<path fill-rule="evenodd" clip-rule="evenodd" d="M61.4734 347.504C61.4734 347.504 61.5629 347.797 61.4734 347.593V347.504Z" fill="black"/>
<path fill-rule="evenodd" clip-rule="evenodd" d="M61.4097 347.301C61.4097 347.301 61.486 347.567 61.4097 347.364V347.301Z" fill="black"/>
<path fill-rule="evenodd" clip-rule="evenodd" d="M61.3456 347.071C61.3456 347.071 61.4223 347.377 61.3456 347.16V347.071Z" fill="black"/>
<path fill-rule="evenodd" clip-rule="evenodd" d="M61.2434 346.893C61.2434 346.893 61.307 347.159 61.2434 346.893V346.893Z" fill="black"/>
<path fill-rule="evenodd" clip-rule="evenodd" d="M61.6525 348.562C61.6525 348.562 61.7291 348.854 61.6525 348.651V348.562Z" fill="black"/>
<path fill-rule="evenodd" clip-rule="evenodd" d="M61.7421 348.97C61.8186 349.059 61.7676 349.161 61.7421 348.97V348.97Z" fill="black"/>
<path fill-rule="evenodd" clip-rule="evenodd" d="M61.742 348.969C61.6399 348.715 61.7037 348.702 61.742 348.969V348.969Z" fill="black"/>
<path fill-rule="evenodd" clip-rule="evenodd" d="M61.3967 348.562C61.3839 348.219 61.4988 348.969 61.3967 348.562V348.562Z" fill="black"/>
<path fill-rule="evenodd" clip-rule="evenodd" d="M42.7892 316.288C42.7892 316.288 42.7254 316.924 42.7892 316.453V316.288Z" fill="black"/>
<path fill-rule="evenodd" clip-rule="evenodd" d="M42.8531 315.766C42.8531 315.766 42.751 316.465 42.8531 315.969V315.766Z" fill="black"/>
<path fill-rule="evenodd" clip-rule="evenodd" d="M42.9298 315.345C42.9298 315.282 42.8022 315.968 42.9298 315.498V315.345Z" fill="black"/>
<path fill-rule="evenodd" clip-rule="evenodd" d="M42.8021 319.205C42.8021 319.205 42.9424 319.905 42.8021 319.409V319.205Z" fill="black"/>
<path fill-rule="evenodd" clip-rule="evenodd" d="M42.9683 320.098C43.0959 320.377 43.0959 320.594 42.9683 320.098V320.098Z" fill="black"/>
<path fill-rule="evenodd" clip-rule="evenodd" d="M42.9683 320.098C42.8148 319.55 42.8788 319.537 42.9683 320.098V320.098Z" fill="black"/>
<path fill-rule="evenodd" clip-rule="evenodd" d="M42.6102 319.321L42.674 319.6L42.6102 319.321Z" fill="black"/>
<path fill-rule="evenodd" clip-rule="evenodd" d="M42.5336 319.104C42.4696 318.314 42.6998 320.11 42.5336 319.104V319.104Z" fill="black"/>
<path d="M72.7021 310.604L74.9658 310.655L74.9913 310.63L74.9658 310.604L72.7021 310.553L72.6766 310.579L72.7021 310.604Z" fill="black"/>
<path d="M283.449 198.836L280.861 200.065C280.59 200.186 280.269 200.076 280.144 199.813L278.917 197.224C278.795 196.953 278.906 196.632 279.169 196.507L281.757 195.278C282.028 195.156 282.349 195.267 282.474 195.53L283.701 198.118C283.831 198.393 283.72 198.714 283.449 198.836Z" fill="#FCEB4D"/>
<path d="M283.93 174.769C282.703 184.024 281.206 193.239 279.431 202.411C279.372 202.696 279.822 202.741 279.869 202.46C281.636 193.285 283.133 184.071 284.368 174.819C284.41 174.527 283.969 174.485 283.93 174.769Z" fill="black"/>
<path d="M276.721 201.289C276.321 198.856 275.934 196.418 275.535 193.984C275.486 193.703 275.048 193.77 275.096 194.051C275.495 196.484 275.883 198.923 276.282 201.356C276.322 201.633 276.769 201.57 276.721 201.289Z" fill="black"/>
<path d="M275.168 190.925C275.092 190.43 275.007 189.932 274.931 189.436C274.91 189.322 274.795 189.228 274.681 189.25C274.567 189.272 274.475 189.38 274.492 189.503C274.568 189.998 274.653 190.497 274.729 190.992C274.75 191.107 274.865 191.201 274.979 191.179C275.093 191.157 275.185 191.048 275.168 190.925Z" fill="black"/>
<path d="M285.123 201.927C288.068 199.812 291.009 197.686 293.954 195.572C294.185 195.403 293.916 195.053 293.684 195.222C290.739 197.336 287.799 199.463 284.854 201.577C284.614 201.743 284.884 202.092 285.123 201.927Z" fill="black"/>
<path d="M291.815 210.836C295.473 209.977 299.122 209.067 302.753 208.109C303.032 208.037 302.971 207.595 302.692 207.668C299.058 208.633 295.409 209.544 291.755 210.394C291.471 210.455 291.531 210.897 291.815 210.836Z" fill="black"/>
<path d="M290.364 206.856C291.424 206.369 292.429 205.782 293.383 205.107C293.623 204.941 293.345 204.588 293.113 204.757C292.197 205.408 291.22 205.977 290.195 206.449C289.935 206.568 290.105 206.975 290.364 206.856Z" fill="black"/>
<path d="M295.764 203.721C296.286 203.425 296.805 203.138 297.319 202.84C297.419 202.783 297.498 202.659 297.437 202.548C297.39 202.452 297.252 202.368 297.149 202.433C296.627 202.728 296.108 203.015 295.594 203.314C295.494 203.371 295.415 203.494 295.475 203.605C295.519 203.71 295.653 203.783 295.764 203.721Z" fill="black"/>
<path d="M305.069 201.962C306.121 202.387 307.319 201.879 307.745 200.826C308.171 199.774 307.663 198.576 306.611 198.15C305.56 197.725 304.362 198.233 303.936 199.285C303.51 200.338 304.017 201.536 305.069 201.962Z" fill="#73CBF2"/>
<path d="M270.837 177.756L267.863 181.344C267.731 181.503 267.823 181.753 268.022 181.785L272.612 182.562C272.819 182.598 272.979 182.392 272.912 182.201L271.288 177.832C271.221 177.641 270.969 177.597 270.837 177.756Z" fill="#73CBF2"/>
<path d="M99 81L86 74V88L99 81Z" fill="#FBDF06"/>
<path d="M268.031 67.6659C272.352 67.6659 276.674 67.6659 280.996 67.6659C281.232 67.6659 281.232 67.2965 280.996 67.2965C276.674 67.2965 272.352 67.2965 268.031 67.2965C267.794 67.2965 267.794 67.6659 268.031 67.6659Z" fill="black"/>
<path d="M82.7197 81.6096C87.0489 81.6096 91.378 81.6096 95.7145 81.6096C98.7878 81.6096 101.854 81.6096 104.927 81.6096C107.778 81.6096 110.63 81.6096 113.489 81.6096C113.822 81.6096 113.822 81.0925 113.489 81.0925C109.16 81.0925 104.831 81.0925 100.494 81.0925C97.4211 81.0925 94.3552 81.0925 91.282 81.0925C88.4304 81.0925 85.5787 81.0925 82.7197 81.0925C82.3873 81.0925 82.3873 81.6096 82.7197 81.6096Z" fill="black"/>
<path d="M232.555 82.0124C237.571 82.0124 242.58 82.0124 247.596 82.0124C249.717 82.0124 251.829 82.0124 253.95 82.0124C254.186 82.0124 254.186 81.6431 253.95 81.6431C248.933 81.6431 243.925 81.6431 238.908 81.6431C236.788 81.6431 234.675 81.6431 232.555 81.6431C232.319 81.6431 232.319 82.0124 232.555 82.0124Z" fill="black"/>
<path d="M113.312 24.8622C121.362 24.8622 129.411 24.8622 137.461 24.8622C138.233 24.8622 139.015 24.8622 139.788 24.8622C140.011 24.8622 140.216 24.5737 140.067 24.369C139.062 23.001 139.052 20.9722 140.206 19.6787C141.351 18.3852 143.37 18.1339 144.85 18.9901C145.046 19.1017 145.371 18.9621 145.343 18.7109C144.738 13.3041 145.436 7.18996 149.736 3.36517C151.569 1.7273 153.961 0.629187 156.445 0.638493C158.93 0.647799 161.21 1.81106 163.006 3.46754C165.035 5.34736 166.515 7.75763 167.687 10.2424C167.808 10.4936 168.218 10.4285 168.283 10.1679C168.953 7.35747 172.433 6.38034 174.918 7.23649C178.147 8.35322 179.711 12.0105 180.39 15.0815C180.455 15.3793 180.976 15.4072 181.013 15.0815C181.358 12.6154 183.963 10.6518 186.448 11.2753C188.858 11.8709 190.329 14.6813 189.575 17.0172C189.501 17.2405 189.743 17.5104 189.975 17.4173C194.2 15.7422 199.123 16.403 202.752 19.139C203.087 19.3902 203.413 18.8225 203.078 18.5806C199.328 15.7515 194.163 15.0536 189.798 16.7938C189.929 16.9241 190.068 17.0637 190.199 17.194C191.055 14.5325 189.361 11.3405 186.616 10.6518C183.824 9.95387 180.771 12.085 180.381 14.914C180.585 14.914 180.799 14.914 181.004 14.914C180.39 12.1036 179.152 9.21869 176.742 7.48776C174.76 6.06393 172.052 5.87781 169.921 7.07829C168.795 7.71111 167.948 8.73477 167.65 10.0004C167.845 9.97248 168.05 9.94456 168.246 9.92595C166.152 5.47765 162.671 0.666412 157.404 0.0615175C151.932 -0.571295 147.251 3.77464 145.548 8.65102C144.422 11.8709 144.32 15.37 144.701 18.7295C144.869 18.6364 145.027 18.5434 145.194 18.4503C143.473 17.4546 141.109 17.743 139.769 19.2413C138.429 20.7396 138.345 23.1126 139.527 24.7226C139.62 24.5551 139.713 24.3969 139.806 24.2294C133.264 24.2294 126.713 24.2294 120.17 24.2294C117.89 24.2294 115.61 24.2294 113.33 24.2294C112.893 24.2108 112.893 24.8622 113.312 24.8622Z" fill="black"/>
<path d="M90.1024 74.1348C90.1838 74.1348 90.1838 74.009 90.1024 74.009C90.021 74.009 90.021 74.1348 90.1024 74.1348Z" fill="black"/>
<path d="M90.1024 74.1348C90.1838 74.1348 90.1838 74.009 90.1024 74.009C90.021 74.009 90.021 74.1348 90.1024 74.1348Z" fill="black"/>
<path d="M12.2512 65.4492C14.859 65.4492 17.4742 65.4344 20.0821 65.4123C20.3111 65.4123 20.4219 65.1315 20.2668 64.969C19.6019 64.2746 19.4689 63.1295 20.0451 62.3316C20.5992 61.5633 21.7073 61.3048 22.5569 61.6889C22.7638 61.785 22.9854 61.6298 22.9337 61.4008C22.3944 58.8964 23.6207 56.1925 25.7262 54.7741C27.9351 53.2892 30.7867 53.5995 32.8552 55.1878C34.0003 56.0669 34.8351 57.3007 35.1602 58.7191C35.2045 58.9038 35.4631 58.9703 35.5887 58.8299C36.9037 57.4041 38.3664 55.7936 40.3241 55.3208C42.0233 54.9071 43.8332 55.4464 44.6237 57.0717C44.934 57.7144 45.1852 58.4605 45.8057 58.8816C46.3893 59.2732 47.069 59.2067 47.6896 58.9333C48.4135 58.6083 49.0341 58.0394 49.8172 57.8547C50.8071 57.6183 51.5976 58.3128 52.2108 58.9998C52.8535 59.7312 53.378 60.5291 54.2128 61.061C54.959 61.5338 55.8824 61.748 56.6581 61.2235C56.9314 61.0388 56.6729 60.5956 56.3995 60.7802C55.513 61.3713 54.4788 60.7285 53.8139 60.0932C53.1564 59.4652 52.691 58.6526 51.9965 58.0542C51.4203 57.5519 50.7185 57.2046 49.9354 57.3081C49.1745 57.4115 48.5391 57.8769 47.889 58.2463C47.1207 58.6822 46.2785 58.8816 45.6949 58.0468C45.2443 57.4041 45.067 56.6062 44.5572 55.9931C43.5747 54.8037 41.8755 54.4934 40.4202 54.7667C38.2556 55.173 36.6377 56.9165 35.2119 58.4605C35.3523 58.4975 35.5 58.5344 35.6404 58.5713C35.0124 55.8305 32.5376 53.7251 29.782 53.3335C26.9821 52.9346 24.3521 54.5303 23.0741 56.9978C22.3501 58.394 22.0915 59.9898 22.4239 61.5264C22.5495 61.4303 22.6751 61.3343 22.8007 61.2383C21.7295 60.7581 20.3924 61.0166 19.6536 61.9696C18.8853 62.967 19.0256 64.4371 19.8826 65.331C19.9417 65.1832 20.0008 65.0355 20.0673 64.8877C17.4595 64.9025 14.8443 64.9247 12.2364 64.9247C11.9188 64.9321 11.9188 65.4492 12.2512 65.4492Z" fill="black"/>
<path d="M358.854 66.1348C358.935 66.1348 358.935 66.009 358.854 66.009C358.772 66.009 358.772 66.1348 358.854 66.1348Z" fill="black"/>
<path d="M358.854 66.1348C358.935 66.1348 358.935 66.009 358.854 66.009C358.772 66.009 358.772 66.1348 358.854 66.1348Z" fill="black"/>
<path d="M281.003 57.4492C283.611 57.4492 286.226 57.4344 288.834 57.4123C289.063 57.4123 289.174 57.1315 289.019 56.969C288.354 56.2746 288.221 55.1295 288.797 54.3316C289.351 53.5633 290.459 53.3048 291.309 53.6889C291.516 53.785 291.737 53.6298 291.686 53.4008C291.146 50.8964 292.373 48.1925 294.478 46.7741C296.687 45.2892 299.539 45.5995 301.607 47.1878C302.752 48.0669 303.587 49.3007 303.912 50.7191C303.957 50.9038 304.215 50.9703 304.341 50.8299C305.656 49.4041 307.118 47.7936 309.076 47.3208C310.775 46.9071 312.585 47.4464 313.376 49.0717C313.686 49.7144 313.937 50.4605 314.558 50.8816C315.141 51.2732 315.821 51.2067 316.442 50.9333C317.166 50.6083 317.786 50.0394 318.569 49.8547C319.559 49.6183 320.35 50.3128 320.963 50.9998C321.606 51.7312 322.13 52.5291 322.965 53.061C323.711 53.5338 324.634 53.748 325.41 53.2235C325.683 53.0388 325.425 52.5956 325.152 52.7802C324.265 53.3713 323.231 52.7285 322.566 52.0932C321.908 51.4652 321.443 50.6526 320.749 50.0542C320.172 49.5519 319.47 49.2046 318.687 49.3081C317.926 49.4115 317.291 49.8769 316.641 50.2463C315.873 50.6822 315.031 50.8816 314.447 50.0468C313.996 49.4041 313.819 48.6062 313.309 47.9931C312.327 46.8037 310.628 46.4934 309.172 46.7667C307.008 47.173 305.39 48.9165 303.964 50.4605C304.104 50.4975 304.252 50.5344 304.392 50.5713C303.764 47.8305 301.29 45.7251 298.534 45.3335C295.734 44.9346 293.104 46.5303 291.826 48.9978C291.102 50.394 290.844 51.9898 291.176 53.5264C291.302 53.4303 291.427 53.3343 291.553 53.2383C290.482 52.7581 289.144 53.0166 288.406 53.9696C287.637 54.967 287.778 56.4371 288.635 57.331C288.694 57.1832 288.753 57.0355 288.819 56.8877C286.211 56.9025 283.596 56.9247 280.988 56.9247C280.671 56.9321 280.671 57.4492 281.003 57.4492Z" fill="black"/>
</svg>
