<svg width="153" height="28" viewBox="0 0 153 28" fill="none" xmlns="http://www.w3.org/2000/svg">
<path fill-rule="evenodd" clip-rule="evenodd" d="M23.259 2.06063C19.7917 7.07121 11.0498 19.6488 11.0498 19.6488L0.430116 4.65539C0.430116 4.65539 -0.537645 3.26854 0.430116 1.69634C0.430116 1.69634 0.750566 0.999716 1.58374 0.494823C1.9875 0.251963 2.51945 0.0538409 3.1924 0.00271252C3.1924 0.00271252 4.07043 -0.067589 5.44837 0.507605C5.44837 0.507605 12.0817 3.19184 23.259 2.06063Z" fill="#FFDD00"/>
<path fill-rule="evenodd" clip-rule="evenodd" d="M33.4044 0.0285809C33.4044 0.0285809 33.8659 0.0349719 34.4299 0.213921C35.058 0.412044 35.7629 0.81468 36.1667 1.69025C36.1667 1.69025 36.9486 3.12185 35.9552 4.64931L21.0735 26.4108C21.0735 26.4108 20.1826 27.8424 18.4971 27.9958C18.4971 27.9958 16.8628 28.1748 15.7604 26.1999L10.9601 19.5213C10.9601 19.5213 19.7212 7.07791 23.2526 2.06093C23.2526 2.06093 28.5656 1.33235 32.1226 0.258659C32.1226 0.258659 32.975 -0.00337434 33.4044 0.0285809Z" fill="#73CBF2"/>
<path fill-rule="evenodd" clip-rule="evenodd" d="M18.3883 27.9957H7.20461C6.80725 27.9765 6.49321 27.772 6.49321 27.772C5.76899 27.0562 6.25608 26.2893 6.25608 26.2893C6.25608 26.2893 9.42854 21.7069 10.9539 19.5275L16.6387 27.1712C16.6451 27.1712 17.177 27.9701 18.3883 27.9957Z" fill="#F27264"/>
<path d="M52.1572 19.0997L46.5814 7.0462H43.8383L50.8434 21.9821L50.4716 22.8065C49.6769 24.5832 48.6258 25.4396 47.2607 25.4396C46.5621 25.4396 45.7418 25.2735 45.165 25.0114L44.2549 24.596V27.2291L44.6907 27.3761C45.5623 27.6637 46.5557 27.8427 47.3376 27.8427C51.042 27.8427 52.4905 24.4746 53.1057 23.0366L59.8993 7.05259H57.2075L52.1572 19.0997Z" fill="#231F20"/>
<path d="M67.5773 6.75854C63.2256 6.75854 59.9442 10.0435 59.9442 14.4022C59.9442 18.7418 63.2 22.014 67.5197 22.014C70.4229 22.014 73.0699 20.5057 74.2748 18.1666L74.576 17.585L72.4225 16.5432L72.1341 17.0865C71.2753 18.7034 69.5257 19.7004 67.5773 19.7004C65.0522 19.7004 63.0334 18.0196 62.5527 15.6101H74.7682L74.858 15.0797C74.8964 14.8496 74.9221 14.4598 74.9221 14.1402C74.9285 9.86459 71.8393 6.75854 67.5773 6.75854ZM62.5078 13.3349C62.9244 10.8616 64.9881 9.0721 67.5517 9.0721C70.0769 9.0721 72.0316 10.8296 72.4033 13.3349H62.5078Z" fill="#231F20"/>
<path d="M79.8763 0.33551H77.4152V21.7263H79.8763V0.33551Z" fill="#231F20"/>
<path d="M86.0096 0.33551H83.5485V21.7263H86.0096V0.33551Z" fill="#231F20"/>
<path d="M96.1295 6.73303C91.7778 6.73303 88.4964 10.0308 88.4964 14.4023C88.4964 18.7418 91.7778 22.014 96.1295 22.014C100.5 22.014 103.795 18.7418 103.795 14.4023C103.795 10.0308 100.5 6.73303 96.1295 6.73303ZM101.302 14.4023C101.302 17.3933 99.0905 19.6429 96.1552 19.6429C93.207 19.6429 90.9831 17.3869 90.9831 14.4023C90.9831 11.3985 93.207 9.12967 96.1552 9.12967C99.0905 9.12967 101.302 11.3985 101.302 14.4023Z" fill="#231F20"/>
<path d="M124.29 7.0462L120.246 17.6426L116.555 7.0462H114.523L110.832 17.6489L106.755 7.0462H104.051L109.883 21.7264H111.87L115.549 11.1429L119.182 21.7264H121.169L127.001 7.0462H124.29Z" fill="#231F20"/>
<path d="M128.021 18.7545C127.078 18.7545 126.316 19.5023 126.316 20.429C126.316 21.3812 127.046 22.1034 128.021 22.1034C128.943 22.1034 129.668 21.3685 129.668 20.429C129.668 19.5087 128.924 18.7545 128.021 18.7545Z" fill="#231F20"/>
<path d="M143.46 8.88037C142.14 7.52547 140.326 6.75854 138.32 6.75854C134.116 6.75854 130.943 10.0435 130.943 14.4022C130.943 18.7418 134.103 22.014 138.288 22.014C140.3 22.014 142.127 21.2343 143.46 19.8602V21.7264H145.921V7.04614H143.46V8.88037ZM143.434 14.3128C143.434 17.3485 141.274 19.6429 138.403 19.6429C135.59 19.6429 133.462 17.3869 133.462 14.4022C133.462 11.3984 135.596 9.12962 138.429 9.12962C141.287 9.12962 143.434 11.3601 143.434 14.3128Z" fill="#231F20"/>
<path d="M152.061 7.0462H149.568V21.7264H152.061V7.0462Z" fill="#231F20"/>
<path d="M152.548 4.04237C152.548 3.0901 151.772 2.34235 150.785 2.34235C149.811 2.34235 149.049 3.0901 149.049 4.04237C149.049 5.02659 149.811 5.7999 150.785 5.7999C151.785 5.7999 152.548 5.04576 152.548 4.04237Z" fill="#231F20"/>
</svg>
